SplineFontDB: 3.2
FontName: SeriousShannsLight
FullName: Serious Shanns Light
FamilyName: Serious Shanns Light
Weight: Light
Copyright: https://github.com/kaBeech/serious-shanns/blob/main/LICENSE
Version: 6.0.0
ItalicAngle: 0
UnderlinePosition: 0
UnderlineWidth: 0
Ascent: 800
Descent: 200
InvalidEm: 0
sfntRevision: 0x00003333
LayerCount: 2
Layer: 0 0 "Back" 1
Layer: 1 0 "Fore" 0
XUID: [1021 329 -1817886000 12366394]
StyleMap: 0x0040
FSType: 4
OS2Version: 3
OS2_WeightWidthSlopeOnly: 0
OS2_UseTypoMetrics: 0
CreationTime: 1532631502
ModificationTime: 315532800
PfmFamily: 81
TTFWeight: 300
TTFWidth: 5
LineGap: 0
VLineGap: 0
Panose: 0 0 0 0 0 0 0 0 0 0
OS2TypoAscent: 613
OS2TypoAOffset: 0
OS2TypoDescent: -188
OS2TypoDOffset: 0
OS2TypoLinegap: 98
OS2WinAscent: 778
OS2WinAOffset: 0
OS2WinDescent: 308
OS2WinDOffset: 0
HheadAscent: 796
HheadAOffset: 0
HheadDescent: -317
HheadDOffset: 0
OS2SubXSize: 317
OS2SubYSize: 293
OS2SubXOff: 0
OS2SubYOff: 37
OS2SupXSize: 317
OS2SupYSize: 293
OS2SupXOff: 0
OS2SupYOff: 171
OS2StrikeYSize: 0
OS2StrikeYPos: 132
OS2CapHeight: 576
OS2XHeight: 485
OS2Vendor: 'NONE'
OS2CodePages: 00000001.00000000
OS2UnicodeRanges: 00000001.00000000.00000000.00000000
MarkAttachClasses: 1
DEI: 91125
LangName: 1033 "" "" "Normal" "FontForge 2.0 : Serious Shanns Light : 1-1-1980" "" "Version 0.2.0"
Encoding: UnicodeBmp
Compacted: 1
UnicodeInterp: none
NameList: AGL For New Fonts
DisplaySize: -48
AntiAlias: 1
FitToEm: 0
WinInfo: 48 16 4
BeginPrivate: 8
BlueValues 32 [-39 -8 492 523 690 718 765 769]
OtherBlues 11 [-297 -287]
BlueScale 9 0.0333333
BlueShift 2 17
StdHW 4 [67]
StdVW 4 [73]
StemSnapH 4 [67]
StemSnapV 7 [68 73]
EndPrivate
BeginChars: 65537 105

StartChar: .notdef
Encoding: 65536 -1 0
Width: 650
GlyphClass: 1
Flags: HMW
HStem: -258 34<154.5 495.5 154.5 529.5> 705 34<154.5 495.5 154.5 154.5>
VStem: 120.5 34<-224 -224 -224 705> 495.5 34<-224 705 705 705>
LayerCount: 2
Fore
SplineSet
120.5 739 m 1
 529.5 739 l 1
 529.5 -258 l 1
 120.5 -258 l 1
 120.5 739 l 1
154.5 -224 m 1
 495.5 -224 l 1
 495.5 705 l 1
 154.5 705 l 1
 154.5 -224 l 1
EndSplineSet
Validated: 524289
EndChar

StartChar: exclam
Encoding: 33 33 2
Width: 650
GlyphClass: 2
Flags: HMW
HStem: -15.3799 135.375
VStem: 253.5 143.001 287.5 78.001 295.5 72
LayerCount: 2
Fore
SplineSet
373.5 738 m 0x90
 373.5 732 372.166992188 694.669921875 369.5 626.002929688 c 0
 367.5 557.3359375 366.5 507.668945312 366.5 477.001953125 c 0
 366.166015625 461.66796875 365.999023438 447.583984375 365.999023438 434.75 c 0
 365.999023438 421.916015625 366.166015625 410.33203125 366.5 399.998046875 c 0
 367.166992188 379.331054688 367.5 361.6640625 367.5 346.997070312 c 0x90
 367.5 332.330078125 367.166992188 322.663085938 366.5 317.99609375 c 0
 365.611328125 311.331054688 365.166992188 302.1484375 365.166992188 290.44921875 c 0
 365.166992188 284.594726562 365.27734375 278.110351562 365.5 270.99609375 c 0xa0
 364.16796875 259.663085938 359.5 250.663085938 351.5 243.99609375 c 0
 344.16796875 237.329101562 335.16796875 233.99609375 324.5 233.99609375 c 2
 321.5 233.99609375 l 2
 310.833984375 234.663085938 302.166992188 238.330078125 295.5 244.997070312 c 0x90
 290.166992188 250.997070312 287.5 259.330078125 287.5 269.997070312 c 0xa0
 287.5 276.6640625 288.83203125 287.997070312 291.5 303.997070312 c 0
 293.5 313.330078125 294.83203125 323.330078125 295.5 333.997070312 c 0
 296.166992188 344.6640625 296.5 367.331054688 296.5 401.998046875 c 0
 296.5 415.998046875 295.83203125 437.331054688 294.5 465.998046875 c 0
 293.166992188 497.331054688 292.5 531.6640625 292.5 568.997070312 c 0
 293.166992188 596.330078125 294.166992188 634.997070312 295.5 684.997070312 c 0
 296.166992188 710.330078125 296.5 726.997070312 296.5 734.997070312 c 0
 297.166992188 750.330078125 301.166992188 761.663085938 308.5 768.99609375 c 0
 315.83203125 776.329101562 325.166015625 779.99609375 336.499023438 779.99609375 c 2
 339.499023438 779.99609375 l 2
 349.499023438 779.99609375 357.499023438 776.99609375 363.499023438 770.99609375 c 0
 370.166015625 764.329101562 373.5 753.333007812 373.5 738 c 0x90
377.499023438 7.9990234375 m 0
 364.83203125 -4.66796875 347.83203125 -12.3349609375 326.499023438 -15.001953125 c 0
 323.83203125 -15.251953125 321.2265625 -15.376953125 318.685546875 -15.376953125 c 0
 300.89453125 -15.376953125 286.166015625 -9.251953125 274.5 2.998046875 c 0
 260.5 16.998046875 253.5 33.998046875 253.5 53.998046875 c 0
 253.5 71.3310546875 260.83203125 86.3310546875 275.5 98.998046875 c 0
 292.166992188 112.998046875 310.833984375 119.998046875 331.5 119.998046875 c 0
 350.16796875 119.998046875 365.5 113.998046875 377.5 101.998046875 c 0
 390.16796875 89.3310546875 396.5 73.6640625 396.5 54.9970703125 c 0xc0
 396.5 36.330078125 390.166015625 20.666015625 377.499023438 7.9990234375 c 0
EndSplineSet
Validated: 524289
EndChar

StartChar: quotedbl
Encoding: 34 34 3
Width: 650
GlyphClass: 2
Flags: HMW
HStem: 444.999 328.002
VStem: 202.5 84 361.502 86.998
LayerCount: 2
Fore
SplineSet
407.499023438 773.000976562 m 0
 417.499023438 773.000976562 426.499023438 770.66796875 434.499023438 766.000976562 c 0
 438.499023438 764.000976562 441.833007812 760.66796875 444.499023438 756.000976562 c 0
 447.166992188 750.66796875 448.499023438 744.66796875 448.499023438 738.000976562 c 2
 448.499023438 696.000976562 l 2
 448.499023438 676.66796875 447.833007812 641.000976562 446.499023438 589.000976562 c 0
 445.166992188 537.000976562 443.166992188 499.333984375 440.499023438 476.000976562 c 0
 439.166992188 466.000976562 434.833984375 458.33203125 427.500976562 452.999023438 c 0
 420.833984375 447.666015625 413.500976562 444.999023438 405.500976562 444.999023438 c 2
 402.500976562 444.999023438 l 2
 391.833984375 445.666015625 381.833984375 449.333007812 372.500976562 456 c 0
 365.833984375 460.666992188 362.500976562 467.333984375 362.500976562 476.000976562 c 0
 363.166992188 477.333984375 363.500976562 479.000976562 363.500976562 481.000976562 c 0
 364.833984375 506.333984375 365.500976562 537.3359375 365.500976562 574.002929688 c 2
 365.500976562 612.000976562 l 2
 364.166992188 665.333984375 362.834960938 709.333984375 361.501953125 744.000976562 c 2
 361.501953125 746.002929688 l 2
 361.501953125 751.3359375 362.833984375 756.000976562 365.500976562 760.000976562 c 0
 368.166992188 764.000976562 371.501953125 766.66796875 375.501953125 768.000976562 c 0
 384.834960938 772.000976562 393.501953125 774.002929688 401.501953125 774.002929688 c 0
 404.168945312 773.3359375 406.166992188 773.000976562 407.499023438 773.000976562 c 0
280.499023438 476.000976562 m 0
 279.166015625 465.333984375 274.833984375 457.666015625 267.500976562 452.999023438 c 0
 259.500976562 447.666015625 251.833984375 444.999023438 244.500976562 444.999023438 c 2
 242.500976562 444.999023438 l 2
 231.833984375 445.666015625 221.833984375 449.333007812 212.500976562 456 c 0
 205.833984375 460.666992188 202.500976562 467.333984375 202.500976562 476.000976562 c 2
 202.500976562 481.000976562 l 2
 204.500976562 507.66796875 205.500976562 540.000976562 205.500976562 578.000976562 c 0
 204.833984375 588.66796875 204.500976562 600.000976562 204.500976562 612.000976562 c 0
 203.166992188 665.333984375 202.166992188 709.333984375 201.500976562 744.000976562 c 2
 201.500976562 747.000976562 l 2
 201.500976562 751.66796875 202.500976562 756.000976562 204.500976562 760.000976562 c 0
 207.166992188 764.000976562 210.500976562 766.66796875 214.500976562 768.000976562 c 0
 223.643554688 771.4296875 233.030273438 773.14453125 242.663085938 773.14453125 c 0
 244.268554688 773.14453125 245.880859375 773.096679688 247.499023438 773.000976562 c 0
 257.499023438 773.000976562 266.499023438 770.66796875 274.499023438 766.000976562 c 0
 277.833007812 764.000976562 280.833007812 760.66796875 283.499023438 756.000976562 c 0
 286.166992188 750.66796875 287.499023438 744.334960938 287.499023438 737.001953125 c 0
 288.166992188 729.001953125 288.499023438 715.668945312 288.499023438 697.001953125 c 0
 288.499023438 678.334960938 287.833007812 642.66796875 286.499023438 590.000976562 c 0
 285.166992188 537.333984375 283.166015625 499.333984375 280.499023438 476.000976562 c 0
EndSplineSet
Validated: 524289
EndChar

StartChar: numbersign
Encoding: 35 35 4
Width: 650
GlyphClass: 2
Flags: HMW
HStem: 200 63.999 454.998 65.002 695.002 20G
LayerCount: 2
Fore
SplineSet
284.502929688 454.998046875 m 1
 245.498046875 263.999023438 l 1
 280.831054688 264.666015625 324.168945312 264.998046875 375.501953125 264.998046875 c 2
 383.501953125 264.998046875 l 1
 395.501953125 324.998046875 407.168945312 388.331054688 418.501953125 454.998046875 c 1
 284.502929688 454.998046875 l 1
241.497070312 200 m 1
 233.497070312 200 l 1
 218.1640625 122.666992188 207.497070312 70.6669921875 201.497070312 44 c 0
 197.497070312 32 189.1640625 22.3330078125 176.497070312 15 c 0
 168.497070312 10.3330078125 160.830078125 7.9990234375 153.497070312 7.9990234375 c 0
 150.1640625 7.33203125 146.831054688 7.6650390625 143.498046875 8.998046875 c 0
 134.165039062 10.998046875 127.165039062 17.666015625 122.498046875 28.9990234375 c 0
 119.831054688 35.666015625 118.497070312 42.3330078125 118.497070312 49 c 0
 118.497070312 55.6669921875 119.498046875 62.6669921875 121.498046875 70 c 0
 126.831054688 86.6669921875 137.1640625 129.666992188 152.497070312 199 c 1
 110.497070312 199 l 2
 95.1640625 199 84.1640625 201.666992188 77.4970703125 207 c 0
 71.4970703125 211.666992188 68.4970703125 218 68.4970703125 226 c 2
 68.4970703125 228 l 2
 69.1640625 236.666992188 72.1640625 243.666992188 77.4970703125 249 c 0
 83.4970703125 255.666992188 93.830078125 259.333984375 108.497070312 260.000976562 c 0
 113.1640625 260.66796875 121.1640625 261.000976562 132.497070312 261.000976562 c 0
 143.830078125 261.000976562 154.830078125 261.333984375 165.497070312 262.000976562 c 1
 203.497070312 454.000976562 l 1
 191.497070312 454.000976562 l 1
 149.497070312 453.000976562 l 1
 146.497070312 453.000976562 l 2
 134.497070312 452.333984375 125.1640625 455.000976562 118.497070312 461.000976562 c 0
 111.830078125 466.333984375 108.497070312 473.333984375 108.497070312 482.000976562 c 2
 108.497070312 485.000976562 l 2
 108.497070312 493.000976562 111.497070312 500.000976562 117.497070312 506.000976562 c 0
 124.1640625 512.66796875 134.830078125 516.334960938 149.497070312 517.001953125 c 0
 162.1640625 517.668945312 181.498046875 518.001953125 207.498046875 518.001953125 c 2
 215.498046875 518.001953125 l 1
 245.498046875 680.001953125 l 2
 250.165039062 694.001953125 256.83203125 703.668945312 265.499023438 709.001953125 c 0
 272.166015625 713.001953125 278.833007812 715.001953125 285.5 715.001953125 c 0
 288.166992188 715.001953125 291.166992188 714.668945312 294.5 714.001953125 c 0
 306.5 711.334960938 315.5 705.66796875 321.5 697.000976562 c 0
 324.833007812 691.66796875 326.5 685.000976562 326.5 677.000976562 c 0
 327.166992188 672.333984375 326.833984375 667.666992188 325.500976562 663 c 2
 296.500976562 520 l 1
 429.500976562 520 l 1
 457.500976562 673 l 2
 462.16796875 687 468.834960938 696.666992188 477.501953125 702 c 0
 483.501953125 706 489.834960938 708 496.501953125 708 c 0
 499.834960938 707.333007812 503.501953125 706.666015625 507.501953125 705.999023438 c 0
 519.501953125 703.33203125 528.501953125 697.999023438 534.501953125 689.999023438 c 0
 537.834960938 685.33203125 539.501953125 679.33203125 539.501953125 671.999023438 c 0
 539.501953125 667.33203125 538.834960938 661.999023438 537.501953125 655.999023438 c 0
 530.168945312 627.999023438 521.168945312 582.999023438 510.501953125 520.999023438 c 1
 522.501953125 520.999023438 l 1
 533.501953125 520.999023438 l 2
 547.501953125 520.999023438 558.834960938 517.33203125 567.501953125 509.999023438 c 0
 576.168945312 502.666015625 580.8359375 495.333007812 581.502929688 488 c 0
 580.8359375 479.333007812 577.502929688 471.666015625 571.502929688 464.999023438 c 0
 565.502929688 458.999023438 555.8359375 455.665039062 542.502929688 454.998046875 c 2
 497.502929688 454.998046875 l 1
 465.502929688 263.999023438 l 1
 518.501953125 263.999023438 l 2
 531.168945312 263.999023438 539.502929688 261.666015625 543.502929688 256.999023438 c 0
 547.502929688 252.33203125 549.8359375 245.33203125 550.502929688 235.999023438 c 0
 550.502929688 225.33203125 548.502929688 217.33203125 544.502929688 211.999023438 c 0
 539.8359375 205.33203125 531.168945312 201.999023438 518.501953125 201.999023438 c 2
 454.501953125 201.999023438 l 1
 440.501953125 121.33203125 430.501953125 67.33203125 424.501953125 39.9990234375 c 0
 419.834960938 28.666015625 411.834960938 19.9990234375 400.501953125 13.9990234375 c 0
 393.168945312 9.9990234375 385.8359375 7.9990234375 378.502929688 7.9990234375 c 0
 375.169921875 7.33203125 371.502929688 7.6650390625 367.502929688 8.998046875 c 0
 357.502929688 11.6650390625 350.169921875 17.998046875 345.502929688 27.998046875 c 0
 342.8359375 33.998046875 341.502929688 39.998046875 341.502929688 45.998046875 c 0
 341.502929688 51.998046875 342.502929688 58.6650390625 344.502929688 65.998046875 c 0
 351.169921875 92.6650390625 360.502929688 137.665039062 372.502929688 200.998046875 c 1
 360.502929688 200.998046875 l 1
 241.497070312 200 l 1
EndSplineSet
Validated: 524289
EndChar

StartChar: dollar
Encoding: 36 36 5
Width: 650
GlyphClass: 2
Flags: HMW
HStem: -18.9971 64.9971 368 63.0029 653 59<359.498 368.5 359.498 368.5>
VStem: 117.501 72.999 297.5 58 297.5 63.002 476.499 73.999
LayerCount: 2
Fore
SplineSet
472 245.50390625 m 0xfa
 469 257.170898438 463.5 269.337890625 455.5 282.004882812 c 0
 447.5 294.671875 435.833007812 306.338867188 420.5 317.005859375 c 0
 405.166992188 327.005859375 387.166992188 336.005859375 366.5 344.005859375 c 2
 355.5 349.005859375 l 1
 355.5 335.005859375 l 1
 354.499023438 187.005859375 l 2
 353.83203125 132.338867188 353.165039062 89.671875 352.498046875 59.0048828125 c 1
 365.499023438 65 l 2
 396.166015625 79 422.166015625 98.337890625 443.499023438 123.004882812 c 0
 465.499023438 147.671875 476.499023438 176.004882812 476.499023438 208.004882812 c 0
 476.499023438 221.337890625 475 233.836914062 472 245.50390625 c 0xfa
218.498046875 469.002929688 m 0
 235.165039062 451.669921875 257.83203125 439.002929688 286.499023438 431.002929688 c 2
 297.5 429.002929688 l 1xf6
 298.166992188 483.002929688 298.499023438 551.002929688 298.499023438 633.002929688 c 2
 298.499023438 646.002929688 l 1
 286.499023438 643.002929688 l 2
 259.166015625 633.669921875 236.833007812 619.336914062 219.5 600.00390625 c 0
 200.166992188 581.336914062 190.5 558.336914062 190.5 531.00390625 c 0
 190.5 507.00390625 199.831054688 486.3359375 218.498046875 469.002929688 c 0
221.5 -11 m 0
 201.5 -5.6669921875 184.501953125 2 170.501953125 12 c 0
 141.834960938 30.6669921875 120.834960938 52.333984375 107.501953125 77.0009765625 c 0
 102.168945312 89.0009765625 99.501953125 99.333984375 99.501953125 108.000976562 c 0
 99.501953125 119.333984375 104.834960938 127.666992188 115.501953125 133 c 0
 122.834960938 136.333007812 128.16796875 138.333007812 131.500976562 139 c 0
 134.833984375 139.666992188 137.500976562 140 139.500976562 140 c 2
 145.500976562 140 l 2
 149.500976562 140 153.66796875 138.166992188 158.000976562 134.5 c 0
 162.333984375 130.833007812 167.166992188 125 172.5 117 c 0
 186.5 95 202.833007812 77.6669921875 221.5 65 c 0
 238.166992188 52.3330078125 259.166015625 46 284.499023438 46 c 2
 286.499023438 46 l 1
 295.5 46 l 1
 296.833007812 164 297.5 266.666992188 297.5 354 c 2
 297.5 363 l 1
 288.833007812 363.666992188 281 364.5 274 365.5 c 2
 256.5 368 l 2
 235.833007812 370.666992188 216.5 376.666992188 198.5 386 c 0
 179.833007812 395.333007812 164.833007812 406.666015625 153.5 419.999023438 c 0
 142.166992188 433.33203125 133.333984375 447.499023438 127.000976562 462.499023438 c 0
 120.66796875 477.499023438 117.500976562 491.999023438 117.500976562 505.999023438 c 0
 117.500976562 528.666015625 121.16796875 550.499023438 128.500976562 571.499023438 c 0
 135.833984375 592.499023438 146.500976562 611.999023438 160.500976562 629.999023438 c 0
 174.500976562 647.999023438 193.16796875 663.666015625 216.500976562 676.999023438 c 0
 238.500976562 690.33203125 263.499023438 699.665039062 291.499023438 704.998046875 c 2
 297.5 705.998046875 l 1xfa
 298.833007812 727.331054688 299.500976562 749.331054688 299.500976562 771.998046875 c 0
 300.16796875 786.665039062 302.66796875 797.83203125 307.000976562 805.499023438 c 0
 311.333984375 813.166015625 318.500976562 816.999023438 328.500976562 816.999023438 c 2
 330.500976562 816.999023438 l 2
 341.16796875 817.666015625 348.834960938 813.999023438 353.501953125 805.999023438 c 0
 358.168945312 798.666015625 360.501953125 788.333007812 360.501953125 775 c 2
 360.501953125 713 l 1xf6
 368.5 712 l 2
 381.833007812 711.333007812 400.16796875 708 423.500976562 702 c 0
 448.833984375 696 467.833984375 690.666992188 480.500976562 686 c 0
 490.500976562 682.666992188 497.833007812 677 502.5 669 c 0
 506.5 662.333007812 508.500976562 655.666015625 508.500976562 648.999023438 c 0
 508.500976562 646.999023438 508.16796875 644.666015625 507.500976562 641.999023438 c 0
 506.833984375 635.999023438 505.166992188 631.666015625 502.5 628.999023438 c 0
 499.166992188 626.33203125 495.666015625 624.83203125 491.999023438 624.499023438 c 0
 488.33203125 624.166015625 484.833007812 623.999023438 481.5 623.999023438 c 0
 468.166992188 623.999023438 453.5 627.666015625 437.5 634.999023438 c 0
 428.833007812 638.999023438 419 642.83203125 408 646.499023438 c 0
 397 650.166015625 383.833007812 652.333007812 368.5 653 c 2
 359.498046875 653 l 1
 355.5 423 l 1xfa
 363.5 421 l 2
 390.833007812 417.666992188 415.166015625 411 436.499023438 401 c 0
 459.83203125 391 478.33203125 379.666992188 491.999023438 367 c 0
 505.666015625 354.333007812 517.166015625 339.833007812 526.499023438 323.5 c 0
 535.83203125 307.166992188 542.165039062 291 545.498046875 275 c 0
 548.831054688 259 550.498046875 242.333007812 550.498046875 225 c 0
 550.498046875 195.666992188 545.331054688 167.833984375 534.998046875 141.500976562 c 0
 524.665039062 115.16796875 510.665039062 92.3349609375 492.998046875 73.001953125 c 0
 475.331054688 53.6689453125 454.498046875 37.001953125 430.498046875 23.001953125 c 0
 409.165039062 9.001953125 385.498046875 -1.6650390625 359.498046875 -8.998046875 c 2
 352.498046875 -11 l 1
 352.498046875 -17.998046875 l 2
 353.165039062 -57.3310546875 353.83203125 -83.998046875 354.499023438 -97.998046875 c 0
 353.166015625 -109.998046875 348.999023438 -119.165039062 341.999023438 -125.498046875 c 0
 334.999023438 -131.831054688 326.499023438 -134.998046875 316.499023438 -134.998046875 c 2
 315.499023438 -134.998046875 l 1
 314.499023438 -134.998046875 l 2
 306.499023438 -134.998046875 300.499023438 -131.998046875 296.499023438 -125.998046875 c 0
 293.166015625 -120.665039062 291.499023438 -112.998046875 291.499023438 -102.998046875 c 2
 291.499023438 -93.998046875 l 2
 292.83203125 -79.3310546875 293.499023438 -57.6640625 293.499023438 -28.9970703125 c 2
 293.499023438 -18.9970703125 l 1
 284.499023438 -18.9970703125 l 1
 280.499023438 -18.9970703125 l 2
 259.83203125 -18.9970703125 240.166992188 -16.3330078125 221.5 -11 c 0
EndSplineSet
Validated: 524289
EndChar

StartChar: percent
Encoding: 37 37 6
Width: 650
GlyphClass: 2
Flags: HMW
HStem: -18.001 57 180.998 54.0323 442 54.999 642.043 52.9575
VStem: 85.4986 53.001 102.002 68.499 261.5 45.998 342.501 49.002 452.499 70.001 512.573 51.9275
LayerCount: 2
Fore
SplineSet
402.500976562 58.9990234375 m 0xf340
 411.168945312 46.9990234375 426.834960938 40.33203125 449.501953125 38.9990234375 c 2
 452.498046875 38.9990234375 l 2xf380
 470.498046875 38.9990234375 484.668945312 45.166015625 495.001953125 57.4990234375 c 0
 505.334960938 69.83203125 511.168945312 85.6650390625 512.500976562 104.998046875 c 2
 512.500976562 105.998046875 l 1
 512.500976562 108.998046875 l 2
 512.548828125 110.474609375 512.572265625 111.9296875 512.572265625 113.362304688 c 0
 512.572265625 131.977539062 508.548828125 146.85546875 500.500976562 157.998046875 c 0
 489.168945312 173.331054688 471.834960938 180.998046875 448.501953125 180.998046875 c 0
 430.501953125 180.998046875 416.501953125 173.998046875 406.501953125 159.998046875 c 0
 397.168945312 145.998046875 392.168945312 128.331054688 391.501953125 106.998046875 c 2
 391.501953125 102.998046875 l 2
 391.450195312 101.561523438 391.424804688 100.1484375 391.424804688 98.7587890625 c 0
 391.424804688 82.0966796875 395.116210938 68.8447265625 402.500976562 58.9990234375 c 0xf340
387.499023438 -0.5009765625 m 0
 372.166015625 11.166015625 360.833007812 25.9990234375 353.499023438 43.9990234375 c 0
 346.166015625 61.9990234375 342.500976562 81.33203125 342.500976562 101.999023438 c 2
 342.500976562 103.999023438 l 2
 342.500976562 142.666015625 352.168945312 174.166015625 371.500976562 198.499023438 c 0
 390.833984375 222.83203125 418.833984375 234.999023438 455.500976562 234.999023438 c 0
 456.500976562 235.01953125 457.497070312 235.030273438 458.485351562 235.030273438 c 0
 489.141601562 235.030273438 514.479492188 225.01953125 534.500976562 204.999023438 c 0
 544.500976562 194.33203125 552.166992188 179.999023438 557.500976562 161.999023438 c 0
 562.166992188 147.999023438 564.500976562 132.33203125 564.500976562 114.999023438 c 0xf340
 564.500976562 110.999023438 564.166992188 104.999023438 563.500976562 96.9990234375 c 0
 561.500976562 58.33203125 550.833007812 29.33203125 531.500976562 9.9990234375 c 0
 512.166992188 -8.66796875 482.833984375 -18.0009765625 443.500976562 -18.0009765625 c 2
 440.500976562 -18.0009765625 l 2
 420.500976562 -18.0009765625 402.833007812 -12.16796875 387.499023438 -0.5009765625 c 0
150.501953125 517.999023438 m 0
 159.834960938 505.999023438 177.168945312 498.999023438 202.500976562 496.999023438 c 2
 203.500976562 496.999023438 l 2
 221.500976562 496.999023438 235.168945312 503.33203125 244.500976562 515.999023438 c 0
 253.833984375 528.666015625 259.166992188 544.999023438 260.500976562 564.999023438 c 0
 261.166992188 566.33203125 261.500976562 567.999023438 261.500976562 569.999023438 c 0
 260.833007812 593.33203125 255.500976562 610.999023438 245.500976562 622.999023438 c 0
 234.833007812 635.666015625 219.833007812 641.999023438 200.500976562 641.999023438 c 0
 199.659179688 642.028320312 198.826171875 642.04296875 198.001953125 642.04296875 c 0
 179.870117188 642.04296875 165.704101562 635.028320312 155.500976562 620.999023438 c 0
 146.166992188 607.666015625 140.500976562 589.999023438 138.500976562 567.999023438 c 2
 138.500976562 562.999023438 l 2xfb
 138.452148438 561.618164062 138.428710938 560.259765625 138.428710938 558.922851562 c 0
 138.428710938 541.545898438 142.454101562 527.904296875 150.501953125 517.999023438 c 0
208.499023438 195 m 2
 353.499023438 472 l 2
 402.166015625 565.333007812 435.166015625 632.333007812 452.499023438 673 c 0
 460.499023438 685 471.833007812 691 486.499023438 691 c 0
 493.166015625 691 499.833007812 689.333007812 506.500976562 686 c 0
 517.166992188 680.666992188 522.500976562 673.666992188 522.500976562 665 c 0
 522.500976562 657.666992188 519.168945312 648.666992188 512.501953125 638 c 0
 487.168945312 597.333007812 430.833984375 493.666015625 343.500976562 326.999023438 c 0
 257.500976562 160.33203125 199.833984375 47.33203125 170.500976562 -12.0009765625 c 0
 159.168945312 -32.0009765625 147.500976562 -42.0009765625 135.500976562 -42.0009765625 c 0
 131.500976562 -42.0009765625 126.66796875 -40.66796875 121.000976562 -38.0009765625 c 0
 115.333984375 -35.333984375 110.833984375 -31.833984375 107.500976562 -27.5009765625 c 0
 104.16796875 -23.16796875 102.334960938 -17.5009765625 102.001953125 -10.5009765625 c 0xf780
 101.982421875 -10.08984375 101.97265625 -9.6728515625 101.97265625 -9.2509765625 c 0
 101.97265625 -2.49609375 104.482421875 5.5869140625 109.501953125 14.9990234375 c 0
 123.501953125 43.666015625 156.499023438 103.666992188 208.499023438 195 c 2
134.998046875 459.5 m 0
 118.665039062 471.166992188 106.33203125 486 97.9990234375 504 c 0
 89.666015625 522 85.4990234375 541.333007812 85.4990234375 562 c 2
 85.4990234375 564 l 2xfb
 85.4990234375 602.666992188 96.166015625 634.166992188 117.499023438 658.5 c 0
 138.833007812 682.833007812 168.833007812 695 207.499023438 695 c 0
 208.416015625 695.020507812 209.329101562 695.03125 210.235351562 695.03125 c 0
 238.348632812 695.03125 261.770507812 685.020507812 280.498046875 665 c 0
 289.831054688 654.333007812 296.831054688 640 301.498046875 622 c 0
 305.498046875 608 307.498046875 591.666992188 307.498046875 573 c 0
 307.498046875 526.333007812 297.498046875 492.333007812 277.498046875 471 c 0
 259.498046875 451.666992188 231.498046875 442 193.498046875 442 c 2
 191.498046875 442 l 2
 170.165039062 442 151.331054688 447.833007812 134.998046875 459.5 c 0
EndSplineSet
Validated: 524289
EndChar

StartChar: ampersand
Encoding: 38 38 7
Width: 650
GlyphClass: 2
Flags: HMW
HStem: -32 74.001 655.001 59.1001
VStem: 76.4986 80.0029 162.499 76.002 397.501 63.1093
LayerCount: 2
Fore
SplineSet
559.49609375 11 m 2
 559.49609375 3 l 2
 557.49609375 -13 552.828125 -23 545.49609375 -27 c 0
 541.49609375 -29.6669921875 536.828125 -31 531.49609375 -31 c 0
 526.828125 -31 521.162109375 -29.3330078125 514.495117188 -26 c 0
 501.162109375 -19.3330078125 489.495117188 -7.3330078125 479.495117188 10 c 0
 477.495117188 13.3330078125 473.495117188 23 467.495117188 39 c 0
 461.495117188 55 456.495117188 67 452.495117188 75 c 2
 445.495117188 90 l 1
 424.828125 61.3330078125 412.828125 45 409.495117188 41 c 0
 406.162109375 37.6669921875 400.828125 32 393.49609375 24 c 0
 386.163085938 16 379.830078125 10 374.49609375 6 c 0
 369.1640625 2.6669921875 362.1640625 -2 353.49609375 -8 c 0
 345.49609375 -14 337.49609375 -18.3330078125 329.49609375 -21 c 0
 321.49609375 -23.6669921875 312.1640625 -26 301.49609375 -28 c 0
 290.1640625 -30.6669921875 278.831054688 -32 267.498046875 -32 c 0
 232.1640625 -32 199.83203125 -23 170.499023438 -5 c 0
 141.166015625 13 118.166015625 37 101.498046875 67 c 0
 84.83203125 97.6669921875 76.498046875 130.333984375 76.498046875 165.000976562 c 0
 76.498046875 219.000976562 86.498046875 265.333984375 106.498046875 304.000976562 c 0
 130.499023438 352.000976562 170.499023438 388.333984375 226.499023438 413.000976562 c 2
 236.499023438 418.000976562 l 1
 226.499023438 434.000976562 217.166015625 449.000976562 208.499023438 463.000976562 c 0
 199.83203125 476.333984375 193.83203125 486.000976562 190.499023438 492.000976562 c 0
 187.166015625 498.000976562 183.166015625 505.333984375 178.499023438 514.000976562 c 0
 173.83203125 522.66796875 170.83203125 530.000976562 169.499023438 536.000976562 c 0
 164.83203125 554.000976562 162.499023438 571.66796875 162.499023438 589.000976562 c 0
 162.499023438 600.333984375 164.166015625 611.333984375 167.499023438 622.000976562 c 0
 170.166015625 632.66796875 175.166015625 643.66796875 182.499023438 655.000976562 c 0
 189.83203125 666.333984375 198.83203125 676.333984375 209.499023438 685.000976562 c 0
 220.166015625 693.66796875 234.499023438 700.66796875 252.499023438 706.000976562 c 0
 269.83203125 711.333984375 289.83203125 714.000976562 312.499023438 714.000976562 c 0
 314.366210938 714.067382812 316.2265625 714.100585938 318.080078125 714.100585938 c 0
 334.759765625 714.100585938 350.8984375 711.400390625 366.499023438 706.000976562 c 0
 384.499023438 700.000976562 400.499023438 691.66796875 414.499023438 681.000976562 c 0
 428.499023438 669.66796875 439.83203125 655.334960938 448.499023438 638.001953125 c 0
 456.499023438 620.668945312 460.499023438 601.3359375 460.499023438 580.002929688 c 0
 460.573242188 577.631835938 460.609375 575.28515625 460.609375 572.962890625 c 0
 460.609375 554.396484375 458.240234375 537.41015625 453.5 522.00390625 c 0
 448.166992188 504.00390625 441.5 489.336914062 433.5 478.00390625 c 0
 425.5 466.670898438 415.5 455.670898438 403.5 445.00390625 c 0
 391.5 434.336914062 380.5 425.669921875 370.5 419.002929688 c 0
 359.83203125 412.3359375 347.5 405.668945312 333.5 399.001953125 c 2
 324.5 395.001953125 l 1
 329.5 386.001953125 l 2
 342.166992188 364.668945312 362.833984375 333.668945312 391.5 293.001953125 c 0
 420.16796875 252.334960938 438.5 225.66796875 446.5 213.000976562 c 2
 455.5 198.000976562 l 1
 465.5 217.333984375 473.16796875 233.333984375 478.5 246.000976562 c 0
 484.5 258.66796875 489.16796875 268.66796875 492.5 276.000976562 c 0
 495.833984375 283.333984375 498.5 288.666992188 500.5 292 c 0
 511.16796875 308 520.834960938 317.666992188 529.501953125 321 c 0
 532.16796875 321.666992188 535.16796875 322 538.501953125 322 c 0
 544.501953125 322 550.834960938 320.333007812 557.501953125 317 c 0
 565.501953125 313.666992188 570.501953125 306.333984375 572.501953125 295.000976562 c 0
 573.16796875 291.66796875 573.501953125 288.66796875 573.501953125 286.000976562 c 0
 573.501953125 276.000976562 570.501953125 264.66796875 564.501953125 252.000976562 c 0
 561.834960938 246.66796875 552.16796875 233.66796875 535.5 213.000976562 c 0
 518.833984375 192.333984375 504.833984375 173.333984375 493.5 156.000976562 c 2
 490.5 151.000976562 l 1
 501.16796875 133.000976562 520.5 99.333984375 548.5 50.0009765625 c 0
 555.833984375 38.0009765625 559.49609375 25 559.49609375 11 c 2
238.5 572.000976562 m 0
 238.5 554.000976562 243.16796875 534.333984375 252.5 513.000976562 c 0
 262.5 492.333984375 274.16796875 474.000976562 287.5 458.000976562 c 2
 291.5 453.000976562 l 1
 297.5 455.000976562 l 2
 312.833984375 459.66796875 325.833984375 464.66796875 336.5 470.000976562 c 0
 347.16796875 475.333984375 357.5 482.333984375 367.5 491.000976562 c 0
 377.5 499.66796875 384.833984375 510.66796875 389.5 524.000976562 c 0
 394.833984375 536.66796875 397.5 551.66796875 397.5 569.000976562 c 0
 397.5 597.000976562 388.833984375 618.333984375 371.5 633.000976562 c 0
 354.16796875 647.66796875 333.834960938 655.000976562 310.501953125 655.000976562 c 0
 283.834960938 655.000976562 264.501953125 646.000976562 252.501953125 628.000976562 c 0
 243.16796875 614.000976562 238.5 595.333984375 238.5 572.000976562 c 0
156.501953125 174.000976562 m 0
 156.501953125 136.66796875 166.834960938 105.66796875 187.501953125 81.0009765625 c 0
 208.16796875 55.0009765625 235.16796875 42.0009765625 268.501953125 42.0009765625 c 0
 285.834960938 42.66796875 303.834960938 46.0009765625 322.501953125 52.0009765625 c 0
 329.16796875 54.0009765625 336.16796875 57.66796875 343.501953125 63.0009765625 c 0
 351.501953125 67.66796875 357.501953125 71.66796875 361.501953125 75.0009765625 c 0
 365.501953125 78.333984375 370.501953125 83.333984375 376.501953125 90.0009765625 c 0
 382.501953125 96.66796875 386.501953125 101.334960938 388.501953125 104.001953125 c 0
 391.16796875 106.001953125 394.8359375 110.668945312 399.502929688 118.001953125 c 0
 404.169921875 125.334960938 408.169921875 131.001953125 411.502929688 135.001953125 c 1
 397.502929688 165.001953125 386.502929688 187.334960938 378.502929688 202.001953125 c 0
 369.8359375 218.001953125 353.502929688 243.334960938 329.502929688 278.001953125 c 0
 305.502929688 312.668945312 286.8359375 340.668945312 273.502929688 362.001953125 c 1
 265.502929688 359.001953125 l 2
 244.8359375 349.001953125 227.16796875 337.334960938 212.501953125 324.001953125 c 0
 197.16796875 310.668945312 185.501953125 295.668945312 177.501953125 279.001953125 c 0
 170.16796875 262.334960938 164.8359375 245.66796875 161.502929688 229.000976562 c 0
 158.169921875 212.333984375 156.501953125 194.000976562 156.501953125 174.000976562 c 0
EndSplineSet
Validated: 524289
EndChar

StartChar: quotesingle
Encoding: 39 39 8
Width: 650
GlyphClass: 2
Flags: HMW
HStem: 456 307.126
VStem: 282.5 84
LayerCount: 2
Fore
SplineSet
360.499023438 487 m 0
 359.166015625 476.333007812 354.833984375 468.333007812 347.500976562 463 c 0
 340.166992188 458.333007812 332.500976562 456 324.500976562 456 c 2
 322.500976562 456 l 2
 311.166992188 456.666992188 301.166992188 460.333984375 292.500976562 467.000976562 c 0
 285.833984375 472.333984375 282.500976562 479.333984375 282.500976562 488.000976562 c 2
 282.500976562 491.000976562 l 1
 282.500976562 492.000976562 l 2
 284.346679688 519.694335938 285.270507812 551.71875 285.270507812 588.075195312 c 0
 285.270507812 630.48828125 284.013671875 678.796875 281.500976562 733.000976562 c 2
 281.500976562 735.000976562 l 2
 281.500976562 740.333984375 282.500976562 745.000976562 284.500976562 749.000976562 c 0
 287.166992188 753.000976562 290.500976562 755.66796875 294.500976562 757.000976562 c 0
 303.833984375 761.083984375 313.420898438 763.125976562 323.264648438 763.125976562 c 0
 324.670898438 763.125976562 326.083007812 763.083984375 327.499023438 763.000976562 c 0
 337.499023438 762.333984375 346.499023438 759.666992188 354.499023438 755 c 0
 358.499023438 753 361.833007812 749.666992188 364.499023438 745 c 0
 366.499023438 740.333007812 367.499023438 734 367.499023438 726 c 0
 368.166992188 718 368.499023438 705 368.499023438 687 c 0
 368.499023438 669 367.833007812 637 366.499023438 591 c 0
 365.166992188 545 363.166015625 510.333007812 360.499023438 487 c 0
EndSplineSet
Validated: 524289
EndChar

StartChar: parenleft
Encoding: 40 40 9
Width: 650
GlyphClass: 2
Flags: HMW
HStem: -122 64.999 743 61<424.239 437.572>
VStem: 185.428 78.1449
LayerCount: 2
Fore
SplineSet
463.572265625 -93 m 0
 463.572265625 -101 460.239257812 -107.666992188 453.572265625 -113 c 0
 447.572265625 -119 440.905273438 -122 433.572265625 -122 c 0
 390.905273438 -121.333007812 352.23828125 -105.666015625 317.571289062 -74.9990234375 c 0
 282.904296875 -44.33203125 254.571289062 -1.33203125 232.571289062 54.0009765625 c 0
 210.571289062 110.000976562 195.904296875 174.333984375 188.571289062 247.000976562 c 0
 186.571289062 267.000976562 185.571289062 292.000976562 185.571289062 322.000976562 c 0
 185.475585938 326.288085938 185.427734375 330.731445312 185.427734375 335.331054688 c 0
 185.427734375 362.921875 187.142578125 396.145507812 190.571289062 435.000976562 c 0
 197.904296875 512.333984375 210.904296875 575.666992188 229.571289062 625 c 0
 237.571289062 647 248.571289062 668.333007812 262.571289062 689 c 0
 276.571289062 709.666992188 292.571289062 728.666992188 310.571289062 746 c 0
 327.904296875 763.333007812 347.571289062 777.333007812 369.571289062 788 c 0
 392.23828125 798.666992188 413.905273438 804 434.572265625 804 c 0
 444.572265625 804 451.905273438 802 456.572265625 798 c 0
 461.905273438 793.333007812 464.572265625 785.333007812 464.572265625 774 c 0
 464.572265625 762.666992188 461.905273438 754.666992188 456.572265625 750 c 0
 450.572265625 745.333007812 442.572265625 743 432.572265625 743 c 0
 413.239257812 743 395.239257812 737.333007812 378.572265625 726 c 0
 362.572265625 715.333007812 348.572265625 700.666015625 336.572265625 681.999023438 c 0
 313.239257812 647.33203125 295.90625 604.999023438 284.573242188 554.999023438 c 0
 275.90625 520.33203125 269.90625 472.33203125 266.573242188 410.999023438 c 0
 264.573242188 379.666015625 263.573242188 351.666015625 263.573242188 326.999023438 c 0
 264.240234375 301.666015625 265.240234375 279.666015625 266.573242188 260.999023438 c 0
 269.90625 220.33203125 277.239257812 180.33203125 288.572265625 140.999023438 c 0
 299.239257812 101.666015625 312.239257812 67.9990234375 327.572265625 39.9990234375 c 0
 342.239257812 11.33203125 358.90625 -12.0009765625 377.573242188 -30.0009765625 c 0
 396.90625 -48.0009765625 415.573242188 -57.0009765625 433.573242188 -57.0009765625 c 0
 443.573242188 -57.0009765625 451.240234375 -59.333984375 456.573242188 -64.0009765625 c 0
 461.240234375 -68.66796875 463.572265625 -78.3330078125 463.572265625 -93 c 0
EndSplineSet
Validated: 524289
EndChar

StartChar: parenright
Encoding: 41 41 10
Width: 650
GlyphClass: 2
Flags: HMW
HStem: -122 65.001 743.001 61
VStem: 386.625 78
LayerCount: 2
Fore
SplineSet
461.626953125 247 m 0
 454.293945312 174.333007812 439.626953125 110 417.626953125 54 c 0
 395.626953125 -1.3330078125 367.293945312 -44.3330078125 332.626953125 -75 c 0
 297.293945312 -106.333007812 258.626953125 -122 216.626953125 -122 c 0
 209.959960938 -121.333007812 203.29296875 -118.333007812 196.625976562 -113 c 0
 189.29296875 -107.666992188 185.625976562 -101 185.625976562 -93 c 0
 185.625976562 -78.3330078125 188.29296875 -68.666015625 193.625976562 -63.9990234375 c 0
 198.29296875 -59.33203125 205.959960938 -56.9990234375 216.626953125 -56.9990234375 c 0
 234.626953125 -56.9990234375 252.959960938 -47.9990234375 271.626953125 -29.9990234375 c 0
 290.293945312 -11.33203125 307.293945312 12.0009765625 322.626953125 40.0009765625 c 0
 337.293945312 68.0009765625 350.293945312 101.66796875 361.626953125 141.000976562 c 0
 372.959960938 180.333984375 380.29296875 220.333984375 383.625976562 261.000976562 c 0
 385.625976562 281.000976562 386.625976562 303.333984375 386.625976562 328.000976562 c 0
 386.625976562 352.66796875 385.625976562 380.334960938 383.625976562 411.001953125 c 0
 380.29296875 471.668945312 374.29296875 519.668945312 365.625976562 555.001953125 c 0
 353.625976562 605.001953125 336.29296875 647.668945312 313.625976562 683.001953125 c 0
 302.29296875 700.334960938 288.29296875 714.66796875 271.625976562 726.000976562 c 0
 254.958984375 737.333984375 237.291992188 743.000976562 218.625 743.000976562 c 0
 208.625 743.000976562 200.291992188 745.333984375 193.625 750.000976562 c 0
 188.291992188 754.000976562 185.625 761.66796875 185.625 773.000976562 c 0
 184.958007812 780.333984375 185.625 786.000976562 187.625 790.000976562 c 0
 189.625 794.66796875 191.958007812 797.66796875 194.625 799.000976562 c 0
 200.625 802.333984375 207.625 804.000976562 215.625 804.000976562 c 0
 237.625 804.000976562 259.291992188 798.66796875 280.625 788.000976562 c 0
 301.958007812 777.333984375 321.625 763.333984375 339.625 746.000976562 c 0
 357.625 728.66796875 373.625 709.66796875 387.625 689.000976562 c 0
 401.625 667.66796875 412.625 646.334960938 420.625 625.001953125 c 0
 439.291992188 575.668945312 451.958984375 512.3359375 458.625976562 435.002929688 c 0
 462.625976562 389.669921875 464.625976562 352.002929688 464.625976562 322.002929688 c 0
 464.625976562 292.002929688 463.626953125 267 461.626953125 247 c 0
EndSplineSet
Validated: 524289
EndChar

StartChar: asterisk
Encoding: 42 42 11
Width: 650
GlyphClass: 2
Flags: HMW
HStem: 303 84<118.835 121.503 118.503 138.502> 315.998 56.999 315.998 69.999
VStem: 391.503 71.9951
LayerCount: 2
Fore
SplineSet
453.502929688 132 m 0x50
 447.502929688 128 439.834960938 126.333007812 430.501953125 127 c 0
 421.834960938 127 413.834960938 128.666992188 406.501953125 132 c 0
 399.168945312 135.333007812 394.168945312 140.666015625 391.501953125 147.999023438 c 0
 382.834960938 175.999023438 365.16796875 215.33203125 338.500976562 265.999023438 c 2
 329.500976562 282.999023438 l 1
 321.500976562 265.999023438 l 2
 289.500976562 203.33203125 269.833984375 161.999023438 262.500976562 141.999023438 c 0
 260.500976562 136.666015625 257.16796875 132.333007812 252.500976562 129 c 0
 247.833984375 126.333007812 242.500976562 124.666015625 236.500976562 123.999023438 c 2
 231.500976562 123.999023438 l 2
 219.500976562 123.999023438 209.500976562 126.33203125 201.500976562 130.999023438 c 0
 197.500976562 132.999023438 193.833984375 136.666015625 190.500976562 141.999023438 c 0
 187.16796875 147.999023438 184.834960938 154.666015625 183.501953125 161.999023438 c 2
 183.501953125 164.999023438 l 2
 183.501953125 171.666015625 185.168945312 178.333007812 188.501953125 185 c 2
 264.501953125 309 l 1
 197.834960938 305 151.501953125 303 125.501953125 303 c 0
 112.168945312 303 101.8359375 307.333007812 94.5029296875 316 c 0
 87.169921875 324 83.5029296875 333 83.5029296875 343 c 2
 83.5029296875 346 l 2
 83.5029296875 356 86.169921875 365.333007812 91.5029296875 374 c 0
 94.169921875 378.666992188 97.8369140625 382 102.50390625 384 c 0
 107.836914062 386 113.169921875 387 118.502929688 387 c 2
 121.502929688 387 l 2x90
 152.169921875 384.333007812 203.502929688 380.666015625 275.502929688 375.999023438 c 1
 266.502929688 391.999023438 l 2
 237.8359375 440.666015625 214.168945312 477.999023438 195.501953125 503.999023438 c 0
 188.834960938 515.33203125 185.501953125 526.33203125 185.501953125 536.999023438 c 2
 185.501953125 542.999023438 l 2
 186.834960938 553.666015625 191.16796875 560.666015625 198.500976562 563.999023438 c 1
 198.500976562 564.999023438 l 1
 203.833984375 568.33203125 210.166992188 569.999023438 217.5 569.999023438 c 0
 224.833007812 570.666015625 232.5 568.666015625 240.5 563.999023438 c 0
 248.5 559.33203125 254.5 552.665039062 258.5 543.998046875 c 0
 265.833007812 527.331054688 288.166015625 483.6640625 325.499023438 412.997070312 c 1
 333.499023438 427.997070312 l 2
 360.166015625 473.997070312 380.499023438 512.330078125 394.499023438 542.997070312 c 0
 398.499023438 550.997070312 404.166015625 557.330078125 411.499023438 561.997070312 c 0
 418.431640625 566.50390625 425.184570312 568.756835938 431.7578125 568.756835938 c 0
 437.825195312 568.756835938 443.739257812 566.836914062 449.499023438 562.997070312 c 0
 454.166015625 560.330078125 458.166015625 556.330078125 461.499023438 550.997070312 c 0
 464.83203125 545.6640625 466.499023438 538.6640625 466.499023438 529.997070312 c 0
 466.499023438 521.330078125 463.83203125 512.997070312 458.499023438 504.997070312 c 0
 437.166015625 473.6640625 413.499023438 434.6640625 387.499023438 387.997070312 c 2
 379.499023438 372.997070312 l 1
 396.499023438 372.997070312 l 2x50
 455.83203125 372.997070312 498.165039062 376.6640625 523.498046875 383.997070312 c 0
 526.831054688 385.330078125 530.1640625 385.997070312 533.497070312 385.997070312 c 0
 540.830078125 385.997070312 547.163085938 383.6640625 552.49609375 378.997070312 c 0
 561.163085938 370.997070312 565.830078125 362.6640625 566.497070312 353.997070312 c 0
 566.497070312 348.6640625 565.830078125 343.331054688 564.497070312 337.998046875 c 0
 561.1640625 325.331054688 555.831054688 316.998046875 548.498046875 312.998046875 c 0
 545.831054688 311.665039062 543.1640625 310.998046875 540.497070312 310.998046875 c 0
 537.1640625 310.331054688 534.497070312 310.331054688 532.497070312 310.998046875 c 0
 515.1640625 314.331054688 484.497070312 315.998046875 440.497070312 315.998046875 c 0x30
 433.831054688 316.33203125 425.498046875 316.499023438 415.498046875 316.499023438 c 0
 405.498046875 316.499023438 393.831054688 316.33203125 380.498046875 315.998046875 c 1
 456.498046875 185.998046875 l 2
 461.831054688 174.665039062 464.498046875 164.665039062 464.498046875 155.998046875 c 0
 463.831054688 154.665039062 463.498046875 152.998046875 463.498046875 150.998046875 c 0
 462.831054688 141.665039062 459.502929688 135.333007812 453.502929688 132 c 0x50
EndSplineSet
Validated: 524289
EndChar

StartChar: plus
Encoding: 43 43 12
Width: 650
GlyphClass: 2
Flags: HMW
HStem: 367.001 63.999
VStem: 292.497 62.0029
LayerCount: 2
Fore
SplineSet
182.5 366 m 2
 168.5 366 158.5 369.333007812 152.5 376 c 0
 145.83203125 382 142.5 389.666992188 142.5 399 c 2
 142.5 402 l 2
 143.166992188 410.666992188 146.166992188 418 151.5 424 c 0
 157.5 430 166.5 433 178.5 433 c 2
 181.5 433 l 2
 228.83203125 431.666992188 262.830078125 431 283.49609375 431 c 2
 292.49609375 431 l 1
 292.49609375 441 l 2
 292.49609375 474.333007812 291.83203125 510.333007812 290.5 549 c 2
 290.5 553 l 2
 290.5 563.666992188 293.5 571.333984375 299.5 576.000976562 c 0
 304.83203125 580.000976562 312.83203125 582.000976562 323.5 582.000976562 c 2
 327.5 582.000976562 l 2
 336.83203125 582.000976562 344.5 580.000976562 350.5 576.000976562 c 0
 355.166992188 572.66796875 357.5 565.66796875 357.5 555.000976562 c 2
 357.5 550.000976562 l 2
 355.5 511.333984375 354.5 474.333984375 354.5 439.000976562 c 2
 354.5 430.000976562 l 1
 474.5 430.000976562 l 2
 487.166992188 430.000976562 495.5 427.66796875 499.5 423.000976562 c 0
 504.166992188 417.66796875 506.833984375 410.666992188 507.5 402 c 0
 506.833984375 396.666992188 506.166992188 392.000976562 505.5 388.000976562 c 0
 504.83203125 384.000976562 503.166015625 380 500.499023438 376 c 0
 497.166015625 370.666992188 490.166015625 368.000976562 479.499023438 368.000976562 c 2
 475.499023438 368.000976562 l 2
 464.166015625 369.333984375 448.166015625 370.000976562 427.499023438 370.000976562 c 0
 407.499023438 370.000976562 382.83203125 369.66796875 353.499023438 369.000976562 c 1
 353.499023438 359.000976562 l 1
 353.499023438 295.000976562 l 2
 354.166015625 270.333984375 354.5 255.333984375 354.5 250.000976562 c 0
 353.83203125 238.000976562 351.1640625 229.66796875 346.498046875 225.000976562 c 0
 341.831054688 220.333984375 335.1640625 217.666992188 326.49609375 217 c 0
 315.830078125 217.666992188 307.830078125 220 302.49609375 224 c 0
 295.830078125 228.666992188 292.49609375 237.333984375 292.49609375 250.000976562 c 2
 292.49609375 367.000976562 l 1
 283.49609375 367.000976562 l 1
 182.5 366 l 2
EndSplineSet
Validated: 524289
EndChar

StartChar: comma
Encoding: 44 44 13
Width: 650
GlyphClass: 2
Flags: HMW
VStem: 232.501 185.998
LayerCount: 2
Fore
SplineSet
268.500976562 -207 m 0
 256.500976562 -207 246.833984375 -203.333007812 239.500976562 -196 c 0
 235.500976562 -191.333007812 233.16796875 -185.666015625 232.500976562 -178.999023438 c 0
 231.833984375 -177.666015625 231.500976562 -176.666015625 231.500976562 -175.999023438 c 0
 232.16796875 -171.999023438 234.500976562 -165.999023438 238.500976562 -157.999023438 c 0
 252.500976562 -137.999023438 271.833984375 -93.666015625 296.500976562 -24.9990234375 c 0
 321.833984375 43.66796875 337.166992188 91.66796875 342.5 119.000976562 c 0
 343.833007812 125.66796875 347.166015625 131.000976562 352.499023438 135.000976562 c 0
 358.499023438 139.000976562 364.499023438 141.000976562 370.499023438 141.000976562 c 2
 372.499023438 141.000976562 l 2
 379.166015625 141.000976562 385.499023438 140.333984375 391.499023438 139.000976562 c 0
 400.166015625 136.333984375 407.166015625 131.333984375 412.499023438 124.000976562 c 0
 416.499023438 119.333984375 418.499023438 113.333984375 418.499023438 106.000976562 c 0
 418.499023438 104.66796875 418.166015625 102.000976562 417.499023438 98.0009765625 c 0
 410.83203125 65.333984375 396.499023438 15.333984375 374.499023438 -51.9990234375 c 0
 362.499023438 -89.33203125 352.499023438 -117.665039062 344.499023438 -136.998046875 c 0
 335.83203125 -155.665039062 329.165039062 -168.33203125 324.498046875 -174.999023438 c 0
 315.165039062 -187.666015625 303.165039062 -196.666015625 288.498046875 -201.999023438 c 0
 280.498046875 -205.33203125 273.833984375 -207 268.500976562 -207 c 0
EndSplineSet
Validated: 524289
EndChar

StartChar: hyphen
Encoding: 45 45 14
Width: 650
GlyphClass: 2
Flags: HMW
HStem: 252 68<213.499 225.166> 259 61
VStem: 180.499 289.002
LayerCount: 2
Fore
SplineSet
180.500976562 290 m 2x60
 180.500976562 301.333007812 183.500976562 309.333007812 189.500976562 314 c 0
 194.16796875 318 201.500976562 320 211.500976562 320 c 0
 249.500976562 320 294.833984375 320.333007812 347.500976562 321 c 0
 400.16796875 322.333007812 430.16796875 323 437.500976562 323 c 0
 450.16796875 323 458.500976562 320.666992188 462.500976562 316 c 0
 466.500976562 310.666992188 468.833984375 303.666992188 469.500976562 295 c 0
 469.500976562 284.333007812 467.500976562 276.333007812 463.500976562 271 c 0
 458.833984375 264.333007812 450.166992188 261 437.5 261 c 0
 428.833007812 261 395.166015625 259.666992188 336.499023438 257 c 0
 277.83203125 253.666992188 236.83203125 252 213.499023438 252 c 0xa0
 202.83203125 252.666992188 194.83203125 255 189.499023438 259 c 0
 183.499023438 264.333007812 180.499023438 273.333007812 180.499023438 286 c 2
 180.500976562 290 l 2x60
EndSplineSet
Validated: 524289
EndChar

StartChar: period
Encoding: 46 46 15
Width: 650
GlyphClass: 2
Flags: HMW
HStem: -4 134.053
VStem: 253.5 143.001
LayerCount: 2
Fore
SplineSet
326.499023438 -4 m 2
 317.499023438 -4 l 2
 316.584960938 -4.03515625 315.681640625 -4.052734375 314.786132812 -4.052734375 c 0
 298.665039062 -4.052734375 285.236328125 1.6318359375 274.499023438 13 c 0
 260.499023438 27.6669921875 253.499023438 44.6669921875 253.499023438 64 c 0
 253.499023438 81.3330078125 260.833007812 96.3330078125 275.499023438 109 c 0
 292.166992188 123 310.833984375 130 331.500976562 130 c 0
 332.483398438 130.03515625 333.456054688 130.052734375 334.420898438 130.052734375 c 0
 351.772460938 130.052734375 366.131835938 124.368164062 377.500976562 113 c 0
 390.166992188 100.333007812 396.500976562 84.666015625 396.500976562 65.9990234375 c 0
 396.500976562 47.33203125 390.166992188 31.6650390625 377.500976562 18.998046875 c 0
 365.500976562 6.3310546875 348.499023438 -1.3330078125 326.499023438 -4 c 2
EndSplineSet
Validated: 524289
EndChar

StartChar: slash
Encoding: 47 47 16
Width: 650
GlyphClass: 2
Flags: W
LayerCount: 2
Fore
SplineSet
85 -9 m 0
 85 5 88.6669921875 17.6669921875 96 29 c 0
 193.333007812 189 276.666015625 331.333007812 345.999023438 456 c 0
 389.999023438 532.666992188 436.33203125 619.666992188 484.999023438 717 c 0
 489.666015625 725.666992188 495.666015625 732.333984375 502.999023438 737.000976562 c 0
 510.33203125 741.66796875 517.33203125 744.000976562 523.999023438 744.000976562 c 0
 531.33203125 744.000976562 538.999023438 742.333984375 546.999023438 739.000976562 c 0
 555.666015625 733.66796875 561.333007812 726.334960938 564 717.001953125 c 0
 564.666992188 715.001953125 565 712.334960938 565 709.001953125 c 0
 565 704.334960938 562.666992188 695.001953125 558 681.001953125 c 0
 540.666992188 646.334960938 492 562.66796875 412 430.000976562 c 0
 332 297.333984375 283.333007812 214.666992188 266 182 c 0
 258 166.666992188 240.666992188 131.666992188 214 77 c 0
 190 28.3330078125 175 -1.333984375 169 -12.0009765625 c 0
 159.666992188 -28.66796875 147.666992188 -40.3349609375 133 -47.001953125 c 0
 126.333007812 -50.3349609375 120.333007812 -52.001953125 115 -52.001953125 c 0
 109 -52.001953125 103.666992188 -50.3349609375 99 -47.001953125 c 0
 91.6669921875 -43.001953125 87.333984375 -33.3349609375 86.0009765625 -18.001953125 c 0
 85.333984375 -14.6689453125 85 -11.6669921875 85 -9 c 0
EndSplineSet
Validated: 524289
EndChar

StartChar: zero
Encoding: 48 48 17
Width: 650
GlyphClass: 2
Flags: HMW
HStem: -14.998 65.001 646.003 61.999
VStem: 109.668 79 465.669 74.998
LayerCount: 2
Fore
SplineSet
110.6640625 391 m 0
 111.33203125 418.333007812 112.998046875 441.83203125 115.666015625 461.499023438 c 0
 118.33203125 481.166015625 122 502.333007812 126.666015625 525 c 0
 131.333007812 547.666992188 136.666015625 567.666992188 142.666015625 585 c 0
 158 625.666992188 184 656.333984375 220.666015625 677.000976562 c 0
 254 697.66796875 294.666015625 708.000976562 342.666015625 708.000976562 c 0
 366 708.000976562 388 703.66796875 408.666015625 695.000976562 c 0
 430.666015625 686.333984375 450.666015625 673.500976562 468.666015625 656.500976562 c 0
 486.666015625 639.500976562 501.666015625 617.000976562 513.666015625 589.000976562 c 0
 525.666015625 561.000976562 533.333007812 529.000976562 536.666015625 493.000976562 c 0
 539.333007812 453.000976562 540.666015625 409.333984375 540.666015625 362.000976562 c 0
 540.666015625 326.000976562 539.5 288.16796875 537.166015625 248.500976562 c 0
 534.833007812 208.833984375 530.666015625 178.000976562 524.666015625 156.000976562 c 0
 513.333007812 114.000976562 499.333007812 80.333984375 482.666015625 55.0009765625 c 0
 474.666015625 43.0009765625 465.666015625 33.0009765625 455.666015625 25.0009765625 c 0
 445.666015625 17.0009765625 435.333007812 10.333984375 424.666015625 5.0009765625 c 0
 415.333007812 -0.33203125 404 -4.4990234375 390.66796875 -7.4990234375 c 0
 377.333984375 -10.4990234375 364.333984375 -12.4990234375 351.66796875 -13.4990234375 c 0
 339 -14.4990234375 323.66796875 -14.9990234375 305.66796875 -14.9990234375 c 0
 278.333984375 -14.33203125 253.333984375 -8.6650390625 230.66796875 2.001953125 c 0
 205.333984375 12.6689453125 183.66796875 27.501953125 165.66796875 46.501953125 c 0
 147.66796875 65.501953125 133.833984375 89.001953125 124.16796875 117.001953125 c 0
 114.5 145.001953125 109.66796875 175.334960938 109.66796875 208.001953125 c 2
 109.66796875 214.001953125 l 1
 109.66796875 309.001953125 l 2
 109.4453125 316.125976562 109.333984375 323.918945312 109.333984375 332.380859375 c 0
 109.333984375 349.258789062 109.77734375 368.797851562 110.6640625 391 c 0
244.666015625 613.000976562 m 0
 223.333007812 591.000976562 207 555.998046875 195.666015625 507.998046875 c 0
 191.666015625 490.665039062 188.666015625 470.665039062 186.666015625 447.998046875 c 0
 185 428.33203125 184.16796875 402.166015625 184.16796875 369.5 c 0
 184.16796875 336.833984375 185 297.66796875 186.66796875 252.001953125 c 0
 187.333984375 234.001953125 187.833984375 222.501953125 188.16796875 217.501953125 c 0
 188.5 212.501953125 188.66796875 209.001953125 188.66796875 207.001953125 c 2
 188.66796875 177.001953125 l 1
 206.66796875 201.001953125 l 1
 289.333984375 323.001953125 363.66796875 448.668945312 429.66796875 578.001953125 c 2
 432.66796875 584.001953125 l 1
 428.66796875 589.001953125 l 2
 416.66796875 607.001953125 402.16796875 621.001953125 385.16796875 631.001953125 c 0
 368.16796875 641.001953125 349.333984375 646.001953125 328.66796875 646.001953125 c 0
 292.66796875 646.001953125 264.666015625 635.000976562 244.666015625 613.000976562 c 0
351.166015625 54.9990234375 m 0
 364.833007812 58.33203125 378 63.9990234375 390.66796875 71.9990234375 c 0
 416 88.666015625 435.66796875 119.666015625 449.66796875 164.999023438 c 0
 452.333984375 173.666015625 455.16796875 196.166015625 458.16796875 232.499023438 c 0
 461.16796875 268.83203125 463.333984375 310.33203125 464.66796875 356.999023438 c 0
 465.333984375 369.666015625 465.66796875 381.999023438 465.66796875 393.999023438 c 0
 465.66796875 427.999023438 464.333984375 460.666015625 461.66796875 491.999023438 c 2
 458.66796875 526.999023438 l 1
 442.66796875 494.999023438 l 1
 376.66796875 349.666015625 299.333984375 227.666015625 210.66796875 128.999023438 c 1
 206.66796875 123.999023438 l 1
 208.66796875 117.999023438 l 2
 220 93.33203125 235 75.33203125 253.66796875 63.9990234375 c 0
 268.333984375 54.666015625 285.66796875 49.9990234375 305.66796875 49.9990234375 c 0
 322.333984375 49.9990234375 337.5 51.666015625 351.166015625 54.9990234375 c 0
EndSplineSet
Validated: 524289
EndChar

StartChar: one
Encoding: 49 49 18
Width: 650
GlyphClass: 2
Flags: HMW
HStem: 1 64.9961<506.499 508.499 506.166 514.833> 520.999 21G
VStem: 292.498 70 303.498 61
LayerCount: 2
Fore
SplineSet
539.5 59 m 0xe0
 545.5 53 548.5 45 548.5 35 c 0
 548.5 25 545.66796875 16.8330078125 540 10.5 c 0
 534.333007812 4.1669921875 523.166015625 1 506.5 1 c 0
 283.166015625 3 159.166015625 4 134.5 4 c 0
 122.5 4 114 7.1669921875 109 13.5 c 0
 104 19.8330078125 101.5 28 101.5 38 c 2
 101.5 41 l 2
 101.5 50.3330078125 104 58.3330078125 109 65 c 0
 114 71.6669921875 122.83203125 75 135.5 75 c 0
 164.83203125 75 217.165039062 74.3330078125 292.498046875 73 c 1
 292.498046875 83 l 2xe0
 292.498046875 109 292.165039062 127.666992188 291.498046875 139 c 0
 290.83203125 150.333007812 290.498046875 160.666015625 290.498046875 169.999023438 c 0
 290.498046875 180.666015625 290.83203125 212.333007812 291.498046875 265 c 0
 291.498046875 278.333007812 292.998046875 328.666015625 295.998046875 415.999023438 c 0
 298.998046875 503.33203125 301.498046875 567.999023438 303.498046875 609.999023438 c 1
 287.498046875 595.999023438 l 2
 243.498046875 555.999023438 210.498046875 531.666015625 188.498046875 522.999023438 c 0
 185.165039062 521.666015625 182.165039062 520.999023438 179.498046875 520.999023438 c 0
 173.498046875 520.999023438 166.498046875 524.33203125 158.498046875 530.999023438 c 0
 147.83203125 540.33203125 142.498046875 549.33203125 142.498046875 557.999023438 c 2
 142.498046875 558.999023438 l 1
 142.498046875 559.999023438 l 2
 142.498046875 568.666015625 144.498046875 576.666015625 148.498046875 583.999023438 c 0
 152.498046875 591.33203125 159.83203125 598.999023438 170.498046875 606.999023438 c 0
 190.498046875 622.33203125 210.83203125 638.665039062 231.498046875 655.998046875 c 2
 273.498046875 693.998046875 l 2
 281.498046875 701.331054688 289.665039062 707.6640625 297.998046875 712.997070312 c 0
 306.33203125 718.330078125 313.1640625 720.997070312 318.497070312 720.997070312 c 0
 329.830078125 720.997070312 341.497070312 715.6640625 353.497070312 704.997070312 c 0
 360.1640625 698.997070312 364.83203125 693.6640625 367.498046875 688.997070312 c 0
 369.498046875 686.330078125 370.498046875 683.997070312 370.498046875 681.997070312 c 0
 369.83203125 665.997070312 367.83203125 611.330078125 364.498046875 517.997070312 c 0xd0
 361.165039062 424.6640625 359.498046875 369.997070312 359.498046875 353.997070312 c 0
 359.498046875 237.330078125 360.498046875 142.663085938 362.498046875 69.99609375 c 1
 405.83203125 68.6630859375 439.83203125 67.6630859375 464.498046875 66.99609375 c 0
 489.165039062 66.3291015625 503.83203125 65.99609375 508.5 65.99609375 c 0
 510.205078125 66.0703125 511.849609375 66.107421875 513.431640625 66.107421875 c 0
 526.0703125 66.107421875 534.76171875 63.7392578125 539.5 59 c 0xe0
EndSplineSet
Validated: 524289
EndChar

StartChar: two
Encoding: 50 50 19
Width: 650
GlyphClass: 2
Flags: HMW
HStem: -8 64.0029 -1.99512 68.998 647.002 64.998
VStem: 110.499 81.0029 444.5 80.002
LayerCount: 2
Fore
SplineSet
310.498046875 -8 m 0xb8
 281.166015625 -9.3330078125 251.498046875 -10 221.498046875 -10 c 0
 188.166015625 -9.3330078125 162.166015625 -8 143.498046875 -6 c 0
 137.498046875 -5.3330078125 132.498046875 -3.166015625 128.498046875 0.5009765625 c 0
 124.498046875 4.16796875 121.498046875 9.0009765625 119.498046875 15.0009765625 c 0
 113.498046875 30.333984375 110.498046875 52.5009765625 110.498046875 81.5009765625 c 0
 110.498046875 110.500976562 116.498046875 140.16796875 128.498046875 170.500976562 c 0
 140.498046875 200.833984375 158.331054688 230.000976562 181.998046875 258.000976562 c 0
 205.666015625 286.000976562 231.83203125 308.66796875 260.499023438 326.000976562 c 0
 325.83203125 366.66796875 367.83203125 395.000976562 386.499023438 411.000976562 c 0
 413.166015625 433.66796875 430.499023438 458.334960938 438.499023438 485.001953125 c 0
 442.499023438 499.668945312 444.499023438 517.668945312 444.499023438 539.001953125 c 0
 444.499023438 577.001953125 433.499023438 604.668945312 411.499023438 622.001953125 c 0
 391.499023438 638.668945312 363.499023438 647.001953125 327.499023438 647.001953125 c 0
 302.166015625 647.001953125 278.166015625 638.668945312 255.499023438 622.001953125 c 0
 232.83203125 605.334960938 214.499023438 586.66796875 200.499023438 566.000976562 c 0
 194.499023438 558.000976562 189.499023438 552.16796875 185.499023438 548.500976562 c 0
 181.499023438 544.833984375 177.499023438 542.666992188 173.499023438 542 c 2
 167.999023438 542 l 2
 165.666015625 542 162.833984375 542.333007812 159.5 543 c 0
 156.166992188 543.666992188 150.833984375 545.666992188 143.501953125 549 c 0
 134.833984375 553.666992188 129.501953125 560 127.500976562 568 c 2
 127.500976562 575 l 2
 127.434570312 575.799804688 127.401367188 576.623046875 127.401367188 577.469726562 c 0
 127.401367188 585.08984375 130.1015625 594.599609375 135.501953125 606 c 0
 141.501953125 617.333007812 150.833984375 629.166015625 163.501953125 641.499023438 c 0
 176.16796875 653.83203125 190.834960938 665.33203125 207.501953125 675.999023438 c 0
 224.169921875 686.666015625 242.501953125 695.333007812 262.501953125 702 c 0
 282.501953125 708.666992188 302.834960938 712 323.501953125 712 c 0
 386.834960938 712 436.16796875 696.333007812 471.501953125 665 c 0
 506.833984375 633.666992188 524.501953125 586 524.501953125 522 c 0
 524.501953125 469.333007812 511.16796875 427 484.501953125 395 c 0
 463.833984375 371.666992188 428.833984375 345.333984375 379.501953125 316.000976562 c 0
 364.16796875 306.000976562 343.501953125 293.333984375 317.501953125 278.000976562 c 0
 290.16796875 262.66796875 267.501953125 243.334960938 249.501953125 220.001953125 c 0
 230.833984375 196.668945312 217.001953125 172.8359375 208.001953125 148.502929688 c 0
 199.001953125 124.169921875 193.501953125 98.0029296875 191.501953125 70.0029296875 c 2
 191.501953125 60.0029296875 l 1
 236.833984375 57.3359375 277.501953125 56.0029296875 313.501953125 56.0029296875 c 0xb8
 339.501953125 56.0029296875 360.833984375 56.669921875 377.501953125 58.0029296875 c 0
 394.16796875 59.3359375 416.16796875 61.0029296875 443.501953125 63.0029296875 c 0
 472.16796875 65.0029296875 490.501953125 66.3359375 498.501953125 67.0029296875 c 2
 508.501953125 67.0029296875 l 2
 511.61328125 67.2255859375 514.318359375 67.3369140625 516.615234375 67.3369140625 c 0
 521.206054688 67.3369140625 524.16796875 66.892578125 525.501953125 66.00390625 c 0
 527.501953125 65.3369140625 529.833984375 64.00390625 532.501953125 62.00390625 c 0
 534.501953125 60.6708984375 535.833984375 59.337890625 536.501953125 58.0048828125 c 0
 538.501953125 54.0048828125 539.501953125 48.337890625 539.501953125 41.0048828125 c 0
 539.501953125 26.337890625 535.833984375 14.337890625 528.501953125 5.0048828125 c 0
 525.16796875 0.337890625 520.834960938 -1.9951171875 515.501953125 -1.9951171875 c 0x78
 467.501953125 -1.9951171875 399.166015625 -4 310.498046875 -8 c 0xb8
EndSplineSet
Validated: 524289
EndChar

StartChar: three
Encoding: 51 51 20
Width: 650
GlyphClass: 2
Flags: HMW
HStem: -14.998 64.998 328.002 81.002 647.004 65.001
VStem: 430.499 81 453.498 80.002
LayerCount: 2
Fore
SplineSet
510.501953125 532 m 0xf0
 511.168945312 530.666992188 511.499023438 529.333984375 511.499023438 528.000976562 c 0xf0
 511.499023438 511.333984375 509.001953125 495.833984375 504.001953125 481.500976562 c 0
 499.001953125 467.16796875 492.501953125 455.16796875 484.501953125 445.500976562 c 0
 476.501953125 435.833984375 466.668945312 427.000976562 455.001953125 419.000976562 c 0
 443.334960938 411.000976562 431.16796875 404.66796875 418.500976562 400.000976562 c 0
 407.16796875 395.333984375 395.16796875 391.666992188 382.500976562 389 c 2
 340.500976562 380 l 1
 382.500976562 370 l 2
 406.500976562 364.666992188 427.66796875 357.833984375 446.000976562 349.500976562 c 0
 464.333984375 341.16796875 480.166992188 330.500976562 493.5 317.500976562 c 0
 506.833007812 304.500976562 516.833007812 288.333984375 523.5 269.000976562 c 0
 530.166992188 249.66796875 533.5 226.334960938 533.5 199.001953125 c 0
 533.5 133.668945312 513.166992188 81.6689453125 472.5 43.001953125 c 0
 432.5 4.3349609375 379.5 -14.998046875 313.5 -14.998046875 c 0
 293.5 -14.998046875 273.5 -11.6650390625 253.5 -4.998046875 c 0
 232.166992188 2.3349609375 213 11.16796875 196 21.5009765625 c 0
 179 31.833984375 164.333007812 43.1669921875 152 55.5 c 0
 139.666992188 67.8330078125 130.5 80 124.5 92 c 0
 119.166992188 102 116.5 111.333007812 116.5 120 c 0
 116.5 122.666992188 116.833007812 125.333984375 117.5 128.000976562 c 0
 119.5 137.333984375 124.5 144.000976562 132.5 148.000976562 c 0
 139.833007812 152.000976562 146.833007812 154.000976562 153.5 154.000976562 c 0
 156.166992188 154.000976562 158.833984375 153.66796875 161.500976562 153.000976562 c 0
 170.833984375 150.333984375 180.166992188 143.000976562 189.5 131.000976562 c 0
 204.833007812 110.333984375 224.166015625 91.6669921875 247.499023438 75 c 0
 268.83203125 58.3330078125 292.165039062 50 317.498046875 50 c 0
 355.498046875 50 386.831054688 62.3330078125 411.498046875 87 c 0
 439.498046875 111.666992188 453.498046875 143.333984375 453.498046875 182.000976562 c 0xe8
 453.498046875 204.66796875 449.831054688 224.834960938 442.498046875 242.501953125 c 0
 435.165039062 260.168945312 423.83203125 275.668945312 408.499023438 289.001953125 c 0
 380.499023438 315.001953125 333.499023438 328.001953125 267.499023438 328.001953125 c 0
 257.499023438 328.001953125 248.83203125 332.334960938 241.499023438 341.001953125 c 0
 234.166015625 349.668945312 230.499023438 359.8359375 230.499023438 371.502929688 c 0
 230.499023438 383.169921875 233.166015625 392.336914062 238.499023438 399.00390625 c 0
 243.166015625 405.670898438 250.499023438 409.00390625 260.499023438 409.00390625 c 0
 312.499023438 409.00390625 353.499023438 420.670898438 383.499023438 444.00390625 c 0
 414.83203125 467.336914062 430.499023438 501.00390625 430.499023438 545.00390625 c 2
 430.499023438 549.00390625 l 1
 430.499023438 553.00390625 l 2
 430.518554688 553.899414062 430.528320312 554.7890625 430.528320312 555.671875 c 0
 430.528320312 585.68359375 419.518554688 608.4609375 397.499023438 624.00390625 c 0
 376.166015625 639.336914062 346.166015625 647.00390625 307.499023438 647.00390625 c 0
 294.83203125 647.00390625 281.499023438 644.670898438 267.499023438 640.00390625 c 0
 262.83203125 638.00390625 257.83203125 634.670898438 252.499023438 630.00390625 c 0
 247.166015625 625.336914062 242.833007812 621.669921875 239.5 619.002929688 c 0
 236.166992188 616.3359375 232 611.8359375 227 605.502929688 c 0
 222 599.169921875 218.5 594.836914062 216.5 592.50390625 c 0
 214.5 590.170898438 211.166992188 585.337890625 206.5 578.004882812 c 0
 197.166992188 565.337890625 188.166992188 558.004882812 179.5 556.004882812 c 0
 176.833007812 555.337890625 174.166015625 555.004882812 171.499023438 555.004882812 c 0
 164.83203125 555.004882812 157.499023438 557.004882812 149.499023438 561.004882812 c 0
 141.499023438 565.004882812 136.499023438 571.671875 134.499023438 581.004882812 c 0
 133.83203125 583.004882812 133.499023438 585.337890625 133.499023438 588.004882812 c 0
 133.499023438 596.671875 136.166015625 606.338867188 141.499023438 617.005859375 c 0
 154.166015625 642.338867188 173.499023438 664.005859375 199.499023438 682.005859375 c 0
 212.83203125 691.338867188 228.83203125 698.671875 247.499023438 704.004882812 c 0
 264.83203125 709.337890625 283.499023438 712.004882812 303.499023438 712.004882812 c 0
 442.166015625 712.004882812 511.499023438 653.337890625 511.499023438 536.004882812 c 0
 510.83203125 534.671875 510.501953125 533.333007812 510.501953125 532 c 0xf0
EndSplineSet
Validated: 524289
EndChar

StartChar: four
Encoding: 52 52 21
Width: 650
GlyphClass: 2
Flags: HMW
HStem: -13.998 21G 234 61.002 696.001 20G
VStem: 394.502 65.499 401.5 67.001 401.5 75.001
LayerCount: 2
Fore
SplineSet
416.5 -1 m 0xf0
 407.166992188 7 402.166992188 14.6669921875 401.5 22 c 2
 401.5 60 l 1xe4
 401.5 233 l 1xe8
 380.166992188 233.666992188 362.5 234 348.5 234 c 0
 260.5 233.333007812 195.83203125 228.666015625 154.5 219.999023438 c 0
 150.5 219.33203125 146.5 218.999023438 142.5 218.999023438 c 0
 138.5 218.999023438 134.5 219.666015625 130.5 220.999023438 c 0
 124.5 223.666015625 119.5 227.333007812 115.5 232 c 0
 106.166992188 244 101.5 258.333007812 101.5 275 c 0
 101.5 283 102.833007812 291 105.5 299 c 0
 112.166992188 317.666992188 129.833984375 347.833984375 158.5 389.500976562 c 0
 187.16796875 431.16796875 223.16796875 483.000976562 266.5 545.000976562 c 0
 309.16796875 607.000976562 339.5 652.333984375 357.5 681.000976562 c 0
 364.833984375 692.333984375 372.833984375 700.833984375 381.5 706.500976562 c 0
 390.16796875 712.16796875 398.16796875 715.000976562 405.5 715.000976562 c 0
 407.5 715.66796875 409.5 716.000976562 411.5 716.000976562 c 0
 419.5 716.000976562 427.5 713.66796875 435.5 709.000976562 c 0
 443.5 704.333984375 448.5 696.333984375 450.5 685.000976562 c 0
 454.5 662.333984375 457.66796875 626.833984375 460 578.500976562 c 0xf0
 462.333984375 530.16796875 463.833984375 489.334960938 464.5 456.001953125 c 2
 467.5 294.001953125 l 1
 484.833984375 292.668945312 500.333984375 292.001953125 514 292.001953125 c 0
 527.66796875 292.001953125 536.66796875 289.501953125 541 284.501953125 c 0
 545.333984375 279.501953125 547.833984375 272.668945312 548.5 264.001953125 c 0
 548.5 253.334960938 546.5 245.334960938 542.5 240.001953125 c 0
 537.16796875 233.334960938 528 230.001953125 515 230.001953125 c 0
 502 230.001953125 486.5 230.668945312 468.5 232.001953125 c 1xe8
 469.16796875 126.668945312 471.16796875 67.001953125 474.5 53.001953125 c 0
 475.833984375 45.6689453125 476.5 39.001953125 476.5 33.001953125 c 0xe4
 477.16796875 22.3349609375 475.16796875 12.66796875 470.5 4.0009765625 c 0
 467.833984375 -1.33203125 464.333984375 -5.6650390625 460 -8.998046875 c 0
 455.66796875 -12.3310546875 450.5 -13.998046875 444.5 -13.998046875 c 0
 435.16796875 -13.3310546875 425.83203125 -9 416.5 -1 c 0xf0
394.501953125 603.001953125 m 2xf0
 393.501953125 629.001953125 l 1
 378.501953125 608.001953125 l 2
 287.834960938 478.001953125 225.501953125 377.001953125 191.501953125 305.001953125 c 2
 184.501953125 290.001953125 l 1
 200.501953125 291.001953125 l 2
 235.834960938 293.668945312 278.501953125 295.001953125 328.501953125 295.001953125 c 0
 348.501953125 295.001953125 372.834960938 294.668945312 401.501953125 294.001953125 c 1
 401.501953125 304.001953125 l 2
 401.501953125 429.334960938 399.16796875 529.001953125 394.501953125 603.001953125 c 2xf0
EndSplineSet
Validated: 524289
EndChar

StartChar: five
Encoding: 53 53 22
Width: 650
GlyphClass: 2
Flags: HMW
HStem: -7.99902 64.999 430 69.9971 628.997 69.002 639.996 60.0029
VStem: 116.501 73.999 124.501 67.999 463.5 80
LayerCount: 2
Fore
SplineSet
525.500976562 166 m 0xd6
 513.500976562 127.333007812 496.66796875 95.3330078125 475.000976562 70 c 0
 453.333984375 44.6669921875 428.500976562 25.333984375 400.500976562 12.0009765625 c 0
 373.16796875 -1.33203125 343.16796875 -7.9990234375 310.500976562 -7.9990234375 c 0
 285.16796875 -7.9990234375 261.500976562 -4.9990234375 239.500976562 1.0009765625 c 0
 216.16796875 7.0009765625 196.500976562 14.833984375 180.500976562 24.5009765625 c 0
 164.500976562 34.16796875 151.16796875 44.66796875 140.500976562 56.0009765625 c 0
 129.833984375 67.333984375 121.166992188 79.0009765625 114.5 91.0009765625 c 0
 109.166992188 103.66796875 106.5 114.000976562 106.5 122.000976562 c 0
 106.5 133.333984375 112.166992188 141.666992188 123.5 147 c 0
 134.833007812 152.333007812 142.833007812 155 147.5 155 c 0
 149.5 154.333007812 151.166992188 154 152.5 154 c 0
 156.5 154 160.5 152 164.5 148 c 0
 168.5 144 173.5 138 179.5 130 c 0
 212.166992188 81.3330078125 253.166992188 57 302.5 57 c 0
 350.5 57 388.833007812 78 417.5 120 c 0
 448.166992188 161.333007812 463.5 216.333007812 463.5 285 c 0
 463.5 328.333007812 453.5 363 433.5 389 c 0
 414.166992188 416.333007812 385.833984375 430 348.500976562 430 c 0
 332.500976562 430 315.833984375 428 298.500976562 424 c 0
 289.16796875 421.333007812 276.834960938 415.666015625 261.501953125 406.999023438 c 0
 257.501953125 404.999023438 252.334960938 401.166015625 246.001953125 395.499023438 c 0
 239.668945312 389.83203125 235.501953125 385.999023438 233.501953125 383.999023438 c 0
 223.501953125 374.666015625 215.168945312 366.666015625 208.501953125 359.999023438 c 0
 197.834960938 350.666015625 184.834960938 345.333007812 169.501953125 344 c 2
 165.501953125 344 l 2
 158.834960938 344 152.501953125 345.333007812 146.501953125 348 c 0
 137.834960938 351.333007812 131.16796875 359.666015625 126.500976562 372.999023438 c 0
 121.16796875 388.33203125 118.16796875 407.33203125 117.500976562 429.999023438 c 0
 116.833984375 440.666015625 116.500976562 450.999023438 116.500976562 460.999023438 c 0xda
 116.500976562 485.666015625 118.16796875 520.666015625 121.500976562 565.999023438 c 0
 123.500976562 590.666015625 124.500976562 607.999023438 124.500976562 617.999023438 c 2
 124.500976562 620.999023438 l 1
 122.500976562 622.999023438 l 2
 116.500976562 632.999023438 113.500976562 644.999023438 113.500976562 658.999023438 c 0
 113.500976562 674.33203125 117.833984375 686.33203125 126.500976562 694.999023438 c 0
 131.833984375 700.33203125 137.833984375 702.999023438 144.500976562 702.999023438 c 0
 169.16796875 702.33203125 224.500976562 701.33203125 310.500976562 699.999023438 c 0xd6
 395.16796875 698.666015625 461.500976562 697.999023438 509.500976562 697.999023438 c 0
 514.16796875 697.999023438 518.500976562 695.666015625 522.500976562 690.999023438 c 0
 527.16796875 684.999023438 530.16796875 677.83203125 531.500976562 669.499023438 c 0
 532.833984375 661.166015625 533.166992188 653.666015625 532.5 646.999023438 c 0
 531.833007812 640.33203125 530 636.165039062 527 634.498046875 c 0
 524 632.831054688 521.666992188 631.6640625 520 630.997070312 c 0
 518.333007812 630.330078125 515.5 629.830078125 511.5 629.497070312 c 0
 507.5 629.1640625 504.666992188 628.997070312 503 628.997070312 c 0xe6
 501.333007812 628.997070312 497.666015625 629.1640625 491.999023438 629.497070312 c 0
 486.33203125 629.830078125 480.999023438 630.163085938 475.999023438 630.49609375 c 0
 470.999023438 630.829101562 456.499023438 631.99609375 432.499023438 633.99609375 c 0
 410.499023438 635.99609375 390.83203125 637.49609375 373.499023438 638.49609375 c 0
 356.166015625 639.49609375 332.333007812 639.99609375 302 639.99609375 c 0
 271.666992188 639.99609375 236.166992188 638.663085938 195.5 635.99609375 c 1
 194.833007812 623.329101562 193.833007812 600.99609375 192.5 568.99609375 c 0xd6
 191.166992188 536.99609375 190.5 516.663085938 190.5 507.99609375 c 0xda
 190.5 499.329101562 190.666992188 490.829101562 191 482.49609375 c 0
 191.333007812 474.163085938 191.833007812 451.330078125 192.5 413.997070312 c 1
 208.5 431.997070312 l 2
 225.833007812 451.330078125 248.333007812 467.497070312 276 480.497070312 c 0
 303.666992188 493.497070312 335.5 499.997070312 371.5 499.997070312 c 0
 397.5 499.997070312 421.166992188 494.6640625 442.5 483.997070312 c 0
 465.166992188 473.330078125 483.666992188 458.997070312 498 440.997070312 c 0
 512.333007812 422.997070312 523.5 401.497070312 531.5 376.497070312 c 0
 539.5 351.497070312 543.5 324.6640625 543.5 295.997070312 c 0
 543.5 247.997070312 537.500976562 204.666992188 525.500976562 166 c 0xd6
EndSplineSet
Validated: 524289
EndChar

StartChar: six
Encoding: 54 54 23
Width: 650
GlyphClass: 2
Flags: HMW
HStem: -13 64.998 401.999 69.999
VStem: 104.499 69.999 467.499 78.002
LayerCount: 2
Fore
SplineSet
527.498046875 144 m 0
 515.498046875 112 499.331054688 84.5 478.998046875 61.5 c 0
 458.666015625 38.5 434.83203125 20.3330078125 407.499023438 7 c 0
 381.499023438 -6.3330078125 354.166015625 -13 325.499023438 -13 c 0
 289.499023438 -13 258.166015625 -5.3330078125 231.499023438 10 c 0
 202.166015625 25.3330078125 178.166015625 47.166015625 159.499023438 75.4990234375 c 0
 140.83203125 103.83203125 127 137.499023438 118 176.499023438 c 0
 109 215.499023438 104.5 258.666015625 104.5 305.999023438 c 0
 104.5 365.999023438 110.166015625 419.999023438 121.5 467.999023438 c 0
 132.166015625 512.666015625 146.666015625 550.333007812 164.999023438 581 c 0
 183.33203125 611.666992188 205.83203125 637.333984375 232.499023438 658.000976562 c 0
 257.166015625 679.333984375 283.833984375 695.333984375 312.5 706.000976562 c 0
 341.166992188 716.66796875 373.166992188 723.66796875 408.5 727.000976562 c 2
 414.5 727.000976562 l 2
 424.5 727.000976562 433.5 725.000976562 441.5 721.000976562 c 0
 449.5 717.000976562 454.166992188 710.333984375 455.5 701.000976562 c 2
 455.5 700.000976562 l 2
 455.5 695.333984375 452.5 689.666992188 446.5 683 c 0
 439.166992188 674.333007812 431.166992188 668.666015625 422.5 665.999023438 c 0
 415.833984375 663.999023438 405.5 661.499023438 391.5 658.499023438 c 0
 377.5 655.499023438 365.5 652.33203125 355.5 648.999023438 c 0
 345.5 645.666015625 333.833984375 640.999023438 320.5 634.999023438 c 0
 293.833984375 622.33203125 266.833984375 598.999023438 239.5 564.999023438 c 0
 224.833984375 546.33203125 211.166015625 521.665039062 198.499023438 490.998046875 c 0
 185.83203125 460.331054688 177.83203125 432.998046875 174.499023438 408.998046875 c 2
 170.499023438 375.998046875 l 1
 191.499023438 400.998046875 l 2
 211.499023438 424.331054688 236.166015625 441.998046875 265.499023438 453.998046875 c 0
 294.166015625 465.998046875 326.499023438 471.998046875 362.499023438 471.998046875 c 0
 389.166015625 471.331054688 413.166015625 466.998046875 434.499023438 458.998046875 c 0
 457.166015625 450.998046875 476.833984375 438.165039062 493.5 420.498046875 c 0
 510.166992188 402.831054688 523 379.498046875 532 350.498046875 c 0
 541 321.498046875 545.5 286.665039062 545.5 245.998046875 c 0
 545.5 209.998046875 539.498046875 176 527.498046875 144 c 0
176.5 228.998046875 m 0
 179.166992188 196.331054688 189.166992188 164.998046875 206.5 134.998046875 c 0
 215.166992188 118.998046875 225.166992188 104.998046875 236.5 92.998046875 c 0
 247.166992188 80.3310546875 260.166992188 70.3310546875 275.5 62.998046875 c 0
 290.833984375 55.6650390625 307.166015625 51.998046875 324.499023438 51.998046875 c 2
 326.499023438 51.998046875 l 2
 351.166015625 51.998046875 374.166015625 61.3310546875 395.499023438 79.998046875 c 0
 416.83203125 97.998046875 434.166015625 120.998046875 447.498046875 148.998046875 c 0
 460.831054688 176.998046875 467.498046875 205.331054688 467.498046875 233.998046875 c 0
 467.498046875 266.665039062 464.498046875 294.165039062 458.498046875 316.498046875 c 0
 452.498046875 338.831054688 443.166015625 356.331054688 430.498046875 368.998046875 c 0
 418.498046875 381.665039062 405.166015625 390.33203125 390.498046875 394.999023438 c 0
 375.831054688 399.666015625 358.498046875 401.999023438 338.498046875 401.999023438 c 0
 306.498046875 401.999023438 276.498046875 392.999023438 248.498046875 374.999023438 c 0
 219.831054688 356.999023438 195.831054688 333.999023438 176.498046875 305.999023438 c 1
 174.498046875 303.999023438 l 1
 174.498046875 300.999023438 l 2
 174.498046875 269.666015625 175.166992188 245.665039062 176.5 228.998046875 c 0
EndSplineSet
Validated: 524289
EndChar

StartChar: seven
Encoding: 55 55 24
Width: 650
GlyphClass: 2
Flags: HMW
HStem: -14 21G<172.168 177.502> 632.8 71.2011
LayerCount: 2
Fore
SplineSet
521.999023438 693.5 m 0
 527.666015625 691.166992188 532.833007812 687.333984375 537.5 682.000976562 c 0
 542.166992188 676.66796875 544.5 669.66796875 544.5 661.000976562 c 0
 544.5 652.333984375 541.833007812 641.666992188 536.5 629 c 0
 527.166992188 609 510.333984375 579 486.000976562 539 c 0
 461.66796875 499 436.834960938 457.666992188 411.501953125 415 c 0
 387.501953125 373 358.168945312 316.833007812 323.501953125 246.5 c 0
 288.834960938 176.166992188 256.16796875 104 225.500976562 30 c 0
 218.16796875 14 208.834960938 2.3330078125 197.501953125 -5 c 0
 189.501953125 -11 181.501953125 -14 173.501953125 -14 c 0
 170.834960938 -14 168.501953125 -13.6669921875 166.501953125 -13 c 0
 155.834960938 -10.3330078125 148.16796875 -3.8330078125 143.500976562 6.5 c 0
 141.458984375 11.0205078125 140.438476562 15.701171875 140.438476562 20.541015625 c 0
 140.438476562 26.763671875 142.125976562 33.25 145.500976562 40 c 0
 180.16796875 108 215.834960938 176 252.501953125 244 c 0
 287.834960938 312 317.001953125 366.166992188 340.001953125 406.5 c 0
 363.001953125 446.833007812 384.501953125 486.333007812 404.501953125 525 c 0
 425.168945312 563 439.501953125 594 447.501953125 618 c 2
 451.501953125 631 l 1
 414.302734375 632.200195312 377.463867188 632.799804688 340.984375 632.799804688 c 0
 316.6640625 632.799804688 292.502929688 632.533203125 268.501953125 632 c 0
 204.501953125 630 162.168945312 626.333007812 141.501953125 621 c 0
 139.501953125 620.333007812 137.168945312 620 134.501953125 620 c 0
 131.834960938 620 129.16796875 620.666992188 126.500976562 622 c 0
 121.833984375 623.333007812 118.166992188 626 115.5 630 c 0
 109.5 638.666992188 106.166992188 648.666992188 105.5 660 c 0
 105.5 669.333007812 107.666992188 676.833007812 112 682.5 c 0
 116.333007812 688.166992188 125.5 692.333984375 139.5 695.000976562 c 0
 174.833007812 701.000976562 230.833007812 704.000976562 307.5 704.000976562 c 0
 331.5 704.000976562 378.5 702.333984375 448.5 699.000976562 c 0
 483.833007812 697.66796875 502.833007812 697.000976562 505.5 697.000976562 c 0
 510.833007812 697.000976562 516.33203125 695.833007812 521.999023438 693.5 c 0
EndSplineSet
Validated: 524289
EndChar

StartChar: eight
Encoding: 56 56 25
Width: 650
GlyphClass: 2
Flags: HMW
HStem: -17.999 66.001 656.002 52.001
VStem: 98.5 66.9971 125.501 73.9971 437.5 70 477.498 74.002
LayerCount: 2
Fore
SplineSet
543.498046875 142.5 m 0xc4
 538.165039062 122.166992188 528.998046875 102.333984375 515.998046875 83.0009765625 c 0
 502.998046875 63.66796875 487.331054688 46.66796875 468.998046875 32.0009765625 c 0
 450.665039062 17.333984375 427.83203125 5.333984375 400.499023438 -3.9990234375 c 0
 374.499023438 -13.33203125 345.83203125 -17.9990234375 314.499023438 -17.9990234375 c 0
 283.166015625 -17.9990234375 255.499023438 -13.666015625 231.499023438 -4.9990234375 c 0
 206.166015625 3.66796875 185.499023438 15.0009765625 169.499023438 29.0009765625 c 0
 153.499023438 43.0009765625 139.83203125 59.5009765625 128.499023438 78.5009765625 c 0
 117.166015625 97.5009765625 109.333007812 116.66796875 105 136.000976562 c 0
 100.666992188 155.333984375 98.5 175.500976562 98.5 196.500976562 c 0xe4
 98.5 217.500976562 104 240.333984375 115 265.000976562 c 0
 126 289.66796875 141.833007812 312.66796875 162.5 334.000976562 c 0
 183.166992188 355.333984375 205.5 370.000976562 229.5 378.000976562 c 2
 251.5 386.000976562 l 1
 230.5 396.000976562 l 2
 197.166992188 412.000976562 171.333984375 432.66796875 153.000976562 458.000976562 c 0
 134.66796875 483.333984375 125.500976562 509.000976562 125.500976562 535.000976562 c 0
 125.500976562 542.333984375 126.000976562 550.333984375 127.000976562 559.000976562 c 0
 128.000976562 567.66796875 130.500976562 577.834960938 134.500976562 589.501953125 c 0
 138.500976562 601.168945312 143.333984375 612.3359375 149.000976562 623.002929688 c 0
 154.66796875 633.669921875 162.66796875 644.169921875 173.000976562 654.502929688 c 0
 183.333984375 664.8359375 195.166992188 674.002929688 208.5 682.002929688 c 0
 221.166992188 689.3359375 236.666992188 695.502929688 255 700.502929688 c 0
 273.333007812 705.502929688 293.833007812 708.002929688 316.5 708.002929688 c 0
 339.166992188 708.002929688 359.666992188 705.669921875 378 701.002929688 c 0
 396.333007812 696.3359375 411.833007812 690.002929688 424.5 682.002929688 c 0
 437.833007812 674.002929688 449.666015625 664.8359375 459.999023438 654.502929688 c 0
 470.33203125 644.169921875 478.33203125 633.669921875 483.999023438 623.002929688 c 0
 489.666015625 612.3359375 494.333007812 601.002929688 498 589.002929688 c 0
 501.666992188 577.002929688 504.166992188 566.502929688 505.5 557.502929688 c 0
 506.833007812 548.502929688 507.5 540.002929688 507.5 532.002929688 c 0xd8
 507.5 524.002929688 506.5 516.502929688 504.5 509.502929688 c 0
 502.5 502.502929688 500.166992188 496.169921875 497.5 490.502929688 c 0
 494.833007812 484.8359375 491 479.002929688 486 473.002929688 c 0
 481 467.002929688 476.166992188 461.669921875 471.5 457.002929688 c 0
 463.5 448.3359375 449.833007812 437.3359375 430.5 424.002929688 c 0
 422.5 418.002929688 409.5 408.3359375 391.5 395.002929688 c 1
 406.5 388.002929688 l 2
 429.166992188 378.002929688 449.5 366.502929688 467.5 353.502929688 c 0
 485.5 340.502929688 499.666992188 327.669921875 510 315.002929688 c 0
 520.333007812 302.3359375 528.833007812 289.168945312 535.5 275.501953125 c 0
 542.166992188 261.834960938 546.5 249.501953125 548.5 238.501953125 c 0
 550.5 227.501953125 551.5 216.001953125 551.5 204.001953125 c 0
 551.5 183.334960938 548.831054688 162.833007812 543.498046875 142.5 c 0xc4
232.5 472.001953125 m 0
 251.833007812 454.001953125 283.5 436.334960938 327.5 419.001953125 c 1
 330.5 417.001953125 l 1
 334.5 419.001953125 l 2
 360.5 430.334960938 383.833007812 446.334960938 404.5 467.001953125 c 0
 426.5 488.334960938 437.5 509.001953125 437.5 529.001953125 c 0
 437.5 549.001953125 432.166992188 568.668945312 421.5 588.001953125 c 0
 410.833007812 607.334960938 396.166015625 623.501953125 377.499023438 636.501953125 c 0
 358.83203125 649.501953125 338.83203125 656.001953125 317.499023438 656.001953125 c 2
 315.499023438 656.001953125 l 2
 284.83203125 655.334960938 258.165039062 643.001953125 235.498046875 619.001953125 c 0
 211.498046875 595.001953125 199.498046875 568.001953125 199.498046875 538.001953125 c 0xd8
 199.498046875 513.334960938 210.5 491.334960938 232.5 472.001953125 c 0
189.498046875 113.501953125 m 0
 205.498046875 91.8349609375 224.831054688 75.3349609375 247.498046875 64.001953125 c 0
 269.498046875 53.3349609375 293.165039062 48.001953125 318.498046875 48.001953125 c 0
 336.498046875 48.001953125 354.498046875 51.001953125 372.498046875 57.001953125 c 0
 390.498046875 63.001953125 407.165039062 71.6689453125 422.498046875 83.001953125 c 0
 438.498046875 95.001953125 451.665039062 110.168945312 461.998046875 128.501953125 c 0
 472.331054688 146.834960938 477.498046875 166.66796875 477.498046875 188.000976562 c 0
 477.498046875 200.000976562 476.665039062 211.16796875 474.998046875 221.500976562 c 0
 473.331054688 231.833984375 469.1640625 243.666992188 462.497070312 257 c 0
 455.830078125 270.333007812 446.830078125 282.666015625 435.497070312 293.999023438 c 0
 424.830078125 305.33203125 410.663085938 316.83203125 392.99609375 328.499023438 c 0
 375.329101562 340.166015625 353.49609375 351.333007812 327.49609375 362 c 1
 324.49609375 361 l 2
 279.163085938 347.666992188 241.830078125 324.666992188 212.497070312 292 c 0
 181.1640625 259.333007812 165.497070312 224 165.497070312 186 c 0xe4
 165.497070312 159.333007812 173.498046875 135.168945312 189.498046875 113.501953125 c 0
EndSplineSet
Validated: 524289
EndChar

StartChar: nine
Encoding: 57 57 26
Width: 650
GlyphClass: 2
Flags: HMW
HStem: -13 21G<207.501 212.501 212.501 220.501> 244.999 69 664.999 64.002
VStem: 104.5 78<464 497> 476.499 69.001
LayerCount: 2
Fore
SplineSet
526.5 238 m 0
 514.5 196 498.166992188 160.333007812 477.5 131 c 0
 456.833007812 101.666992188 432.5 76.6669921875 404.5 56 c 0
 377.833007812 35.3330078125 349.333007812 19.5 319 8.5 c 0
 288.666992188 -2.5 255.833984375 -9.6669921875 220.500976562 -13 c 2
 212.500976562 -13 l 2
 202.500976562 -13 193.333984375 -10.8330078125 185.000976562 -6.5 c 0
 176.66796875 -2.1669921875 171.834960938 4.3330078125 170.501953125 13 c 2
 170.501953125 14 l 2
 170.501953125 19.3330078125 173.501953125 25.3330078125 179.501953125 32 c 0
 186.834960938 40 195.16796875 45.3330078125 204.500976562 48 c 0
 211.833984375 50.6669921875 223.166992188 53.6669921875 238.5 57 c 0
 253.833007812 60.3330078125 267.5 63.666015625 279.5 66.9990234375 c 0
 291.5 70.33203125 305.166992188 75.1650390625 320.5 81.498046875 c 0
 335.833007812 87.8310546875 350.666015625 96.498046875 364.999023438 107.498046875 c 0
 379.33203125 118.498046875 392.83203125 131.665039062 405.499023438 146.998046875 c 0
 421.499023438 167.665039062 436.166015625 190.998046875 449.499023438 216.998046875 c 0
 462.83203125 242.998046875 471.83203125 266.998046875 476.499023438 288.998046875 c 2
 483.499023438 324.998046875 l 1
 459.499023438 296.998046875 l 2
 442.166015625 277.665039062 420.833007812 264.33203125 395.5 256.999023438 c 0
 370.833007812 248.999023438 339.166015625 244.999023438 300.499023438 244.999023438 c 0
 275.166015625 244.999023438 250.833007812 251.666015625 227.5 264.999023438 c 0
 202.833007812 277.666015625 181.5 294.833007812 163.5 316.5 c 0
 145.5 338.166992188 131.166992188 363.166992188 120.5 391.5 c 0
 109.833007812 419.833007812 104.5 449 104.5 479 c 0
 104.5 515 110.5 548.666992188 122.5 580 c 0
 134.5 611.333007812 150.5 637.833007812 170.5 659.5 c 0
 190.5 681.166992188 214.166992188 698.333984375 241.5 711.000976562 c 0
 267.5 723.000976562 295.166992188 729.000976562 324.5 729.000976562 c 0
 395.833007812 729.000976562 450.5 699.66796875 488.5 641.000976562 c 0
 526.5 582.333984375 545.5 498.666992188 545.5 390 c 0
 545.5 333.333007812 539.166992188 282.666992188 526.5 238 c 0
220.5 359.999023438 m 0
 243.833007812 329.33203125 278.166015625 313.999023438 323.499023438 313.999023438 c 0
 351.499023438 313.999023438 378.83203125 320.999023438 405.499023438 334.999023438 c 0
 434.166015625 348.999023438 457.166015625 368.33203125 474.499023438 392.999023438 c 2
 476.499023438 395.999023438 l 1
 476.499023438 411.999023438 l 2
 476.499023438 430.666015625 475.499023438 455.666015625 473.499023438 486.999023438 c 2
 473.499023438 487.999023438 l 2
 470.166015625 520.666015625 460.166015625 551.999023438 443.499023438 581.999023438 c 0
 434.83203125 597.999023438 424.83203125 611.999023438 413.499023438 623.999023438 c 0
 402.83203125 635.999023438 389.83203125 645.83203125 374.499023438 653.499023438 c 0
 359.166015625 661.166015625 342.833007812 664.999023438 325.5 664.999023438 c 2
 323.5 664.999023438 l 2
 299.5 664.33203125 276.833007812 655.665039062 255.5 638.998046875 c 0
 234.166992188 622.331054688 216.666992188 600.6640625 203 573.997070312 c 0
 189.333007812 547.330078125 182.5 519.663085938 182.5 490.99609375 c 0
 182.5 434.329101562 195.166992188 390.666015625 220.5 359.999023438 c 0
EndSplineSet
Validated: 524289
EndChar

StartChar: colon
Encoding: 58 58 27
Width: 650
GlyphClass: 2
Flags: HMW
HStem: 49.001 136.124 317 135.143
VStem: 270.748 110.001
LayerCount: 2
Fore
SplineSet
328.750976562 317 m 2
 325.750976562 317 l 2
 309.750976562 317.666992188 297.083984375 320.666992188 287.750976562 326 c 0
 277.750976562 332 272.083984375 341.333007812 270.750976562 354 c 0
 270.083984375 365.333007812 269.750976562 377 269.750976562 389 c 0
 269.416992188 394.666015625 269.250976562 400.249023438 269.250976562 405.749023438 c 0
 269.250976562 411.249023438 269.416992188 416.666015625 269.750976562 422 c 0
 270.418945312 428.666992188 272.418945312 434 275.750976562 438 c 0
 279.083984375 442 283.416992188 445 288.750976562 447 c 0
 299.036132812 450.428710938 309.810546875 452.143554688 321.075195312 452.143554688 c 0
 322.954101562 452.143554688 324.844726562 452.095703125 326.750976562 452 c 0
 332.083007812 452 337.416015625 451.333007812 342.749023438 450 c 0
 356.749023438 447.333007812 366.416015625 442 371.749023438 434 c 0
 375.083007812 429.333007812 377.083007812 423.333007812 377.749023438 416 c 0
 378.416015625 412 378.749023438 408 378.749023438 404 c 0
 378.749023438 386.666992188 376.083007812 368.333984375 370.749023438 349.000976562 c 0
 368.083007812 338.333984375 362.415039062 330.333984375 353.748046875 325.000976562 c 0
 345.081054688 319.66796875 336.750976562 317 328.750976562 317 c 2
325.748046875 49.0009765625 m 0
 313.081054688 49.0009765625 300.748046875 53.0009765625 288.748046875 61.0009765625 c 0
 278.748046875 67.0009765625 273.081054688 75.333984375 271.748046875 86.0009765625 c 0
 271.081054688 104.000976562 270.748046875 114.000976562 270.748046875 116.000976562 c 0
 270.748046875 118.000976562 271.081054688 123.66796875 271.748046875 133.000976562 c 0
 272.415039062 142.333984375 273.083007812 149.666992188 273.749023438 155 c 0
 273.749023438 161 275.416015625 166 278.749023438 170 c 0
 281.416015625 174 285.416015625 177 290.749023438 179 c 0
 302.415039062 183.083007812 313.315429688 185.125 323.450195312 185.125 c 0
 324.899414062 185.125 326.331054688 185.083007812 327.748046875 185 c 0
 334.415039062 185 341.083007812 184 347.749023438 182 c 0
 355.083007812 180 361.749023438 176 367.749023438 170 c 0
 373.749023438 164 377.416015625 157 378.749023438 149 c 0
 380.083007812 140.333007812 380.749023438 132 380.749023438 124 c 0
 380.749023438 110 378.749023438 95.6669921875 374.749023438 81 c 0
 372.083007812 70.3330078125 365.415039062 62.3330078125 354.748046875 57 c 0
 344.748046875 51.6669921875 335.081054688 49.0009765625 325.748046875 49.0009765625 c 0
EndSplineSet
Validated: 524289
EndChar

StartChar: semicolon
Encoding: 59 59 28
Width: 650
GlyphClass: 2
Flags: HMW
HStem: 275.002 136.001
VStem: 298.834 109.666
LayerCount: 2
Fore
SplineSet
388.498046875 79.001953125 m 0
 388.498046875 62.3349609375 366.831054688 -25.33203125 323.498046875 -183.999023438 c 0
 320.165039062 -195.999023438 314.833007812 -204.33203125 307.499023438 -208.999023438 c 0
 300.166015625 -213.666015625 292.499023438 -215.999023438 284.499023438 -215.999023438 c 2
 282.499023438 -215.999023438 l 2
 271.166015625 -215.33203125 260.833007812 -211.665039062 251.500976562 -204.998046875 c 0
 244.833007812 -200.331054688 241.500976562 -193.6640625 241.500976562 -184.997070312 c 0
 241.500976562 -173.6640625 248.500976562 -133.331054688 262.500976562 -63.998046875 c 0
 275.166992188 -2.6650390625 285.500976562 44.3349609375 293.500976562 77.001953125 c 0
 295.500976562 85.6689453125 298.000976562 92.3359375 301.000976562 97.0029296875 c 0
 304.000976562 101.669921875 306.833007812 104.669921875 309.500976562 106.002929688 c 0
 316.166992188 108.669921875 322.500976562 110.002929688 328.500976562 110.002929688 c 0
 330.500976562 110.002929688 332.833007812 109.669921875 335.500976562 109.002929688 c 2
 336.500976562 109.002929688 l 2
 347.833007812 109.002929688 359.500976562 106.3359375 371.500976562 101.002929688 c 0
 377.500976562 98.3359375 382.166992188 94.6689453125 385.500976562 90.001953125 c 0
 387.500976562 87.3349609375 388.498046875 83.6689453125 388.498046875 79.001953125 c 0
356.500976562 275.001953125 m 2
 349.166992188 275.668945312 341.331054688 277.333984375 332.998046875 280.000976562 c 0
 324.665039062 282.66796875 317.333007812 286.834960938 310.999023438 292.501953125 c 0
 304.666015625 298.168945312 301.166015625 304.668945312 300.499023438 312.001953125 c 0
 299.833007812 323.334960938 299.333007812 334.834960938 298.999023438 346.501953125 c 0
 298.887695312 350.38671875 298.833007812 354.216796875 298.833007812 357.991210938 c 0
 298.833007812 365.55078125 299.055664062 372.887695312 299.500976562 380.002929688 c 0
 300.166992188 386.002929688 302.166992188 391.169921875 305.500976562 395.502929688 c 0
 308.833007812 399.8359375 313.500976562 403.002929688 319.500976562 405.002929688 c 0
 325.500976562 407.002929688 331.333007812 408.502929688 337.000976562 409.502929688 c 0
 342.666992188 410.502929688 347.000976562 411.002929688 350.000976562 411.002929688 c 2
 356.500976562 411.002929688 l 2
 367.833007812 410.3359375 378.498046875 407.668945312 388.498046875 403.001953125 c 0
 393.831054688 401.001953125 398.166015625 397.501953125 401.499023438 392.501953125 c 0
 404.833007812 387.501953125 406.833007812 381.668945312 407.499023438 375.001953125 c 0
 408.166015625 371.001953125 408.499023438 367.001953125 408.499023438 363.001953125 c 0
 408.499023438 345.001953125 405.833007812 326.334960938 400.499023438 307.001953125 c 0
 397.833007812 296.334960938 392.165039062 288.334960938 383.498046875 283.001953125 c 0
 374.831054688 277.668945312 366.498046875 275.001953125 358.498046875 275.001953125 c 2
 356.998046875 275.001953125 l 1
 356.500976562 275.001953125 l 2
EndSplineSet
Validated: 524289
EndChar

StartChar: less
Encoding: 60 60 29
Width: 650
GlyphClass: 2
Flags: HMW
HStem: 683 20G<512.167 519.501>
LayerCount: 2
Fore
SplineSet
553.5 648 m 0
 546.83203125 637.333007812 532.83203125 624.333007812 511.5 609 c 0
 474.166992188 583 417.5 540.333007812 341.5 481 c 0
 264.83203125 421 212.83203125 380.666992188 185.5 360 c 1
 196.5 353 l 2
 221.83203125 333 250.5 308.666992188 282.5 280 c 0
 314.5 251.333007812 342.5 225.666015625 366.5 202.999023438 c 0
 390.5 179.666015625 416.5 155.999023438 444.5 131.999023438 c 0
 473.166992188 107.999023438 497.833984375 89.33203125 518.5 75.9990234375 c 0
 539.833984375 61.9990234375 553.5 50.33203125 559.5 40.9990234375 c 0
 562.16796875 36.9990234375 563.5 32.666015625 563.5 27.9990234375 c 0
 563.5 25.9990234375 562.833984375 22.666015625 561.5 17.9990234375 c 0
 559.5 12.666015625 555.833984375 8.3330078125 550.5 5 c 0
 545.16796875 1.6669921875 537.5 -0.666015625 527.5 -1.9990234375 c 0
 524.833984375 -2.666015625 522.5 -2.9990234375 520.5 -2.9990234375 c 0
 511.833984375 -2.9990234375 502.166992188 -0.9990234375 491.5 3.0009765625 c 0
 474.83203125 8.333984375 454.83203125 19.6669921875 431.5 37 c 0
 407.5 54.3330078125 381.5 75.666015625 353.5 100.999023438 c 0
 325.5 126.33203125 297.5 151.999023438 269.5 177.999023438 c 0
 241.5 203.999023438 211.83203125 230.666015625 180.5 257.999023438 c 0
 149.166992188 285.33203125 122.5 306.999023438 100.5 322.999023438 c 0
 93.8330078125 328.33203125 89.5 335.665039062 87.5 344.998046875 c 0
 86.8330078125 349.665039062 86.5 354.33203125 86.5 358.999023438 c 0
 86.5 363.666015625 87.1669921875 368.333007812 88.5 373 c 0
 91.1669921875 381.666992188 95.5 388 101.5 392 c 0
 139.5 420 184.166992188 455.333007812 235.5 498 c 0
 286.83203125 540.666992188 333.5 579 375.5 613 c 0
 418.166992188 647 455.833984375 673.666992188 488.5 693 c 0
 498.5 699.666992188 507.833984375 703 516.5 703 c 0
 522.5 703 527.5 701.666992188 531.5 699 c 0
 542.833984375 693 550.833984375 684.666992188 555.5 674 c 0
 557.5 669.333007812 558.5 665 558.5 661 c 0
 557.833984375 657 556.166992188 652.666992188 553.5 648 c 0
EndSplineSet
Validated: 524289
EndChar

StartChar: equal
Encoding: 61 61 30
Width: 650
GlyphClass: 2
Flags: HMW
HStem: 256.909 63.091 452.907 66.0929
LayerCount: 2
Fore
SplineSet
178.499023438 519 m 2
 181.499023438 519 l 2
 219.499023438 517.666992188 258.499023438 517 298.499023438 517 c 0
 339.166015625 517 376.833007812 517.333007812 411.499023438 518 c 0
 446.166992188 518.666992188 467.166992188 519 474.499023438 519 c 0
 487.166992188 518.333007812 495.499023438 515.666015625 499.499023438 510.999023438 c 0
 504.166992188 506.33203125 506.833984375 499.665039062 507.500976562 490.998046875 c 0
 506.833984375 473.665039062 501.833984375 462.998046875 492.500976562 458.998046875 c 0
 489.833984375 457.665039062 486.833984375 456.998046875 483.500976562 456.998046875 c 2
 475.500976562 456.998046875 l 2
 460.166992188 457.665039062 446.166992188 457.998046875 433.500976562 457.998046875 c 2
 398.500976562 457.998046875 l 1
 288.500976562 454.998046875 l 2
 242.500976562 453.665039062 208.500976562 452.998046875 186.500976562 452.998046875 c 0
 185.166992188 452.9375 183.862304688 452.907226562 182.588867188 452.907226562 c 0
 169.862304688 452.907226562 160.166992188 455.9375 153.500976562 461.998046875 c 0
 146.166992188 467.998046875 142.500976562 475.331054688 142.500976562 483.998046875 c 2
 142.500976562 486.998046875 l 2
 143.166992188 495.665039062 146.166992188 502.998046875 151.500976562 508.998046875 c 0
 157.500976562 515.665039062 166.499023438 519 178.499023438 519 c 2
184.500976562 319.998046875 m 2
 205.833984375 319.331054688 231.166992188 318.998046875 260.499023438 318.998046875 c 0
 290.499023438 319.665039062 326.499023438 320.33203125 368.499023438 320.999023438 c 2
 474.499023438 322.999023438 l 2
 487.166992188 322.999023438 495.499023438 320.666015625 499.499023438 315.999023438 c 0
 504.166992188 310.666015625 506.833984375 303.666015625 507.500976562 294.999023438 c 0
 507.500976562 284.33203125 505.500976562 275.999023438 501.500976562 269.999023438 c 0
 498.833984375 266.666015625 495.833984375 264.333007812 492.500976562 263 c 0
 489.833984375 261.666992188 486.833984375 261 483.500976562 261 c 2
 475.500976562 261 l 2
 458.833984375 261.666992188 440.166992188 262 419.499023438 262 c 0
 398.833007812 262 354.166015625 261 285.499023438 259 c 0
 238.166015625 257.666992188 203.833007812 257 182.499023438 257 c 0
 181.225585938 256.939453125 179.986328125 256.909179688 178.779296875 256.909179688 c 0
 166.713867188 256.909179688 157.954101562 259.939453125 152.499023438 266 c 0
 145.833007812 272.666992188 142.499023438 280.666992188 142.499023438 290 c 2
 142.499023438 292 l 2
 143.166992188 300 146.499023438 306.666992188 152.499023438 312 c 0
 158.499023438 317.333007812 168.499023438 320 182.499023438 320 c 2
 184.500976562 319.998046875 l 2
EndSplineSet
Validated: 524289
EndChar

StartChar: greater
Encoding: 62 62 31
Width: 650
GlyphClass: 2
Flags: HMW
HStem: 690 20G<128.499 133.833>
LayerCount: 2
Fore
SplineSet
561.500976562 334 m 0
 558.833984375 325.333007812 554.500976562 319 548.500976562 315 c 0
 510.500976562 287 465.833984375 251.666992188 414.500976562 209 c 0
 363.16796875 166.333007812 316.500976562 128 274.500976562 94 c 0
 231.833984375 60.6669921875 194.166992188 34 161.5 14 c 0
 151.5 7.3330078125 141.833007812 4 132.5 4 c 0
 127.166992188 4 122.5 5.3330078125 118.5 8 c 0
 107.166992188 14 99.1669921875 22.3330078125 94.5 33 c 0
 92.5 37.6669921875 91.5 42 91.5 46 c 0
 91.5 50 92.8330078125 54.3330078125 95.5 59 c 0
 102.166992188 69.6669921875 116.5 82.6669921875 138.5 98 c 0
 175.833007812 124 232.5 166.666992188 308.5 226 c 0
 384.5 286 433.166992188 323.666992188 454.5 339 c 2
 464.5 347 l 1
 454.5 354 l 2
 428.5 374 399.5 398.333007812 367.5 427 c 0
 335.5 455.666992188 307.5 481.333984375 283.5 504.000976562 c 0
 259.5 527.333984375 233.5 551.000976562 205.5 575.000976562 c 0
 176.833007812 599.000976562 152.166015625 617.66796875 131.499023438 631.000976562 c 0
 110.166015625 645.000976562 96.4990234375 656.66796875 90.4990234375 666.000976562 c 0
 87.83203125 670.66796875 86.4990234375 675.334960938 86.4990234375 680.001953125 c 0
 86.4990234375 681.334960938 87.166015625 684.334960938 88.4990234375 689.001953125 c 0
 90.4990234375 694.334960938 94.166015625 698.66796875 99.4990234375 702.000976562 c 0
 104.83203125 705.333984375 112.499023438 707.666992188 122.499023438 709 c 0
 125.166015625 709.666992188 127.499023438 710 129.499023438 710 c 0
 138.166015625 710 147.833007812 708 158.5 704 c 0
 174.5 698.666992188 194.5 687.333984375 218.5 670.000976562 c 0
 242.5 652.66796875 268.5 631.334960938 296.5 606.001953125 c 0
 324.5 580.668945312 352.5 555.001953125 380.5 529.001953125 c 0
 408.5 503.001953125 438.166992188 476.334960938 469.5 449.001953125 c 0
 500.166992188 421.668945312 526.833984375 400.001953125 549.500976562 384.001953125 c 0
 556.16796875 378.668945312 560.500976562 371.3359375 562.500976562 362.002929688 c 0
 563.16796875 357.3359375 563.500976562 352.668945312 563.500976562 348.001953125 c 0
 563.500976562 343.334960938 562.833984375 338.666992188 561.500976562 334 c 0
EndSplineSet
Validated: 524289
EndChar

StartChar: question
Encoding: 63 63 32
Width: 650
GlyphClass: 2
Flags: HMW
HStem: -4.00195 134.053 646.999 64.999
VStem: 231.549 143 442.549 80.001
LayerCount: 2
Fore
SplineSet
522.55078125 522 m 0
 522.55078125 505.333007812 519.8828125 490 514.55078125 476 c 0
 509.217773438 462.666992188 502.217773438 451 493.55078125 441 c 0
 484.8828125 431 474.8828125 421.333007812 463.55078125 412 c 0
 451.55078125 403.333007812 439.55078125 394.333007812 427.55078125 385 c 0
 415.55078125 375.666992188 403.8828125 365.666992188 392.55078125 355 c 0
 381.8828125 343.666992188 372.216796875 330.333984375 363.549804688 315.000976562 c 0
 354.8828125 299.66796875 349.21484375 282.66796875 346.548828125 264.000976562 c 0
 343.881835938 248.66796875 338.548828125 237.000976562 330.548828125 229.000976562 c 0
 325.881835938 225.000976562 319.548828125 223.000976562 311.548828125 223.000976562 c 0
 307.548828125 222.333984375 303.21484375 222.666992188 298.548828125 224 c 0
 283.21484375 228 273.21484375 235 268.548828125 245 c 0
 265.881835938 250.333007812 264.548828125 256.666015625 264.548828125 263.999023438 c 0
 264.548828125 271.999023438 265.548828125 280.666015625 267.548828125 289.999023438 c 0
 272.21484375 306.666015625 278.8828125 322.666015625 287.549804688 337.999023438 c 0
 296.216796875 353.33203125 305.549804688 366.33203125 315.549804688 376.999023438 c 0
 326.216796875 388.33203125 337.216796875 398.999023438 348.549804688 408.999023438 c 0
 359.8828125 418.999023438 370.8828125 428.666015625 381.549804688 437.999023438 c 0
 392.216796875 447.33203125 402.216796875 456.999023438 411.549804688 466.999023438 c 0
 420.216796875 476.999023438 427.549804688 487.999023438 433.549804688 499.999023438 c 0
 439.549804688 511.999023438 442.549804688 524.999023438 442.549804688 538.999023438 c 0
 442.549804688 576.999023438 431.216796875 604.666015625 408.549804688 621.999023438 c 0
 387.216796875 638.666015625 356.549804688 646.999023438 316.549804688 646.999023438 c 0
 305.8828125 646.999023438 295.21484375 644.666015625 284.548828125 639.999023438 c 0
 273.881835938 635.999023438 264.881835938 630.999023438 257.548828125 624.999023438 c 0
 250.21484375 618.999023438 242.548828125 611.33203125 234.548828125 601.999023438 c 0
 225.881835938 591.999023438 219.548828125 583.999023438 215.548828125 577.999023438 c 0
 211.548828125 571.999023438 206.548828125 564.666015625 200.548828125 555.999023438 c 0
 194.548828125 547.33203125 189.548828125 540.999023438 185.548828125 536.999023438 c 0
 181.548828125 533.666015625 177.548828125 531.666015625 173.548828125 530.999023438 c 2
 167.548828125 530.999023438 l 2
 165.548828125 530.999023438 162.881835938 531.33203125 159.548828125 531.999023438 c 0
 156.21484375 532.666015625 150.8828125 534.666015625 143.549804688 537.999023438 c 0
 135.549804688 542.666015625 130.549804688 548.999023438 128.548828125 556.999023438 c 0
 127.869140625 559.040039062 127.44921875 562.078125 127.44921875 566.469726562 c 0
 127.44921875 574.08984375 130.150390625 583.599609375 135.549804688 594.999023438 c 0
 150.216796875 622.33203125 171.216796875 647.665039062 198.549804688 670.998046875 c 0
 213.216796875 683.665039062 230.549804688 693.665039062 250.549804688 700.998046875 c 0
 270.549804688 708.331054688 291.216796875 711.998046875 312.549804688 711.998046875 c 0
 381.8828125 711.998046875 434.21484375 696.331054688 469.548828125 664.998046875 c 0
 504.881835938 633.665039062 522.55078125 586 522.55078125 522 c 0
303.548828125 -4.001953125 m 2
 294.549804688 -4.001953125 l 2
 293.63671875 -4.037109375 292.732421875 -4.0546875 291.8359375 -4.0546875 c 0
 275.71484375 -4.0546875 262.287109375 1.6298828125 251.55078125 12.998046875 c 0
 238.217773438 27.6650390625 231.55078125 44.6650390625 231.55078125 63.998046875 c 0
 231.55078125 81.3310546875 238.8828125 96.3310546875 253.55078125 108.998046875 c 0
 269.55078125 122.998046875 288.217773438 129.998046875 309.55078125 129.998046875 c 0
 310.498046875 130.033203125 311.4375 130.05078125 312.3671875 130.05078125 c 0
 329.12109375 130.05078125 343.181640625 124.366210938 354.549804688 112.998046875 c 0
 367.8828125 100.331054688 374.549804688 84.6640625 374.549804688 65.9970703125 c 0
 374.549804688 47.330078125 368.216796875 31.6630859375 355.549804688 18.99609375 c 0
 342.216796875 6.3291015625 324.881835938 -1.3349609375 303.548828125 -4.001953125 c 2
EndSplineSet
Validated: 524289
EndChar

StartChar: at
Encoding: 64 64 33
Width: 650
GlyphClass: 2
Flags: HMW
HStem: -120 66.0049 111.004 59 127.005 61.002 391.008 56.998 623.005 69.9971
VStem: 76.4985 67.0049 199.501 58.0029 381.504 61.001 519.505 53.9971
LayerCount: 2
Fore
SplineSet
523.5 9 m 0xdf80
 520.166992188 -0.3330078125 516.5 -8.3330078125 512.5 -15 c 0
 509.166992188 -22.3330078125 504.5 -30.666015625 498.5 -39.9990234375 c 0
 492.5 -49.9990234375 486.166992188 -58.33203125 479.5 -64.9990234375 c 0
 472.83203125 -71.666015625 464.166015625 -78.666015625 453.499023438 -85.9990234375 c 0
 443.499023438 -93.33203125 432.166015625 -99.33203125 419.499023438 -103.999023438 c 0
 406.83203125 -108.666015625 392.1640625 -112.333007812 375.498046875 -115 c 0
 358.831054688 -118.333007812 341.498046875 -120 323.498046875 -120 c 2
 317.498046875 -120 l 2
 284.1640625 -120 252.83203125 -111.666992188 223.499023438 -95 c 0
 193.499023438 -78.3330078125 167.83203125 -55 146.499023438 -25 c 0
 125.166015625 5 108.166015625 41.6669921875 95.498046875 85 c 0
 82.83203125 129 76.498046875 176.666992188 76.498046875 228 c 0
 77.166015625 286 81.83203125 340 90.5 390 c 0
 99.83203125 440.666992188 112.5 484.333984375 128.5 521.000976562 c 0
 144.5 557.66796875 163.5 589.000976562 185.5 615.000976562 c 0
 206.83203125 641.66796875 230.5 661.334960938 256.5 674.001953125 c 0
 282.5 686.668945312 309.83203125 693.001953125 338.5 693.001953125 c 0
 360.5 693.001953125 380.166992188 691.334960938 397.5 688.001953125 c 0
 415.5 684.668945312 432.5 679.001953125 448.5 671.001953125 c 0
 464.5 663.001953125 478.5 652.334960938 490.5 639.001953125 c 0
 503.166992188 625.668945312 514.833984375 609.001953125 525.5 589.001953125 c 0
 536.16796875 569.001953125 544.834960938 545.334960938 551.501953125 518.001953125 c 0
 566.16796875 458.668945312 573.501953125 383.3359375 573.501953125 292.002929688 c 0
 572.834960938 244.669921875 565.834960938 203.336914062 552.501953125 168.00390625 c 0
 545.834960938 150.00390625 536.501953125 136.00390625 524.501953125 126.00390625 c 0
 513.16796875 116.00390625 499.501953125 111.00390625 483.501953125 111.00390625 c 0xdf80
 460.16796875 111.670898438 442.501953125 119.337890625 430.501953125 134.004882812 c 0
 420.501953125 146.004882812 414.16796875 163.671875 411.501953125 187.004882812 c 2
 407.501953125 232.004882812 l 1
 392.501953125 189.00390625 l 2
 385.834960938 170.336914062 377.16796875 156.004882812 366.5 146.004882812 c 0
 353.833984375 133.337890625 336.833984375 127.004882812 315.5 127.004882812 c 0
 278.833984375 127.671875 250.5 139.338867188 230.5 162.005859375 c 0
 209.833984375 184.672851562 199.5 220.005859375 199.5 268.005859375 c 0
 199.5 292.005859375 202.16796875 314.338867188 207.5 335.005859375 c 0
 212.833984375 355.672851562 220.166992188 373.005859375 229.5 387.005859375 c 0
 238.83203125 400.338867188 249.5 412.005859375 261.5 422.005859375 c 0
 274.166992188 432.005859375 286.833984375 439.005859375 299.5 443.005859375 c 0
 312.16796875 446.338867188 324.834960938 448.005859375 337.501953125 448.005859375 c 0
 355.501953125 448.005859375 372.834960938 444.672851562 389.501953125 438.005859375 c 0
 403.501953125 432.672851562 414.501953125 425.672851562 422.501953125 417.005859375 c 0
 427.16796875 411.672851562 429.501953125 407.33984375 429.501953125 404.006835938 c 0
 429.501953125 402.673828125 429.16796875 401.340820312 428.501953125 400.0078125 c 0
 424.501953125 392.0078125 419.501953125 387.0078125 413.501953125 385.0078125 c 0
 406.834960938 383.0078125 401.834960938 382.0078125 398.501953125 382.0078125 c 0
 393.16796875 382.674804688 385.8359375 384.0078125 376.502929688 386.0078125 c 2
 361.502929688 389.0078125 l 2
 355.502929688 390.340820312 349.8359375 391.0078125 344.502929688 391.0078125 c 2
 332.502929688 391.0078125 l 2
 323.169921875 390.340820312 313.8359375 387.0078125 304.50390625 381.0078125 c 0
 295.170898438 375.0078125 287.170898438 367.674804688 280.50390625 359.0078125 c 0
 273.170898438 351.0078125 267.50390625 340.005859375 263.50390625 326.005859375 c 0
 259.50390625 312.005859375 257.50390625 296.674804688 257.50390625 280.0078125 c 0
 257.50390625 271.340820312 258.170898438 262.673828125 259.50390625 254.006835938 c 0
 260.170898438 246.006835938 262.170898438 236.670898438 265.50390625 226.00390625 c 0
 268.8359375 215.336914062 274.50390625 206.33984375 282.50390625 199.006835938 c 0
 290.50390625 191.673828125 300.50390625 188.006835938 312.50390625 188.006835938 c 0xbf80
 337.170898438 188.006835938 354.837890625 198.006835938 365.50390625 218.006835938 c 0
 374.837890625 235.33984375 380.170898438 263.672851562 381.50390625 303.005859375 c 0
 382.170898438 309.672851562 388.837890625 315.672851562 401.50390625 321.005859375 c 0
 411.50390625 324.338867188 420.171875 326.005859375 427.50390625 326.005859375 c 0
 432.171875 326.005859375 436.502929688 325.338867188 440.502929688 324.005859375 c 0
 444.502929688 322.005859375 446.50390625 319.672851562 446.50390625 317.005859375 c 2
 446.50390625 315.005859375 l 2
 443.837890625 290.338867188 442.50390625 269.671875 442.50390625 253.004882812 c 0
 442.50390625 244.337890625 442.837890625 236.670898438 443.50390625 230.00390625 c 0
 446.171875 208.670898438 450.171875 193.670898438 455.50390625 185.00390625 c 0
 462.171875 175.00390625 471.501953125 170.00390625 483.501953125 170.00390625 c 0
 493.501953125 170.00390625 501.171875 176.336914062 506.50390625 189.00390625 c 0
 510.50390625 199.00390625 513.50390625 211.336914062 515.50390625 226.00390625 c 0
 518.171875 250.670898438 519.50390625 273.670898438 519.50390625 295.00390625 c 0
 519.50390625 329.670898438 518.171875 361.333007812 515.50390625 390 c 0
 512.171875 419.333007812 508.170898438 444.337890625 503.50390625 465.004882812 c 0
 498.8359375 486.337890625 492.8359375 505.337890625 485.50390625 522.004882812 c 0
 478.170898438 539.337890625 470.838867188 553.337890625 463.505859375 564.004882812 c 0
 456.171875 574.671875 447.505859375 584.004882812 437.505859375 592.004882812 c 0
 427.505859375 599.337890625 418.834960938 605.004882812 411.501953125 609.004882812 c 0
 404.16796875 613.671875 395.505859375 617.004882812 385.505859375 619.004882812 c 0
 375.505859375 621.004882812 368.171875 622.004882812 363.505859375 622.004882812 c 0
 358.838867188 622.671875 353.171875 623.004882812 346.50390625 623.004882812 c 0
 317.837890625 622.337890625 291.170898438 613.337890625 266.50390625 596.004882812 c 0
 241.8359375 578.671875 220.50390625 554.671875 202.50390625 524.004882812 c 0
 184.50390625 492.671875 170.170898438 454.671875 159.50390625 410.004882812 c 0
 148.8359375 365.337890625 143.50390625 316.670898438 143.50390625 264.00390625 c 0
 144.170898438 218.00390625 147.837890625 176.670898438 154.50390625 140.00390625 c 0
 161.837890625 102.670898438 171.170898438 72.337890625 182.50390625 49.0048828125 c 0
 193.8359375 25.671875 207.499023438 6.0048828125 223.499023438 -9.9951171875 c 0
 238.83203125 -25.9951171875 254.8359375 -37.328125 271.50390625 -43.9951171875 c 0
 288.170898438 -50.662109375 305.498046875 -53.9951171875 323.498046875 -53.9951171875 c 0
 340.831054688 -53.9951171875 357.169921875 -52.328125 372.502929688 -48.9951171875 c 0
 387.8359375 -45.662109375 400.502929688 -41.3291015625 410.502929688 -35.99609375 c 0
 421.169921875 -30.6630859375 431.169921875 -23.6669921875 440.502929688 -15 c 0
 449.169921875 -7 456.169921875 0.6708984375 461.502929688 8.00390625 c 0
 466.169921875 15.3369140625 471.8359375 24.3369140625 478.50390625 35.00390625 c 0
 481.170898438 39.6708984375 483.50390625 43.337890625 485.50390625 46.0048828125 c 0
 487.50390625 48.0048828125 489.50390625 50.671875 491.50390625 54.0048828125 c 0
 494.170898438 57.337890625 496.170898438 59.6708984375 497.50390625 61.00390625 c 2
 503.50390625 64.00390625 l 2
 506.170898438 66.00390625 509.837890625 66.00390625 514.50390625 64.00390625 c 0
 521.837890625 61.3369140625 526.837890625 57.00390625 529.50390625 51.00390625 c 0
 530.837890625 48.3369140625 531.50390625 45.669921875 531.50390625 43.0029296875 c 0
 531.50390625 34.3359375 528.83203125 23 523.5 9 c 0xdf80
EndSplineSet
Validated: 524289
EndChar

StartChar: A
Encoding: 65 65 34
Width: 650
GlyphClass: 2
Flags: HMW
HStem: 271 50.998
VStem: 77.4985 72.001
LayerCount: 2
Fore
SplineSet
360.5 606.997070312 m 2
 333.16796875 561.6640625 294.16796875 466.331054688 243.5 320.998046875 c 2
 238.5 305.998046875 l 1
 252.5 307.998046875 l 2
 315.16796875 315.998046875 370.834960938 320.665039062 419.501953125 321.998046875 c 2
 430.501953125 321.998046875 l 1
 372.501953125 626.998046875 l 1
 360.5 606.997070312 l 2
492.5 53.9990234375 m 0
 484.5 74.666015625 467.5 147 441.5 271 c 0
 439.5 277.666992188 437.166992188 277.666992188 434.5 271 c 1
 355.166992188 267 282.166992188 259.33203125 215.5 247.999023438 c 1
 193.5 189.33203125 171.5 124.333007812 149.5 53 c 0
 144.166992188 35 136.5 23.330078125 126.5 17.9970703125 c 0
 121.166015625 15.330078125 116.166015625 13.9970703125 111.5 13.9970703125 c 0
 106.83203125 13.9970703125 102.166015625 14.9970703125 97.498046875 16.9970703125 c 0
 84.166015625 22.330078125 77.498046875 34.3330078125 77.498046875 53 c 0
 77.498046875 61 78.83203125 70.3330078125 81.498046875 81 c 0
 86.166015625 104.333007812 106.166015625 158.666015625 141.499023438 243.999023438 c 1
 138.83203125 251.999023438 136.499023438 253.33203125 134.499023438 247.999023438 c 1
 125.83203125 253.999023438 121.498046875 260.999023438 121.498046875 268.999023438 c 2
 121.498046875 269.999023438 l 2
 120.83203125 275.999023438 123.83203125 281.999023438 130.499023438 287.999023438 c 0
 139.166015625 295.33203125 149.83203125 300.999023438 162.5 304.999023438 c 1
 163.83203125 311.666015625 165.166015625 311.998046875 166.499023438 305.998046875 c 1
 245.166015625 499.331054688 304.83203125 627.665039062 345.5 690.998046875 c 0
 354.166992188 703.665039062 361.333984375 712.498046875 367 717.498046875 c 0
 372.66796875 722.498046875 378.834960938 724.998046875 385.501953125 724.998046875 c 2
 386.501953125 724.998046875 l 1
 392.501953125 724.998046875 l 2
 399.834960938 724.998046875 406.834960938 722.998046875 413.501953125 718.998046875 c 0
 420.16796875 714.998046875 424.501953125 706.998046875 426.501953125 694.998046875 c 0
 439.834960938 612.331054688 462.834960938 494.998046875 495.501953125 342.998046875 c 0
 528.16796875 190.331054688 551.16796875 102.331054688 564.501953125 78.998046875 c 0
 569.834960938 69.6650390625 572.501953125 61.33203125 572.501953125 53.9990234375 c 0
 571.834960938 53.33203125 571.501953125 52.33203125 571.501953125 50.9990234375 c 0
 570.834960938 42.33203125 568.334960938 35.1650390625 564.001953125 29.498046875 c 0
 559.66796875 23.8310546875 554.501953125 19.6640625 548.501953125 16.9970703125 c 0
 543.834960938 14.9970703125 539.16796875 13.9970703125 534.5 13.9970703125 c 0
 529.16796875 13.9970703125 523.834960938 15.330078125 518.501953125 17.9970703125 c 0
 507.834960938 23.330078125 499.166992188 35.33203125 492.5 53.9990234375 c 0
EndSplineSet
Validated: 524289
EndChar

StartChar: B
Encoding: 66 66 35
Width: 650
GlyphClass: 2
Flags: HMW
HStem: -20.3672 79.3672 307 51.999 640.002 49.998
VStem: 101.5 77.7998 105.5 82.999 436.5 72.001 470.502 79.998
LayerCount: 2
Fore
SplineSet
422.497070312 260.001953125 m 0xea
 408.497070312 269.334960938 389.330078125 278.16796875 364.997070312 286.500976562 c 0
 340.6640625 294.833984375 312.831054688 301.666992188 281.498046875 307 c 1
 280.498046875 307 l 2
 235.165039062 307 201.83203125 306.666992188 180.499023438 306 c 1
 183.83203125 192 186.499023438 109 188.499023438 57 c 1
 201.83203125 58.3330078125 216.499023438 59 232.499023438 59 c 0
 248.499023438 59.6669921875 260.499023438 60 268.499023438 60 c 0
 297.166015625 61.3330078125 324.333007812 66.666015625 350 75.9990234375 c 0
 375.666992188 85.33203125 396.833984375 96.9990234375 413.500976562 110.999023438 c 0
 430.16796875 124.33203125 443.834960938 138.83203125 454.501953125 154.499023438 c 0
 465.168945312 170.166015625 470.501953125 184.999023438 470.501953125 198.999023438 c 0
 470.501953125 219.666015625 454.497070312 240.001953125 422.497070312 260.001953125 c 0xea
191.5 626.999023438 m 2
 184.5 624.999023438 l 1
 184.5 607.666015625 183.833007812 584.999023438 182.5 556.999023438 c 0
 180.366210938 503.668945312 179.299804688 451.40625 179.299804688 400.209960938 c 0
 179.299804688 387.40625 179.366210938 374.668945312 179.5 361.999023438 c 1
 215.5 359.999023438 246.5 358.999023438 272.5 358.999023438 c 0
 291.833007812 358.999023438 309.333007812 360.83203125 325 364.499023438 c 0
 340.666992188 368.166015625 354.166992188 372.833007812 365.5 378.5 c 0
 376.833007812 384.166992188 386.833007812 391.166992188 395.5 399.5 c 0
 404.166992188 407.833007812 410.833007812 416.333007812 415.5 425 c 0
 420.166992188 433.666992188 424.16796875 443 427.500976562 453 c 0
 430.833984375 463 433.166992188 472.333007812 434.5 481 c 0
 435.833007812 489.666992188 436.5 498.333984375 436.5 507.000976562 c 0xf4
 435.833007812 525.66796875 432.166015625 543.000976562 425.499023438 559.000976562 c 0
 418.83203125 575.000976562 410.165039062 587.833984375 399.498046875 597.500976562 c 0
 388.831054688 607.16796875 377.1640625 615.334960938 364.497070312 622.001953125 c 0
 341.830078125 634.001953125 317.830078125 640.001953125 292.497070312 640.001953125 c 0
 258.497070312 640.001953125 224.833007812 635.666015625 191.5 626.999023438 c 2
532.001953125 130 m 0
 519.668945312 106.666992188 501.666015625 84.833984375 477.999023438 64.5009765625 c 0
 454.33203125 44.16796875 425.166992188 27.0009765625 390.5 13.0009765625 c 0
 356.5 -0.9990234375 318.833007812 -9.9990234375 277.5 -13.9990234375 c 1
 257.81640625 -20.3671875 l 2
 253.044921875 -20.3671875 248.2734375 -19.244140625 243.501953125 -16.9990234375 c 2
 224.974609375 -23.3671875 l 2
 220.483398438 -23.3671875 215.9921875 -22.244140625 211.500976562 -19.9990234375 c 0
 191.500976562 -21.9990234375 175.833984375 -22.9990234375 164.500976562 -22.9990234375 c 0
 157.16796875 -22.9990234375 150.16796875 -22.33203125 143.500976562 -20.9990234375 c 2
 139.500976562 -20.9990234375 l 2
 128.833984375 -21.666015625 120.166992188 -18.3330078125 113.5 -11 c 0
 108.166992188 -5 105.5 3.3330078125 105.5 14 c 2
 105.5 19 l 2xea
 106.833007812 39.6669921875 107.5 74.333984375 107.5 123.000976562 c 0
 107.5 213.66796875 105.5 314.000976562 101.5 424.000976562 c 0
 100.166992188 468.66796875 99.5 498.500976562 99.5 513.500976562 c 0
 99.5 528.500976562 100.166992188 549.000976562 101.5 575.000976562 c 0
 102.833007812 601.000976562 103.5 619.000976562 103.5 629.000976562 c 0
 104.166992188 644.333984375 108.333984375 655.666992188 116.000976562 663 c 0
 123.66796875 670.333007812 132.833984375 674 143.500976562 674 c 2
 147.501953125 674 l 1
 148.501953125 674 l 2
 159.834960938 677.333007812 171.166992188 680 182.5 682 c 0
 204.5 686 224.500976562 688.333007812 242.500976562 689 c 0
 252.500976562 689.666992188 260.16796875 690 265.500976562 690 c 2
 284.500976562 690 l 1
 294.500976562 690 l 2
 334.500976562 690 369.833984375 682 400.500976562 666 c 0
 432.500976562 650 458.500976562 626.833007812 478.500976562 596.5 c 0
 498.500976562 566.166992188 508.500976562 530 508.500976562 488 c 0xf4
 508.500976562 452.666992188 500.16796875 422.333984375 483.500976562 397.000976562 c 0
 466.833984375 371.66796875 444.166992188 353.000976562 415.5 341.000976562 c 1
 407.5 331.000976562 399.833007812 327.66796875 392.5 331.000976562 c 1
 400.5 321.000976562 408.166992188 318.000976562 415.5 322.000976562 c 1
 436.166992188 314.66796875 457 304.16796875 478 290.500976562 c 0
 499 276.833984375 516.333007812 261.666992188 530 245 c 0
 543.666992188 228.333007812 550.5 213.666015625 550.5 200.999023438 c 2
 550.5 198.999023438 l 2xe2
 550.5 176.33203125 544.334960938 153.333007812 532.001953125 130 c 0
EndSplineSet
Validated: 524289
EndChar

StartChar: C
Encoding: 67 67 36
Width: 650
GlyphClass: 2
Flags: HMW
HStem: -30.999 72.001 650.002 62.999
VStem: 86.999 80.999 480 83.001
LayerCount: 2
Fore
SplineSet
550 553.5 m 0
 541.333007812 541.166992188 533 534.333984375 525 533.000976562 c 2
 519 533.000976562 l 2
 511 533.000976562 502.666992188 535.66796875 494 541.000976562 c 0
 484.666992188 547.66796875 480 556.334960938 480 567.001953125 c 0
 480 572.334960938 480.666992188 588.334960938 482 615.001953125 c 1
 466.666992188 625.668945312 457.666992188 632.001953125 455 634.001953125 c 0
 452.333007812 636.001953125 448.333007812 638.334960938 443 641.001953125 c 0
 433 647.001953125 422.666992188 650.001953125 412 650.001953125 c 0
 391.333007812 650.001953125 369.5 642.668945312 346.5 628.001953125 c 0
 323.5 613.334960938 301.666992188 593.001953125 281 567.001953125 c 0
 260.333007812 541.001953125 241.666015625 511.334960938 224.999023438 478.001953125 c 0
 208.33203125 444.001953125 194.665039062 406.001953125 183.998046875 364.001953125 c 0
 173.331054688 322.001953125 167.998046875 279.668945312 167.998046875 237.001953125 c 0
 167.998046875 205.001953125 173.998046875 174.168945312 185.998046875 144.501953125 c 0
 197.998046875 114.834960938 214.665039062 90.001953125 235.998046875 70.001953125 c 0
 256.665039062 50.6689453125 279.665039062 41.001953125 304.998046875 41.001953125 c 0
 325.665039062 41.001953125 345.665039062 43.3349609375 364.998046875 48.001953125 c 0
 384.331054688 52.6689453125 401.831054688 58.8359375 417.498046875 66.5029296875 c 0
 433.165039062 74.169921875 446.998046875 81.669921875 458.998046875 89.0029296875 c 0
 470.331054688 96.3359375 481.331054688 104.3359375 491.998046875 113.002929688 c 0
 499.998046875 118.3359375 506.831054688 122.3359375 512.498046875 125.002929688 c 0
 518.165039062 127.669921875 523.998046875 129.002929688 529.998046875 129.002929688 c 0
 535.331054688 129.002929688 540.331054688 127.3359375 544.998046875 124.002929688 c 0
 553.665039062 117.3359375 557.998046875 109.668945312 557.998046875 101.001953125 c 0
 557.998046875 90.3349609375 551.665039062 77.66796875 538.998046875 63.0009765625 c 0
 484.998046875 0.333984375 405.998046875 -30.9990234375 301.998046875 -30.9990234375 c 2
 293.998046875 -30.9990234375 l 2
 269.998046875 -30.9990234375 247.331054688 -26.666015625 225.998046875 -17.9990234375 c 0
 203.998046875 -8.666015625 184.665039062 3.6669921875 167.998046875 19 c 0
 151.331054688 34.3330078125 136.831054688 52 124.498046875 72 c 0
 112.165039062 92 102.83203125 113.333007812 96.4990234375 136 c 0
 90.166015625 158.666992188 86.9990234375 181.333984375 86.9990234375 204.000976562 c 0
 86.9990234375 252.66796875 91.9990234375 300.16796875 101.999023438 346.500976562 c 0
 111.999023438 392.833984375 125.33203125 434.333984375 141.999023438 471.000976562 c 0
 158.666015625 507.66796875 178.333007812 541.334960938 201 572.001953125 c 0
 221.666992188 603.334960938 243.5 629.16796875 266.5 649.500976562 c 0
 289.5 669.833984375 312.833007812 685.500976562 336.5 696.500976562 c 0
 360.166992188 707.500976562 383 713.000976562 405 713.000976562 c 0
 427 713.000976562 447.666992188 710.333984375 467 705.000976562 c 1
 469.666992188 710.333984375 472.666992188 709.333984375 476 702.000976562 c 1
 477.333007812 712.000976562 478.333007812 715.333984375 479 712.000976562 c 1
 481 720.000976562 485 726.66796875 491 732.000976562 c 0
 497 736.66796875 503.666992188 739.334960938 511 740.001953125 c 0
 514.333007812 740.668945312 516.333007812 741.001953125 517 741.001953125 c 0
 523.666992188 741.001953125 530.666992188 738.668945312 538 734.001953125 c 0
 546.666992188 728.668945312 552.333984375 720.3359375 555.000976562 709.002929688 c 0
 560.333984375 683.669921875 563.000976562 656.668945312 563.000976562 628.001953125 c 2
 563.000976562 591.002929688 l 2
 563.000976562 578.3359375 558.666992188 565.833007812 550 553.5 c 0
EndSplineSet
Validated: 524289
EndChar

StartChar: D
Encoding: 68 68 37
Width: 650
GlyphClass: 2
Flags: HMW
HStem: -31 75.999 675 20G<121.834 138.167>
VStem: 84.5014 77.7113 488.503 76.9953
LayerCount: 2
Fore
SplineSet
339.498046875 551 m 0
 305.498046875 574.333007812 256.498046875 598.666015625 192.498046875 623.999023438 c 1
 191.498046875 624.999023438 l 1
 190.498046875 624.999023438 l 1
 189.498046875 625.999023438 l 1
 188.498046875 625.999023438 l 1
 187.498046875 625.999023438 l 1
 187.498046875 626.999023438 l 1
 186.498046875 626.999023438 l 1
 185.498046875 626.999023438 l 1
 184.498046875 626.999023438 l 1
 184.498046875 627.999023438 l 1
 183.498046875 627.999023438 l 1
 182.498046875 627.999023438 l 1
 181.498046875 627.999023438 l 1
 181.498046875 628.999023438 l 1
 180.498046875 628.999023438 l 1
 179.498046875 628.999023438 l 1
 178.49609375 629.999023438 l 1
 177.498046875 629.999023438 l 1
 164.498046875 643.999023438 l 1
 163.498046875 620.999023438 l 2
 162.640625 583.283203125 162.212890625 546.118164062 162.212890625 509.50390625 c 0
 162.212890625 460.689453125 162.974609375 412.854492188 164.498046875 365.999023438 c 0
 165.831054688 324.666015625 167.1640625 275.166015625 168.498046875 217.499023438 c 0
 169.830078125 159.83203125 171.163085938 114.33203125 172.49609375 80.9990234375 c 1
 178.49609375 78.9990234375 l 2
 205.830078125 66.33203125 233.49609375 57.4990234375 261.49609375 52.4990234375 c 0
 289.49609375 47.4990234375 321.49609375 44.9990234375 357.49609375 44.9990234375 c 0
 376.830078125 44.9990234375 394.830078125 51.83203125 411.49609375 65.4990234375 c 0
 428.163085938 79.166015625 441.830078125 96.3330078125 452.498046875 117 c 0
 463.830078125 137.666992188 472.663085938 160.166992188 478.99609375 184.5 c 0
 488.458984375 220.85546875 488.502929688 247.245117188 488.502929688 258.552734375 c 0
 488.502929688 385.967773438 438.8359375 483.450195312 339.498046875 551 c 0
556.501953125 152.5 m 0
 550.501953125 128.833007812 541.169921875 106 528.501953125 84 c 0
 515.834960938 62 501.16796875 42.5 484.501953125 25.5 c 0
 467.833984375 8.5 448.501953125 -5.3330078125 426.501953125 -16 c 0
 405.16796875 -26 382.501953125 -31 358.501953125 -31 c 2
 349.501953125 -31 l 2
 322.16796875 -31 294.66796875 -29.6669921875 267.001953125 -27 c 0
 239.333984375 -24.3330078125 216.833984375 -21 199.501953125 -17 c 0
 181.501953125 -12.3330078125 165.333984375 -8.3330078125 151.001953125 -5 c 0
 136.66796875 -1.6669921875 127.8359375 0 124.501953125 0 c 0
 113.8359375 0 105.16796875 3.3330078125 98.501953125 10 c 0
 92.501953125 16 89.501953125 24.3330078125 89.501953125 35 c 2
 89.501953125 41 l 2
 91.501953125 65 92.501953125 102.333007812 92.501953125 153 c 0
 91.833984375 243.666992188 89.501953125 351.666992188 85.501953125 477 c 0
 84.833984375 514.333007812 84.501953125 538.833007812 84.501953125 550.5 c 0
 84.501953125 562.166992188 85.001953125 580.333984375 86.001953125 605.000976562 c 0
 87.001953125 629.66796875 87.501953125 644.66796875 87.501953125 650.000976562 c 0
 88.16796875 665.333984375 92.16796875 676.666992188 99.501953125 684 c 0
 106.833984375 691.333007812 116.16796875 695 127.5 695 c 0
 148.833984375 695 176.166015625 691.666992188 209.499023438 685 c 0
 228.83203125 681 248.499023438 675.5 268.499023438 668.5 c 0
 288.499023438 661.5 310.166015625 651.833007812 333.499023438 639.5 c 0
 356.83203125 627.166992188 378.83203125 612.666992188 399.499023438 596 c 0
 420.166015625 579.333007812 440.499023438 559 460.499023438 535 c 0
 481.83203125 511 500.166015625 484.5 515.498046875 455.5 c 0
 530.831054688 426.5 542.998046875 391.833007812 551.998046875 351.5 c 0
 560.998046875 311.166992188 565.498046875 267.666992188 565.498046875 221 c 0
 565.498046875 199 562.501953125 176.166992188 556.501953125 152.5 c 0
EndSplineSet
Validated: 524289
EndChar

StartChar: E
Encoding: 69 69 38
Width: 650
GlyphClass: 2
Flags: HMW
HStem: -20 68.0039<206.124 266.796> -6 71.0039<492.791 524.796 500.458 524.796> 312.004 65.998 332.004 61.999 615.002 63.999
VStem: 98.4573 76.0039
LayerCount: 2
Fore
SplineSet
513.45703125 -6 m 2x4c
 500.45703125 -6 l 2x4c
 485.124023438 -6 460.124023438 -7 425.45703125 -9 c 0
 324.790039062 -16.3330078125 255.123046875 -20 216.456054688 -20 c 0
 195.7890625 -20 178.456054688 -19.3330078125 164.456054688 -18 c 0
 151.123046875 -17.3330078125 137.623046875 -10.666015625 123.956054688 2.0009765625 c 0
 110.2890625 14.66796875 102.456054688 30.00390625 100.456054688 48.00390625 c 0
 98.4560546875 64.00390625 97.4560546875 91.333984375 97.4560546875 130.000976562 c 0
 97.4560546875 168.66796875 97.7890625 210.66796875 98.4560546875 256.000976562 c 2
 98.4560546875 343.500976562 l 2
 98.4560546875 370.500976562 97.7890625 408.000976562 96.4560546875 456.000976562 c 0
 95.7890625 496.000976562 95.4560546875 522.333984375 95.4560546875 535.000976562 c 0
 95.4560546875 547.66796875 95.9560546875 566.500976562 96.9560546875 591.500976562 c 0
 97.9560546875 616.500976562 98.4560546875 632.333984375 98.4560546875 639.000976562 c 0
 99.123046875 654.333984375 103.290039062 665.833984375 110.95703125 673.500976562 c 0
 118.624023438 681.16796875 127.791015625 685.000976562 138.458007812 685.000976562 c 1
 139.125 678.333984375 140.125 678.333984375 141.458007812 685.000976562 c 1
 154.125 684.333984375 163.791992188 679.666992188 170.458984375 671 c 0
 171.791992188 663.666992188 173.126953125 662.333984375 174.459960938 667.000976562 c 1
 176.459960938 661.000976562 178.458007812 661.333984375 180.458007812 668.000976562 c 1
 231.125 675.333984375 294.791992188 679.000976562 371.458984375 679.000976562 c 0
 392.791992188 679.000976562 411.791992188 678.66796875 428.458984375 678.000976562 c 0
 467.125976562 676.000976562 497.79296875 673.666992188 520.459960938 671 c 0
 534.459960938 669.666992188 543.626953125 666.834960938 547.959960938 662.501953125 c 0
 552.29296875 658.168945312 554.459960938 652.001953125 554.459960938 644.001953125 c 0
 554.459960938 626.668945312 549.79296875 616.001953125 540.459960938 612.001953125 c 0
 536.459960938 610.001953125 532.959960938 609.168945312 529.959960938 609.501953125 c 0
 526.959960938 609.834960938 524.459960938 610.001953125 522.459960938 610.001953125 c 0
 475.79296875 613.334960938 430.459960938 615.001953125 386.459960938 615.001953125 c 0
 371.126953125 615.001953125 355.793945312 614.668945312 340.4609375 614.001953125 c 0
 282.4609375 612.668945312 231.4609375 608.668945312 187.4609375 602.001953125 c 1
 184.793945312 595.334960938 182.126953125 595.001953125 179.459960938 601.001953125 c 1
 176.126953125 525.668945312 174.459960938 454.668945312 174.459960938 388.001953125 c 2
 174.459960938 378.001953125 l 1xac
 227.79296875 378.668945312 293.125976562 381.3359375 370.458984375 386.002929688 c 0
 450.458984375 391.3359375 495.458984375 394.002929688 505.458984375 394.002929688 c 0
 518.125976562 394.002929688 526.79296875 391.502929688 531.459960938 386.502929688 c 0
 536.126953125 381.502929688 538.459960938 374.669921875 538.459960938 366.002929688 c 0
 538.459960938 354.669921875 536.459960938 346.336914062 532.459960938 341.00390625 c 0
 527.126953125 335.00390625 518.293945312 332.00390625 505.9609375 332.00390625 c 0x1c
 493.627929688 332.00390625 444.4609375 328.670898438 358.4609375 322.00390625 c 0
 274.4609375 315.336914062 216.4609375 312.00390625 184.4609375 312.00390625 c 1
 181.793945312 304.670898438 178.793945312 304.337890625 175.4609375 311.004882812 c 1
 175.4609375 284.337890625 175.793945312 247.670898438 176.4609375 201.00390625 c 0
 176.4609375 172.336914062 176.793945312 149.00390625 177.4609375 131.00390625 c 0
 178.793945312 93.00390625 181.4609375 68.6708984375 185.4609375 58.00390625 c 0
 186.127929688 50.00390625 186.793945312 48.6708984375 187.4609375 54.00390625 c 1
 189.4609375 47.3369140625 191.12890625 47.00390625 192.461914062 53.00390625 c 1
 203.12890625 49.6708984375 224.12890625 48.00390625 255.461914062 48.00390625 c 0xac
 278.12890625 48.00390625 306.4609375 48.6708984375 340.4609375 50.00390625 c 0
 421.793945312 54.00390625 475.124023438 58.3369140625 500.45703125 63.00390625 c 0
 509.124023438 64.3369140625 516.294921875 65.00390625 521.961914062 65.00390625 c 0x4c
 527.62890625 65.00390625 532.461914062 64.00390625 536.461914062 62.00390625 c 0
 540.461914062 60.00390625 543.461914062 58.00390625 545.461914062 56.00390625 c 0
 547.461914062 54.00390625 549.12890625 51.3369140625 550.461914062 48.00390625 c 0x8c
 551.794921875 44.6708984375 552.794921875 41.837890625 553.461914062 39.5048828125 c 0
 554.12890625 37.171875 554.459960938 34.3388671875 554.459960938 31.005859375 c 0
 555.126953125 20.3388671875 551.795898438 11.005859375 544.462890625 3.005859375 c 0
 539.129882812 -3.6611328125 530.796875 -6.994140625 519.463867188 -6.994140625 c 0
 517.463867188 -6.3271484375 515.45703125 -6 513.45703125 -6 c 2x4c
EndSplineSet
Validated: 524289
EndChar

StartChar: F
Encoding: 70 70 39
Width: 650
GlyphClass: 2
Flags: HMW
HStem: 310.003 62 323.003 64.999 619.002 67.998 675.001 20G
VStem: 96.997 77.8028 100.997 84.001
LayerCount: 2
Fore
SplineSet
522.001953125 682 m 0x28
 535.334960938 680.666992188 544.001953125 677.833007812 548.001953125 673.5 c 0
 552.001953125 669.166992188 554.334960938 662.666992188 555.001953125 654 c 0
 555.001953125 644.666992188 552.001953125 636.333984375 546.001953125 629.000976562 c 0
 541.334960938 622.333984375 532.66796875 619.000976562 520.001953125 619.000976562 c 2
 519.001953125 619.000976562 l 2
 482.333984375 621.000976562 445.333984375 622.000976562 408.001953125 622.000976562 c 0
 339.333984375 622.000976562 263.333984375 618.333984375 180.001953125 611.000976562 c 1
 179.333984375 594.333984375 178.666992188 573.333984375 178 548.000976562 c 0
 175.866210938 502.670898438 174.799804688 458.194335938 174.799804688 414.571289062 c 0
 174.799804688 403.661132812 174.866210938 392.8046875 175 382.001953125 c 0
 179 376.001953125 182.666992188 376.334960938 186 383.001953125 c 1
 213.333984375 386.334960938 242.666015625 388.001953125 273.999023438 388.001953125 c 2
 295.999023438 388.001953125 l 2x68
 335.999023438 386.668945312 371.999023438 384.668945312 403.999023438 382.001953125 c 0
 436.666015625 378.668945312 463.333984375 375.3359375 484 372.002929688 c 0
 498.666992188 369.3359375 508 366.002929688 512 362.002929688 c 0
 516 358.002929688 518.333984375 352.002929688 519 344.002929688 c 0
 519 334.002929688 516.666992188 325.3359375 512 318.002929688 c 0
 509.333984375 312.669921875 502.666015625 310.002929688 491.999023438 310.002929688 c 2
 486.999023438 310.002929688 l 2x88
 466.33203125 313.3359375 437.999023438 316.3359375 401.999023438 319.002929688 c 0
 367.999023438 321.669921875 329.666015625 323.002929688 286.999023438 323.002929688 c 0
 246.33203125 322.3359375 211.999023438 320.002929688 183.999023438 316.002929688 c 1
 181.33203125 309.3359375 178.666015625 309.002929688 175.998046875 315.002929688 c 1
 178.666015625 208.3359375 181.666015625 108.3359375 184.998046875 15.0029296875 c 0
 183.666015625 3.669921875 178.498046875 -5.330078125 169.498046875 -11.9970703125 c 0
 160.498046875 -18.6640625 150.331054688 -21.9970703125 138.998046875 -21.9970703125 c 1
 138.331054688 -27.9970703125 137.331054688 -27.6640625 135.998046875 -20.9970703125 c 1
 125.33203125 -21.6640625 116.6640625 -18.3310546875 109.998046875 -10.998046875 c 0
 103.998046875 -4.998046875 100.998046875 3.3349609375 100.998046875 14.001953125 c 2
 100.998046875 19.001953125 l 2x44
 102.998046875 41.001953125 103.998046875 77.6689453125 103.998046875 129.001953125 c 0
 103.330078125 223.668945312 100.998046875 329.001953125 96.998046875 445.001953125 c 0
 95.6640625 489.668945312 94.998046875 519.668945312 94.998046875 535.001953125 c 0
 94.998046875 550.334960938 95.6640625 570.834960938 96.998046875 596.501953125 c 0
 98.330078125 622.168945312 98.998046875 640.001953125 98.998046875 650.001953125 c 0
 99.6640625 665.334960938 103.6640625 676.66796875 110.998046875 684.000976562 c 0
 118.330078125 691.333984375 127.6640625 695.000976562 138.99609375 695.000976562 c 1
 140.99609375 688.333984375 142.663085938 688.333984375 143.99609375 695.000976562 c 1x58
 156.663085938 695.000976562 166.330078125 690.66796875 172.998046875 682.000976562 c 1
 173.6640625 673.333984375 174.6640625 671.666992188 175.998046875 677 c 1
 255.998046875 683.666992188 330.998046875 687 400.998046875 687 c 0
 447.6640625 687 488.001953125 685.333007812 522.001953125 682 c 0x28
EndSplineSet
Validated: 524289
EndChar

StartChar: G
Encoding: 71 71 40
Width: 650
GlyphClass: 2
Flags: HMW
HStem: -31.002 72.002 248.5 74.501 285.998 64.5022 661 62.998
VStem: 85.4015 79.998
LayerCount: 2
Fore
SplineSet
489.3984375 705 m 0xb8
 522.731445312 692.333007812 543.731445312 681.333007812 552.3984375 672 c 0
 560.3984375 664 564.3984375 654.666992188 564.3984375 644 c 0
 565.065429688 638 564.065429688 631.333007812 561.3984375 624 c 0
 560.065429688 618 555.732421875 613.666992188 548.399414062 611 c 0
 543.732421875 609.666992188 539.899414062 609 536.899414062 609 c 0
 533.899414062 609 529.732421875 609.666992188 524.399414062 611 c 0
 520.399414062 612.333007812 511.232421875 617.333007812 496.899414062 626 c 0
 482.56640625 634.666992188 467.399414062 642.666992188 451.399414062 650 c 0
 436.06640625 657.333007812 422.06640625 661 409.399414062 661 c 0
 388.732421875 661 366.899414062 653.5 343.899414062 638.5 c 0
 320.899414062 623.5 299.232421875 602.5 278.899414062 575.5 c 0
 258.56640625 548.5 240.06640625 518 223.399414062 484 c 0
 206.06640625 449.333007812 192.06640625 410.5 181.399414062 367.5 c 0
 170.732421875 324.5 165.399414062 281 165.399414062 237 c 0
 165.399414062 205 171.399414062 174.166992188 183.399414062 144.5 c 0
 195.399414062 114.833007812 212.06640625 90 233.399414062 70 c 0
 254.06640625 50.6669921875 277.06640625 41 302.399414062 41 c 0
 319.06640625 41 335.733398438 46.6669921875 352.400390625 58 c 0
 369.067382812 69.3330078125 383.900390625 83.666015625 396.900390625 100.999023438 c 0
 409.900390625 118.33203125 422.067382812 137.33203125 433.400390625 157.999023438 c 0
 444.733398438 178.666015625 454.400390625 198.999023438 462.400390625 218.999023438 c 0
 470.400390625 238.999023438 476.733398438 257.33203125 481.400390625 273.999023438 c 0
 482.733398438 276.666015625 484.06640625 280.999023438 485.399414062 286.999023438 c 1
 480.732421875 285.666015625 476.065429688 285.333007812 471.3984375 286 c 0
 431.3984375 284 392.3984375 280.166992188 354.3984375 274.5 c 0
 316.3984375 268.833007812 289.731445312 261.333007812 274.3984375 252 c 0
 271.065429688 250 267.732421875 248.833007812 264.399414062 248.5 c 0
 261.06640625 248.166992188 257.733398438 249.333984375 254.400390625 252.000976562 c 0
 247.067382812 257.333984375 242.734375 264.333984375 241.401367188 273.000976562 c 2
 241.401367188 281.000976562 l 2
 241.401367188 298.333984375 251.734375 312.333984375 272.401367188 323.000976562 c 0xd8
 288.401367188 332.333984375 324.734375 339.666992188 381.401367188 345 c 0
 423.401367188 348.333007812 460.068359375 350 491.401367188 350 c 0
 497.401367188 350.333984375 503.068359375 350.500976562 508.401367188 350.500976562 c 0
 513.734375 350.500976562 518.734375 350.333984375 523.401367188 350 c 0
 538.068359375 348.666992188 547.735351562 346 552.40234375 342 c 0
 558.40234375 337.333007812 561.40234375 328.666015625 561.40234375 315.999023438 c 0
 561.40234375 309.33203125 560.235351562 303.665039062 557.90234375 298.998046875 c 0
 555.569335938 294.331054688 551.40234375 290.998046875 545.40234375 288.998046875 c 0
 543.40234375 286.331054688 541.40234375 285.331054688 539.40234375 285.998046875 c 1
 539.40234375 278.998046875 l 2
 539.40234375 276.998046875 538.90234375 271.665039062 537.90234375 262.998046875 c 0
 536.90234375 254.331054688 536.069335938 247.331054688 535.40234375 241.998046875 c 0
 534.069335938 227.998046875 530.069335938 211.831054688 523.40234375 193.498046875 c 0
 516.735351562 175.165039062 507.90234375 155.498046875 496.90234375 134.498046875 c 0
 485.90234375 113.498046875 472.735351562 92.998046875 457.40234375 72.998046875 c 0
 442.735351562 53.6650390625 427.068359375 35.998046875 410.401367188 19.998046875 c 0
 393.734375 3.998046875 375.401367188 -8.6689453125 355.401367188 -18.001953125 c 0
 335.401367188 -26.6689453125 315.068359375 -31.001953125 294.401367188 -31.001953125 c 2
 292.401367188 -31.001953125 l 1
 291.401367188 -31.001953125 l 2
 267.401367188 -31.001953125 244.734375 -26.6689453125 223.401367188 -18.001953125 c 0
 201.401367188 -8.6689453125 182.068359375 3.6640625 165.401367188 18.9970703125 c 0
 148.734375 34.330078125 134.234375 51.9970703125 121.901367188 71.9970703125 c 0
 109.568359375 91.9970703125 100.401367188 113.330078125 94.4013671875 135.997070312 c 0
 88.4013671875 158.6640625 85.4013671875 181.331054688 85.4013671875 203.998046875 c 0
 85.4013671875 253.998046875 90.234375 302.665039062 99.9013671875 349.998046875 c 0
 109.568359375 397.331054688 122.735351562 439.831054688 139.40234375 477.498046875 c 0
 156.069335938 515.165039062 175.736328125 549.665039062 198.403320312 580.998046875 c 0
 219.0703125 612.331054688 240.903320312 638.331054688 263.903320312 658.998046875 c 0
 286.903320312 679.665039062 310.403320312 695.665039062 334.403320312 706.998046875 c 0
 358.403320312 718.331054688 381.403320312 723.998046875 403.403320312 723.998046875 c 0
 427.403320312 723.998046875 456.065429688 717.666992188 489.3984375 705 c 0xb8
EndSplineSet
Validated: 524289
EndChar

StartChar: H
Encoding: 72 72 41
Width: 650
GlyphClass: 2
Flags: HMW
HStem: 311.994 66.002 674.994 20G
VStem: 113 79.499 454.499 83.001 463.499 80.001
LayerCount: 2
Fore
SplineSet
189.999023438 292 m 0xe8
 189.666015625 287.333007812 189.499023438 284 189.499023438 282 c 0
 187.499023438 248.666992188 186.499023438 209.833984375 186.499023438 165.500976562 c 0
 186.499023438 121.16796875 187.499023438 70.9951171875 189.499023438 14.9951171875 c 0
 188.166015625 3.662109375 182.833007812 -5.337890625 173.499023438 -12.0048828125 c 0
 164.166992188 -18.671875 153.833984375 -22.0048828125 142.500976562 -22.0048828125 c 1
 141.833984375 -28.0048828125 140.833984375 -27.671875 139.500976562 -21.0048828125 c 1
 129.500976562 -21.671875 121.16796875 -18.3388671875 114.500976562 -11.005859375 c 0
 108.500976562 -5.005859375 105.500976562 3 105.500976562 13 c 0
 106.16796875 15 106.500976562 16.994140625 106.500976562 18.994140625 c 0
 107.833984375 38.3271484375 108.500976562 81.3330078125 108.500976562 148 c 0
 108.500976562 182.666992188 108.833984375 214 109.500976562 242 c 2
 109.500976562 243 l 2
 109.500976562 265 110.000976562 297.166992188 111.000976562 339.5 c 0
 112.000976562 381.833007812 112.66796875 409.166015625 113.000976562 421.499023438 c 0
 113.333984375 433.83203125 113.500976562 446.165039062 113.500976562 458.498046875 c 0
 113.500976562 470.831054688 113.16796875 490.998046875 112.500976562 518.998046875 c 0
 111.833984375 546.998046875 111.500976562 565.498046875 111.500976562 574.498046875 c 0
 111.500976562 583.498046875 112.500976562 608.662109375 114.500976562 649.995117188 c 0
 115.16796875 665.328125 119.16796875 676.661132812 126.500976562 683.994140625 c 0
 133.833984375 691.327148438 143.166992188 694.994140625 154.499023438 694.994140625 c 2
 157.499023438 694.994140625 l 2
 168.166992188 694.994140625 177.166992188 691.827148438 184.499023438 685.494140625 c 0
 191.833007812 679.161132812 195.499023438 668.328125 195.499023438 652.995117188 c 0
 195.499023438 646.328125 194.666992188 632.1640625 192.999023438 610.497070312 c 0
 191.333007812 588.830078125 190.499023438 568.830078125 190.499023438 550.497070312 c 0
 190.499023438 532.1640625 190.833007812 505.1640625 191.499023438 469.497070312 c 0
 192.166992188 433.830078125 192.499023438 406.663085938 192.499023438 387.99609375 c 2
 192.499023438 377.99609375 l 2
 195.166992188 371.329101562 198.166992188 371.329101562 201.499023438 377.99609375 c 1
 254.833007812 379.329101562 318.833007812 385.662109375 393.499023438 396.995117188 c 0
 422.166992188 400.995117188 445.166992188 403.662109375 462.499023438 404.995117188 c 1
 462.499023438 413.995117188 l 2
 462.499023438 418.662109375 462.166992188 425.662109375 461.499023438 434.995117188 c 0
 460.833007812 444.328125 460.499023438 451.328125 460.499023438 455.995117188 c 0
 459.833007812 497.328125 459.499023438 524.495117188 459.499023438 537.495117188 c 0
 459.499023438 550.495117188 460.166992188 570.995117188 461.499023438 598.995117188 c 0
 462.833007812 626.995117188 463.499023438 643.995117188 463.499023438 649.995117188 c 0
 463.499023438 665.328125 467.333007812 676.661132812 474.999023438 683.994140625 c 0
 482.666992188 691.327148438 491.833984375 694.994140625 502.500976562 694.994140625 c 2
 505.500976562 694.994140625 l 2
 516.833984375 694.994140625 526.166992188 691.827148438 533.499023438 685.494140625 c 0
 540.833007812 679.161132812 544.499023438 668.328125 544.499023438 652.995117188 c 0
 544.499023438 640.328125 543.999023438 614.495117188 542.999023438 575.495117188 c 0
 541.999023438 536.495117188 541.499023438 501.995117188 541.499023438 471.995117188 c 0
 541.499023438 441.995117188 541.833007812 398.995117188 542.499023438 342.995117188 c 0
 543.166992188 327.662109375 543.499023438 305.995117188 543.499023438 277.995117188 c 0xe8
 543.499023438 249.995117188 542.499023438 206.495117188 540.499023438 147.495117188 c 0
 538.499023438 88.4951171875 537.499023438 46.9951171875 537.499023438 22.9951171875 c 2
 537.499023438 16.9951171875 l 1
 537.499023438 14.9951171875 l 2
 537.499023438 4.328125 532.166992188 -4.671875 521.499023438 -12.0048828125 c 0
 512.833007812 -18.671875 502.833007812 -22.0048828125 491.499023438 -22.0048828125 c 1
 490.833007812 -28.0048828125 489.833007812 -27.671875 488.499023438 -21.0048828125 c 1
 477.833007812 -21.671875 469.166992188 -18.3388671875 462.499023438 -11.005859375 c 0
 457.166992188 -5.005859375 454.499023438 3.3271484375 454.499023438 13.994140625 c 2
 454.499023438 18.994140625 l 1xf0
 460.499023438 103.661132812 463.499023438 197.661132812 463.499023438 300.994140625 c 2
 463.499023438 342.995117188 l 1
 459.499023438 336.328125 455.831054688 335.994140625 452.499023438 341.994140625 c 1
 441.166015625 341.327148438 403.166015625 335.994140625 338.499023438 325.994140625 c 0
 274.499023438 316.661132812 228.166015625 311.994140625 199.499023438 311.994140625 c 2
 190.499023438 311.994140625 l 1
 190.499023438 301.994140625 l 2
 190.499023438 299.994140625 190.331054688 296.666992188 189.999023438 292 c 0xe8
EndSplineSet
Validated: 524289
EndChar

StartChar: I
Encoding: 73 73 42
Width: 650
GlyphClass: 2
Flags: HMW
HStem: -6.40211 58.3992 612 69.001 624 64.001
VStem: 283.5 76.001 290.5 75.001
LayerCount: 2
Fore
SplineSet
287.501953125 540 m 2xc8
 287.501953125 546.666992188 288.166992188 560.001953125 289.500976562 580.001953125 c 0
 290.833984375 600.001953125 291.501953125 611.668945312 291.501953125 615.001953125 c 2
 291.501953125 624.001953125 l 1
 257.501953125 624.668945312 229.168945312 625.001953125 206.501953125 625.001953125 c 0
 181.834960938 625.001953125 164.834960938 624.834960938 155.501953125 624.501953125 c 0
 146.168945312 624.168945312 141.168945312 624.001953125 140.501953125 624.001953125 c 0
 127.168945312 624.001953125 117.3359375 626.834960938 111.002929688 632.501953125 c 0
 104.669921875 638.168945312 101.502929688 645.3359375 101.502929688 654.002929688 c 2
 101.502929688 657.002929688 l 2
 101.502929688 665.002929688 104.502929688 672.169921875 110.502929688 678.502929688 c 0
 116.502929688 684.8359375 126.8359375 688.002929688 141.502929688 688.002929688 c 0xa8
 196.834960938 690.002929688 246.499023438 691.002929688 290.499023438 691.002929688 c 0
 378.499023438 691.002929688 454.168945312 687.669921875 517.501953125 681.002929688 c 0
 528.834960938 679.669921875 537.502929688 677.002929688 543.502929688 673.002929688 c 0
 550.169921875 668.3359375 553.836914062 660.668945312 554.502929688 650.001953125 c 0
 554.502929688 640.001953125 551.502929688 630.668945312 545.502929688 622.001953125 c 0
 542.836914062 618.001953125 539.169921875 615.001953125 534.502929688 613.001953125 c 0
 531.169921875 611.668945312 528.169921875 611.001953125 525.502929688 611.001953125 c 0
 522.834960938 611.001953125 520.168945312 611.334960938 517.501953125 612.001953125 c 0
 496.834960938 615.334960938 446.166992188 619.001953125 365.500976562 623.001953125 c 1
 365.500976562 613.001953125 l 2
 365.500976562 607.668945312 365.166992188 590.168945312 364.500976562 560.501953125 c 0
 363.833984375 530.834960938 363.500976562 504.66796875 363.500976562 482.000976562 c 2
 363.500976562 436.000976562 l 2
 363.500976562 415.333984375 363.833984375 394.166992188 364.500976562 372.5 c 0
 365.166992188 350.833007812 365.500976562 326.166015625 365.500976562 298.499023438 c 0xc8
 365.500976562 270.83203125 364.500976562 227.999023438 362.500976562 169.999023438 c 0
 360.500976562 111.999023438 359.500976562 75.9990234375 359.500976562 61.9990234375 c 2
 359.500976562 51.9990234375 l 1
 368.500976562 51.9990234375 l 2
 392.500976562 51.9990234375 443.833984375 51.666015625 522.500976562 50.9990234375 c 0
 535.833984375 50.9990234375 544.666992188 48.4990234375 548.999023438 43.4990234375 c 0
 553.333007812 38.4990234375 555.833007812 31.666015625 556.499023438 22.9990234375 c 0
 556.499023438 17.666015625 555.999023438 12.9990234375 554.999023438 8.9990234375 c 0
 553.999023438 4.9990234375 552.166992188 0.9990234375 549.499023438 -3.0009765625 c 0
 548.166992188 -6.333984375 545.833984375 -8.5009765625 542.500976562 -9.5009765625 c 0
 539.166992188 -10.5009765625 536.000976562 -11.16796875 533.000976562 -11.5009765625 c 0
 530.000976562 -11.833984375 527.166992188 -11.6669921875 524.500976562 -11 c 0
 506.500976562 -8.3330078125 477.833984375 -7 438.500976562 -7 c 0
 433.833984375 -7 422.500976562 -6.8330078125 404.500976562 -6.5 c 0
 400.903320312 -6.43359375 397.052734375 -6.400390625 392.948242188 -6.400390625 c 0
 376.521484375 -6.400390625 356.038085938 -6.93359375 331.501953125 -8 c 2
 265.501953125 -15.2001953125 l 2
 250.834960938 -15.2001953125 236.166992188 -14.1337890625 221.500976562 -12.0009765625 c 0
 180.166992188 -13.333984375 151.666992188 -14.0009765625 136.000976562 -14.0009765625 c 0
 120.333984375 -14.0009765625 109.333984375 -11.5009765625 103.000976562 -6.5009765625 c 0
 96.66796875 -1.5009765625 93.5009765625 4.9990234375 93.5009765625 12.9990234375 c 2
 93.5009765625 14.9990234375 l 2
 93.5009765625 22.9990234375 96.5009765625 30.166015625 102.500976562 36.4990234375 c 0
 108.500976562 42.83203125 118.833984375 46.33203125 133.500976562 46.9990234375 c 0
 161.500976562 47.666015625 211.500976562 48.998046875 283.500976562 50.998046875 c 1xd0
 288.166992188 133.665039062 290.500976562 215.999023438 290.500976562 297.999023438 c 0
 290.723632812 311.783203125 290.834960938 325.641601562 290.834960938 339.57421875 c 0
 290.834960938 367.418945312 290.389648438 395.560546875 289.501953125 423.998046875 c 0
 288.168945312 453.331054688 287.501953125 484.998046875 287.501953125 518.998046875 c 2
 287.501953125 540 l 2xc8
EndSplineSet
Validated: 524289
EndChar

StartChar: J
Encoding: 74 74 43
Width: 650
GlyphClass: 2
Flags: HMW
HStem: -34.999 82.001 626 65.001
VStem: 91.5 70 345.5 64.001
LayerCount: 2
Fore
SplineSet
229.500976562 626 m 0
 198.16796875 626 176.5 625.666015625 164.5 624.999023438 c 0
 152.5 624.33203125 146.166992188 623.999023438 145.5 623.999023438 c 0
 132.166992188 623.999023438 122.166992188 626.83203125 115.5 632.499023438 c 0
 108.833007812 638.166015625 105.5 645.333007812 105.5 654 c 2
 105.5 657 l 2
 105.5 665 108.666992188 672.166992188 115 678.5 c 0
 121.333007812 684.833007812 131.833007812 688 146.5 688 c 0
 201.166992188 690 250.5 691 294.5 691 c 0
 382.5 691 458.166992188 687.666992188 521.5 681 c 0
 532.833007812 680.333007812 541.5 677.666015625 547.5 672.999023438 c 0
 554.166992188 668.33203125 557.833984375 660.665039062 558.500976562 649.998046875 c 0
 558.500976562 639.998046875 555.500976562 630.665039062 549.500976562 621.998046875 c 0
 546.833984375 617.998046875 543.166992188 614.998046875 538.5 612.998046875 c 0
 535.833007812 611.665039062 533 610.998046875 530 610.998046875 c 0
 527 610.998046875 524.166992188 611.331054688 521.5 611.998046875 c 0
 501.5 615.331054688 462.833007812 618.331054688 405.5 620.998046875 c 1
 405.5 610.998046875 l 2
 405.5 591.665039062 406.166992188 562.33203125 407.5 522.999023438 c 0
 408.166992188 480.999023438 409.166992188 445.33203125 410.5 415.999023438 c 0
 411.833007812 387.999023438 412.5 353.83203125 412.5 313.499023438 c 0
 412.5 273.166015625 411.5 237.333007812 409.5 206 c 0
 404.833007812 146 397.666015625 98 387.999023438 62 c 0
 378.33203125 26 367.165039062 0.8330078125 354.498046875 -13.5 c 0
 341.831054688 -27.8330078125 326.831054688 -35 309.498046875 -35 c 0
 290.165039062 -35 270.83203125 -31.1669921875 251.499023438 -23.5 c 0
 232.166015625 -15.8330078125 215.166015625 -5.666015625 200.499023438 7.0009765625 c 0
 185.166015625 19.66796875 170.666015625 33.66796875 156.999023438 49.0009765625 c 0
 143.33203125 64.333984375 131.999023438 79.5009765625 122.999023438 94.5009765625 c 0
 113.999023438 109.500976562 106.83203125 123.000976562 101.499023438 135.000976562 c 0
 96.166015625 147.000976562 93.166015625 156.66796875 92.4990234375 164.000976562 c 0
 91.83203125 167.333984375 91.4990234375 171.000976562 91.4990234375 175.000976562 c 0
 91.4990234375 183.000976562 92.83203125 192.000976562 95.4990234375 202.000976562 c 0
 96.83203125 208.66796875 99.9990234375 214.16796875 104.999023438 218.500976562 c 0
 109.999023438 222.833984375 116.499023438 225.666992188 124.499023438 227 c 2
 132.499023438 227 l 2
 140.499023438 227.666992188 146.83203125 225.666992188 151.499023438 221 c 0
 158.166015625 214.333007812 161.499023438 206 161.499023438 196 c 0
 161.499023438 176.666992188 167.499023438 154.333984375 179.499023438 129.000976562 c 0
 186.166015625 115.000976562 194.833007812 102.000976562 205.5 90.0009765625 c 0
 214.833007812 78.0009765625 227.666015625 67.833984375 243.999023438 59.5009765625 c 0
 260.33203125 51.16796875 278.499023438 47.0009765625 298.499023438 47.0009765625 c 0
 313.166015625 47.0009765625 324.166015625 60.66796875 331.499023438 88.0009765625 c 0
 338.83203125 117.333984375 343.499023438 164.666992188 345.499023438 230 c 2
 345.499023438 254 l 2
 345.499023438 267.333007812 344.999023438 310 343.999023438 382 c 0
 343.399414062 425.202148438 343.099609375 471.404296875 343.099609375 520.606445312 c 0
 343.099609375 553.404296875 343.233398438 587.536132812 343.5 623.000976562 c 1
 297.5 625.000976562 259.500976562 626 229.500976562 626 c 0
EndSplineSet
Validated: 524289
EndChar

StartChar: K
Encoding: 75 75 44
Width: 650
GlyphClass: 2
Flags: HMW
HStem: -21.0341 21G 694.001 21G
VStem: 98.499 79.002 102.501 83
LayerCount: 2
Fore
SplineSet
96.5 541.5 m 0xe0
 96.5 556.5 97.16796875 578.333007812 98.5009765625 607 c 0
 99.833984375 635 100.500976562 652.666992188 100.500976562 660 c 0
 101.16796875 678.666992188 105.16796875 692.333984375 112.500976562 701.000976562 c 0
 119.833984375 709.66796875 129.166992188 714.000976562 140.5 714.000976562 c 2
 143.5 714.000976562 l 2
 154.166992188 714.66796875 163.166992188 711.000976562 170.5 703.000976562 c 0
 177.83203125 695.66796875 181.5 682.334960938 181.5 663.001953125 c 0
 181.5 647.668945312 180.83203125 613.001953125 179.5 559.001953125 c 0
 178.166992188 505.001953125 177.166992188 452.334960938 176.5 401.001953125 c 1
 210.5 437.001953125 249.83203125 480.001953125 294.5 530.001953125 c 0
 383.83203125 625.334960938 436.5 680.001953125 452.5 694.001953125 c 0
 460.5 703.334960938 468.166992188 709.334960938 475.5 712.001953125 c 0
 480.166992188 714.001953125 484.166992188 715.001953125 487.5 715.001953125 c 0
 494.166992188 715.001953125 500.5 711.000976562 506.5 703.000976562 c 0
 511.83203125 694.333984375 514.5 685.334960938 514.5 676.001953125 c 0
 514.5 667.334960938 508.5 657.334960938 496.5 646.001953125 c 0
 486.5 634.001953125 452.5 597.668945312 394.5 537.001953125 c 0
 339.166992188 473.668945312 287.833984375 416.001953125 240.5 364.001953125 c 1
 246.5 357.001953125 l 2
 267.833984375 333.668945312 303.5 296.3359375 353.5 245.002929688 c 0
 454.16796875 142.3359375 514.5 79.3359375 534.5 56.0029296875 c 0
 543.16796875 46.0029296875 548.5 39.3359375 550.5 36.0029296875 c 0
 552.5 32.669921875 553.5 29.3369140625 553.5 26.00390625 c 0
 553.5 20.00390625 552.833984375 14.6708984375 551.5 10.00390625 c 0
 548.16796875 0.00390625 543.16796875 -7.6630859375 536.5 -12.99609375 c 0
 529.833984375 -18.3291015625 523.5 -20.9970703125 517.5 -20.9970703125 c 0
 517.10546875 -21.021484375 516.708984375 -21.0341796875 516.311523438 -21.0341796875 c 0
 505.9921875 -21.0341796875 495.0546875 -12.6875 483.5 4.0029296875 c 0
 476.166992188 13.3359375 452.5 36.3359375 412.5 73.0029296875 c 0
 375.166992188 110.3359375 334.833984375 151.3359375 291.5 196.002929688 c 0
 248.16796875 244.002929688 215.834960938 282.002929688 194.501953125 310.002929688 c 2
 177.501953125 331.002929688 l 1
 177.501953125 284.002929688 l 1xe0
 185.501953125 24.001953125 l 2
 184.834960938 9.3349609375 179.83203125 -1.9970703125 170.499023438 -9.9970703125 c 0
 161.166015625 -17.9970703125 150.8359375 -21.9970703125 139.502929688 -21.9970703125 c 1
 138.8359375 -27.9970703125 137.8359375 -27.6640625 136.502929688 -20.9970703125 c 1
 125.8359375 -21.6640625 117.168945312 -17.3310546875 110.501953125 -7.998046875 c 0
 105.168945312 0.001953125 102.501953125 10.6689453125 102.501953125 24.001953125 c 2
 102.501953125 28.001953125 l 2xd0
 104.501953125 50.001953125 105.501953125 86.6689453125 105.501953125 138.001953125 c 0
 104.834960938 233.334960938 102.5 339.001953125 98.5 455.001953125 c 0
 97.1669921875 497.668945312 96.5 526.5 96.5 541.5 c 0xe0
EndSplineSet
Validated: 524289
EndChar

StartChar: L
Encoding: 76 76 45
Width: 650
GlyphClass: 2
Flags: HMW
HStem: -15 67.001
VStem: 126.498 72.0039
LayerCount: 2
Fore
SplineSet
543 72.5 m 0
 546 68.1669921875 548.5 63.5 550.5 58.5 c 0
 552.5 53.5 553.5 48.6669921875 553.5 44 c 0
 553.5 34 551.333007812 26.5 547 21.5 c 0
 542.666992188 16.5 533.166992188 12.6669921875 518.5 10 c 0
 473.833007812 1.3330078125 408.833007812 -5 323.5 -9 c 0
 237.5 -13 173.166992188 -15 130.5 -15 c 0
 120.5 -15.6669921875 112.166992188 -12.333984375 105.5 -5.0009765625 c 0
 99.5 0.9990234375 96.5 9.33203125 96.5 19.9990234375 c 0
 96.5 21.9990234375 96.6669921875 24.9990234375 97 28.9990234375 c 0
 97.3330078125 32.9990234375 101.166015625 69.9990234375 108.499023438 139.999023438 c 0
 115.83203125 211.33203125 121.165039062 279.999023438 124.498046875 345.999023438 c 0
 125.831054688 363.999023438 126.498046875 388.166015625 126.498046875 418.499023438 c 0
 126.498046875 448.83203125 126.331054688 471.83203125 125.998046875 487.499023438 c 0
 125.665039062 503.166015625 124.83203125 554.333007812 123.499023438 641 c 0
 124.166015625 657 128.333007812 668.666992188 136 676 c 0
 143.666992188 683.333007812 152.833984375 687 163.500976562 687 c 2
 166.500976562 687 l 2
 177.16796875 687 186.16796875 683.666992188 193.500976562 677 c 0
 200.833984375 670.333007812 204.500976562 659.666015625 204.500976562 644.999023438 c 0
 204.723632812 638.7734375 204.834960938 631.732421875 204.834960938 623.875976562 c 0
 204.834960938 608.174804688 204.390625 589.215820312 203.501953125 566.999023438 c 0
 201.501953125 517.666015625 199.834960938 475.333007812 198.501953125 440 c 0
 196.501953125 389.333007812 194.833984375 345.333007812 193.500976562 308 c 0
 192.833984375 280.666992188 190.501953125 240.333984375 186.501953125 187.000976562 c 0
 182.501953125 133.66796875 180.501953125 92.0009765625 180.501953125 62.0009765625 c 2
 180.501953125 52.0009765625 l 1
 204.500976562 52.0009765625 l 2
 253.833984375 52.66796875 311.16796875 56.3349609375 376.500976562 63.001953125 c 0
 444.500976562 69.6689453125 491.16796875 76.001953125 516.500976562 82.001953125 c 0
 519.16796875 82.6689453125 521.66796875 83.001953125 524.000976562 83.001953125 c 0
 526.333984375 83.001953125 528.833984375 82.6689453125 531.500976562 82.001953125 c 0
 536.16796875 80.001953125 540 76.8330078125 543 72.5 c 0
EndSplineSet
Validated: 524289
EndChar

StartChar: M
Encoding: 77 77 46
Width: 650
GlyphClass: 2
Flags: HMW
HStem: -10 21G<103.499 108.834> 684.001 20G
VStem: 74.4995 68.001 280.501 85.999
LayerCount: 2
Fore
SplineSet
131.5 5 m 0
 123.5 -5 114.166992188 -10 103.5 -10 c 0
 84.1669921875 -9.3330078125 74.5 13.333984375 74.5 58.0009765625 c 0
 74.5 66.0009765625 75.3330078125 79.833984375 77 99.5009765625 c 0
 78.6669921875 119.16796875 81.1669921875 145.000976562 84.5 177.000976562 c 0
 87.8330078125 209.000976562 90.5 237.000976562 92.5 261.000976562 c 0
 98.5 342.333984375 102.5 394.000976562 104.5 416.000976562 c 0
 107.166992188 444.66796875 110.5 480.000976562 114.5 522.000976562 c 0
 122.5 603.333984375 130.83203125 652.333984375 139.5 669.000976562 c 0
 146.166992188 681.000976562 155.5 690.000976562 167.5 696.000976562 c 0
 178.83203125 701.333984375 189.5 704.000976562 199.5 704.000976562 c 2
 203.5 704.000976562 l 2
 214.83203125 704.000976562 224.166015625 702.000976562 231.499023438 698.000976562 c 0
 240.166015625 692.66796875 245.83203125 684.334960938 248.5 673.001953125 c 0
 255.83203125 643.668945312 264 595.3359375 273 528.002929688 c 0
 282 460.669921875 291.166992188 383.502929688 300.5 296.502929688 c 0
 309.83203125 209.502929688 316.5 152.002929688 320.5 124.002929688 c 0
 323.16796875 106.669921875 326.166992188 84 329.5 56 c 1
 331.5 83.3330078125 333.166992188 106.002929688 334.5 124.002929688 c 0
 340.5 218.669921875 347.5 303.669921875 355.5 379.002929688 c 0
 361.5 434.3359375 369.33203125 489.668945312 379 545.001953125 c 0
 388.666992188 600.334960938 397.166992188 643.001953125 404.5 673.001953125 c 0
 406.5 681.001953125 411 687.668945312 418 693.001953125 c 0
 425 698.334960938 432.166992188 701.66796875 439.5 703.000976562 c 0
 444.83203125 703.66796875 449.5 704.000976562 453.5 704.000976562 c 2
 463.5 704.000976562 l 1
 467.5 704.000976562 l 1
 480.5 704.000976562 l 2
 483.83203125 704.000976562 488.33203125 703.333984375 494 702.000976562 c 0
 499.666992188 700.66796875 503.833984375 698.834960938 506.5 696.501953125 c 0
 509.16796875 694.168945312 512 690.668945312 515 686.001953125 c 0
 518 681.334960938 520.16796875 675.334960938 521.5 668.001953125 c 0
 524.16796875 647.334960938 532 547.501953125 545 368.501953125 c 0
 558 189.501953125 567.16796875 88.001953125 572.5 64.001953125 c 0
 574.5 53.3349609375 575.5 43.66796875 575.5 35.0009765625 c 0
 575.5 15.0009765625 568.5 1.66796875 554.5 -4.9990234375 c 0
 549.833984375 -6.9990234375 545 -7.9990234375 540 -7.9990234375 c 0
 535 -7.9990234375 529.5 -6.33203125 523.5 -2.9990234375 c 0
 513.5 2.333984375 505.5 14.333984375 499.5 33.0009765625 c 0
 485.5 77.0009765625 473.16796875 271.000976562 462.5 615.000976562 c 0
 461.833984375 631.66796875 461.166992188 653.000976562 460.5 679.000976562 c 1
 456.5 653.66796875 452.5 633.000976562 448.5 617.000976562 c 0
 429.83203125 520.333984375 417.83203125 432.333984375 412.5 353.000976562 c 0
 407.166992188 277.000976562 399.666992188 205.000976562 390 137.000976562 c 0
 380.33203125 69.0009765625 372.5 27.66796875 366.5 13.0009765625 c 0
 361.166992188 -0.33203125 345.833984375 -6.9990234375 320.5 -6.9990234375 c 2
 316.5 -6.9990234375 l 2
 307.16796875 -6.9990234375 299.16796875 -5.166015625 292.5 -1.4990234375 c 0
 285.833984375 2.16796875 281.833984375 7.3349609375 280.5 14.001953125 c 0
 273.16796875 46.001953125 260.834960938 119.168945312 243.501953125 233.501953125 c 0
 226.16796875 347.834960938 210.16796875 458.001953125 195.501953125 564.001953125 c 0
 192.16796875 579.334960938 189.16796875 599.66796875 186.501953125 625.000976562 c 1
 184.501953125 599.66796875 182.501953125 579.334960938 180.501953125 564.001953125 c 0
 175.834960938 505.334960938 172.16796875 457.66796875 169.5 421.000976562 c 0
 167.5 387.000976562 165.5 358.000976562 163.5 334.000976562 c 0
 161.5 300.66796875 159.5 271.66796875 157.5 247.000976562 c 0
 155.5 219.000976562 153.16796875 190.000976562 150.5 160.000976562 c 0
 148.5 131.333984375 146.5 107.666992188 144.5 89 c 0
 143.16796875 75 142.5 64 142.5 56 c 0
 143.16796875 48 143.5 46 143.5 46 c 2
 143.5 28.6669921875 139.5 15 131.5 5 c 0
EndSplineSet
Validated: 524289
EndChar

StartChar: N
Encoding: 78 78 47
Width: 650
GlyphClass: 2
Flags: HMW
HStem: -11.998 21G 685 20G<146.5 154.5 506.501 514.834>
VStem: 98.501 63 105.751 58.7499 478.502 72.999 489.002 62.4988
LayerCount: 2
Fore
SplineSet
511.500976562 705 m 0xc8
 518.16796875 705 523.5 704.333007812 527.5 703 c 0
 531.5 701 534.5 699 536.5 697 c 0
 538.5 695 540.166992188 690.666992188 541.5 684 c 0
 543.5 680 544.833007812 675.666992188 545.5 671 c 0
 546.166992188 666.333007812 547.166992188 659 548.5 649 c 0
 549.833007812 639.666992188 550.833007812 586.666992188 551.5 490 c 2
 551.5 448 l 2
 551.5 364 550.5 285.666992188 548.5 213 c 0
 546.5 139.666992188 544.166992188 89.6669921875 541.5 63 c 0
 538.833007812 35 536.166015625 17.6669921875 533.499023438 11 c 0
 528.166015625 -5.6669921875 512.833007812 -14 487.5 -14 c 1
 485.5 -20.6669921875 483.833007812 -20.6669921875 482.5 -14 c 1
 473.833007812 -14 466.5 -11.6669921875 460.5 -7 c 0
 454.5 -2.3330078125 450.166992188 4 447.5 12 c 0
 442.833007812 22.6669921875 427.5 52.333984375 401.5 101.000976562 c 2
 327.5 247.000976562 l 2
 302.166992188 295.66796875 275.833984375 350.334960938 248.500976562 411.001953125 c 0
 220.500976562 473.001953125 198.833984375 525.668945312 183.500976562 569.001953125 c 0
 175.500976562 592.334960938 167.833984375 613.334960938 160.500976562 632.001953125 c 1
 161.833984375 610.001953125 163.166992188 586.668945312 164.5 562.001953125 c 0
 167.833007812 504.668945312 169.5 450.001953125 169.5 398.001953125 c 0
 169.5 384.668945312 169.166992188 359.3359375 168.5 322.002929688 c 0
 167.833007812 284.002929688 166.5 237.669921875 164.5 183.002929688 c 0xd8
 162.5 128.3359375 161.5 90.6689453125 161.5 70.001953125 c 2
 161.5 62.001953125 l 2
 162.166992188 57.3349609375 162.5 53.3349609375 162.5 50.001953125 c 2
 162.5 44.001953125 l 2
 162.5 24.6689453125 159.166992188 10.6689453125 152.5 2.001953125 c 0
 145.833007812 -7.3310546875 137.5 -11.998046875 127.5 -11.998046875 c 2
 125.5 -11.998046875 l 2
 120.833007812 -11.998046875 116.833007812 -10.6650390625 113.5 -7.998046875 c 0
 110.166992188 -5.3310546875 107.5 -0.6640625 105.5 6.0029296875 c 0
 100.833007812 16.669921875 98.5 33.0029296875 98.5 55.0029296875 c 0xe0
 98.5 67.669921875 99.5 119.002929688 101.5 209.002929688 c 0
 103.5 299.669921875 104.833007812 378.669921875 105.5 446.002929688 c 0
 105.666992188 462.837890625 105.75 479.505859375 105.75 496.006835938 c 0
 105.75 545.504882812 105 593.50390625 103.5 640.002929688 c 2
 103.5 647.002929688 l 2
 104.166992188 657.002929688 105.833984375 666.002929688 108.500976562 674.002929688 c 0
 111.16796875 682.669921875 115.16796875 689.336914062 120.500976562 694.00390625 c 0
 129.833984375 701.336914062 140.5 705 152.5 705 c 0
 156.5 705 160.16796875 704.670898438 163.500976562 704.00390625 c 2
 164.5 704.00390625 l 2
 175.166992188 704.00390625 184.16796875 701.666992188 191.500976562 697 c 0
 200.16796875 691.666992188 206.16796875 682.00390625 209.500976562 668.00390625 c 0
 222.833984375 624.00390625 258.833984375 541.336914062 317.500976562 420.00390625 c 0
 375.500976562 299.336914062 425.833984375 202.00390625 468.500976562 128.00390625 c 0
 473.833984375 115.336914062 479.166992188 106.00390625 484.5 100.00390625 c 1
 485.166992188 110.00390625 485.833984375 122.336914062 486.500976562 137.00390625 c 0
 487.833984375 179.670898438 488.500976562 234.670898438 488.500976562 302.00390625 c 0
 488.834960938 318.670898438 489.001953125 336.170898438 489.001953125 354.50390625 c 0xd4
 489.001953125 372.836914062 488.834960938 392.00390625 488.501953125 412.00390625 c 0
 486.501953125 532.670898438 483.168945312 612.337890625 478.501953125 651.004882812 c 1
 478.501953125 657.004882812 l 2
 478.501953125 669.671875 481.168945312 680.338867188 486.501953125 689.005859375 c 0
 493.168945312 699.672851562 501.500976562 705 511.500976562 705 c 0xc8
EndSplineSet
Validated: 524289
EndChar

StartChar: O
Encoding: 79 79 48
Width: 650
GlyphClass: 2
Flags: HMW
HStem: -23.998 73.999 646.508 71.4923
VStem: 99.5 77.002 473.501 76.999
LayerCount: 2
Fore
SplineSet
429.5 120.001953125 m 0
 442.166992188 137.334960938 451.833984375 157.001953125 458.500976562 179.001953125 c 0
 461.16796875 187.668945312 464.000976562 208.001953125 467.000976562 240.001953125 c 0
 470.000976562 272.001953125 472.16796875 309.668945312 473.500976562 353.001953125 c 0
 474.16796875 365.668945312 474.500976562 378.3359375 474.500976562 391.002929688 c 0
 474.500976562 422.3359375 473.16796875 453.002929688 470.500976562 483.002929688 c 0
 466.500976562 529.002929688 451.500976562 567.669921875 425.500976562 599.002929688 c 0
 401.500976562 630.3359375 371.833984375 646.168945312 336.500976562 646.501953125 c 0
 336.095703125 646.505859375 335.690429688 646.5078125 335.286132812 646.5078125 c 0
 300.487304688 646.5078125 271.225585938 632.338867188 247.500976562 604.000976562 c 0
 224.16796875 576.000976562 206.834960938 537.66796875 195.501953125 489.000976562 c 0
 182.834960938 437.000976562 176.501953125 377.66796875 176.501953125 311.000976562 c 0
 177.168945312 269.66796875 179.501953125 233.334960938 183.501953125 202.001953125 c 0
 185.501953125 183.334960938 189.501953125 164.66796875 195.501953125 146.000976562 c 0
 201.501953125 127.333984375 208.834960938 111.000976562 217.501953125 97.0009765625 c 0
 225.501953125 83.0009765625 236.168945312 71.66796875 249.501953125 63.0009765625 c 0
 262.834960938 54.333984375 277.833007812 50.0009765625 294.5 50.0009765625 c 0
 329.833007812 50.0009765625 361.501953125 59.66796875 389.501953125 79.0009765625 c 0
 404.168945312 89.0009765625 417.5 102.668945312 429.5 120.001953125 c 0
99.5 261 m 2
 99.5 291.666992188 99.833984375 316.166992188 100.500976562 334.5 c 0
 101.16796875 352.833007812 102.500976562 377.333007812 104.500976562 408 c 0
 108.500976562 467.333007812 119.500976562 522 137.500976562 572 c 0
 154.16796875 614.666992188 182.500976562 649.666992188 222.500976562 677 c 0
 259.16796875 704.333007812 300.834960938 718 347.501953125 718 c 0
 370.834960938 718 393.16796875 713 414.500976562 703 c 0
 436.500976562 693 456.833984375 678.5 475.500976562 659.5 c 0
 494.16796875 640.5 509.66796875 616.166992188 522.000976562 586.5 c 0
 534.333984375 556.833007812 542.166992188 523.333007812 545.5 486 c 0
 548.833007812 444.666992188 550.5 402.333984375 550.5 359.000976562 c 0
 550.5 325.66796875 549.333007812 290.834960938 547 254.501953125 c 0
 544.666992188 218.168945312 540.5 188.668945312 534.5 166.001953125 c 0
 525.833007812 134.668945312 515.333007812 107.668945312 503 85.001953125 c 0
 490.666992188 62.3349609375 477.333984375 44.001953125 463.000976562 30.001953125 c 0
 448.66796875 16.001953125 432.16796875 5.001953125 413.500976562 -2.998046875 c 0
 396.16796875 -10.998046875 378.16796875 -16.6650390625 359.500976562 -19.998046875 c 0
 340.833984375 -22.6650390625 319.166992188 -23.998046875 294.5 -23.998046875 c 0
 259.166992188 -23.998046875 226.5 -11.998046875 196.5 12.001953125 c 0
 165.166992188 36.001953125 141.166992188 68.001953125 124.5 108.001953125 c 0
 107.833007812 148.001953125 99.5 191.334960938 99.5 238.001953125 c 2
 99.5 243.001953125 l 1
 99.5 261 l 2
EndSplineSet
Validated: 524289
EndChar

StartChar: P
Encoding: 80 80 49
Width: 650
GlyphClass: 2
Flags: HMW
HStem: -19 21G<155.501 161.501 161.501 164.501> 230 71.998 639.996 52.0029
VStem: 118.501 75 125.701 81.7989 468.5 73<470.999 514.997>
LayerCount: 2
Fore
SplineSet
196.500976562 630.998046875 m 1xf4
 193.500976562 547.998046875 l 2
 191.3671875 480.26953125 190.30078125 417.874023438 190.30078125 360.810546875 c 0
 190.30078125 346.5390625 190.3671875 332.6015625 190.500976562 318.998046875 c 1
 197.500976562 316.998046875 l 2
 224.833984375 306.998046875 255.500976562 301.998046875 289.500976562 301.998046875 c 0
 307.500976562 301.998046875 324.000976562 303.498046875 339.000976562 306.498046875 c 0
 354.000976562 309.498046875 367.16796875 313.498046875 378.500976562 318.498046875 c 0
 389.833984375 323.498046875 399.833984375 329.998046875 408.500976562 337.998046875 c 0
 417.833984375 345.998046875 425.833984375 354.165039062 432.500976562 362.498046875 c 0
 439.16796875 370.831054688 444.834960938 380.331054688 449.501953125 390.998046875 c 0
 454.168945312 401.665039062 457.668945312 411.498046875 460.001953125 420.498046875 c 0
 462.334960938 429.498046875 464.16796875 439.665039062 465.500976562 450.998046875 c 0
 466.833984375 462.331054688 467.666992188 471.6640625 468 478.997070312 c 0
 468.333007812 486.330078125 468.5 494.997070312 468.5 504.997070312 c 0
 468.5 524.997070312 464.833007812 543.1640625 457.5 559.497070312 c 0
 450.166992188 575.830078125 440.833007812 588.997070312 429.5 598.997070312 c 0
 418.833007812 608.330078125 407.000976562 616.163085938 394.000976562 622.49609375 c 0
 381.000976562 628.829101562 368.66796875 633.329101562 357.000976562 635.99609375 c 0
 345.333984375 638.663085938 333.833007812 639.99609375 322.5 639.99609375 c 0
 301.833007812 639.99609375 259.833984375 636.998046875 196.500976562 630.998046875 c 1xf4
117.5 626 m 1
 116.166992188 621.333007812 114.5 622.998046875 112.5 630.998046875 c 0
 109.833007812 635.665039062 108.5 640 108.5 644 c 0
 109.166992188 644.666992188 109.5 645.666992188 109.5 647 c 0
 110.166992188 653.666992188 112.666992188 659.5 117 664.5 c 0
 121.333007812 669.5 125.833007812 672.666992188 130.5 674 c 0
 153.833007812 679.333007812 188.5 683.666015625 234.5 686.999023438 c 0
 276.5 690.33203125 305.833007812 691.999023438 322.5 691.999023438 c 0
 362.5 691.999023438 398.166992188 684.33203125 429.5 668.999023438 c 0
 463.5 653.666015625 490.5 630.666015625 510.5 599.999023438 c 0
 530.5 569.33203125 540.833007812 532.33203125 541.5 488.999023438 c 0
 541.5 452.999023438 535.666992188 419.166015625 524 387.499023438 c 0
 512.333007812 355.83203125 496.333007812 328.33203125 476 304.999023438 c 0
 455.666992188 281.666015625 431.5 263.333007812 403.5 250 c 0
 376.833007812 236.666992188 347.833007812 230 316.5 230 c 0
 269.833007812 230 232.5 233.333007812 204.5 240 c 1
 199.833007812 234.666992188 195.5 235.666992188 191.5 243 c 1
 194.166992188 189.666992188 198.166992188 130.666992188 203.5 66 c 0
 206.166992188 35.3330078125 207.5 17.666015625 207.5 12.9990234375 c 2
 207.5 11.9990234375 l 2
 207.5 2.666015625 203.5 -4.6669921875 195.5 -10 c 0
 186.166992188 -16 175.833984375 -19 164.500976562 -19 c 2
 161.500976562 -19 l 2
 149.500976562 -19 139.833984375 -15.6669921875 132.500976562 -9 c 0
 127.16796875 -3.6669921875 124.500976562 3.666015625 124.500976562 12.9990234375 c 0
 124.500976562 14.9990234375 124.66796875 20.166015625 125.000976562 28.4990234375 c 0
 125.333984375 36.83203125 125.500976562 55.6650390625 125.500976562 84.998046875 c 0
 125.634765625 91.7998046875 125.701171875 100.109375 125.701171875 109.926757812 c 0xec
 125.701171875 149.180664062 124.634765625 212.538085938 122.500976562 299.998046875 c 0
 120.500976562 371.998046875 119.500976562 420.998046875 119.500976562 446.998046875 c 0
 118.833984375 462.998046875 118.500976562 484.498046875 118.500976562 511.498046875 c 0
 118.500976562 538.498046875 119.16796875 575.665039062 120.500976562 622.998046875 c 1
 119.16796875 617.665039062 118.166992188 618.666992188 117.5 626 c 1
EndSplineSet
Validated: 524289
EndChar

StartChar: Q
Encoding: 81 81 50
Width: 650
GlyphClass: 2
Flags: HMW
HStem: -24.0667 74.0667 646.001 71.999
VStem: 95.514 75.998 292.509 51.0039 473.512 74.002
LayerCount: 2
Fore
SplineSet
242.514648438 -11 m 0
 220.514648438 -1.6669921875 200.513671875 11.166015625 182.513671875 27.4990234375 c 0
 164.513671875 43.83203125 149.180664062 63.33203125 136.513671875 85.9990234375 c 0
 111.846679688 129.999023438 98.1796875 182.666015625 95.5126953125 243.999023438 c 2
 95.5126953125 295.999023438 l 2
 95.49609375 298.634765625 95.48828125 301.259765625 95.48828125 303.874023438 c 0
 95.48828125 408.397460938 108.49609375 496.10546875 134.512695312 566.999023438 c 0
 149.845703125 609.666015625 177.845703125 645.333007812 218.512695312 674 c 0
 256.512695312 703.333007812 298.512695312 718 344.512695312 718 c 0
 392.512695312 717.333007812 434.512695312 699.333007812 470.512695312 664 c 0
 488.512695312 646.666992188 503.845703125 622.833984375 516.512695312 592.500976562 c 0
 529.1796875 562.16796875 537.512695312 527.66796875 541.512695312 489.000976562 c 0
 545.512695312 450.333984375 547.512695312 406.000976562 547.512695312 356.000976562 c 0
 547.512695312 269.333984375 543.1796875 204.000976562 534.512695312 160.000976562 c 0
 520.512695312 89.333984375 489.1796875 39.0009765625 440.512695312 9.0009765625 c 0
 437.1796875 2.333984375 434.1796875 0.6669921875 431.512695312 4 c 1
 448.845703125 -21.3330078125 465.178710938 -44.3330078125 480.51171875 -65 c 0
 495.178710938 -85 506.01171875 -99.5 513.01171875 -108.5 c 0
 520.01171875 -117.5 532.51171875 -133.666992188 550.51171875 -157 c 0
 553.178710938 -160.333007812 554.51171875 -164.333007812 554.51171875 -169 c 2
 554.51171875 -173 l 2
 553.178710938 -180.333007812 550.678710938 -187.166015625 547.01171875 -193.499023438 c 0
 543.344726562 -199.83203125 539.51171875 -204.33203125 535.51171875 -206.999023438 c 0
 530.178710938 -210.33203125 524.51171875 -211.999023438 518.51171875 -211.999023438 c 0
 515.844726562 -211.999023438 512.844726562 -211.666015625 509.51171875 -210.999023438 c 0
 499.51171875 -207.666015625 490.51171875 -201.333007812 482.51171875 -192 c 0
 472.51171875 -180.666992188 456.51171875 -158.666992188 434.51171875 -126 c 0
 414.51171875 -93.3330078125 393.51171875 -58 371.51171875 -20 c 1
 369.51171875 -26.6669921875 367.51171875 -27 365.51171875 -21 c 1
 350.178710938 -23 333.178710938 -24 314.51171875 -24 c 0
 312.778320312 -24.044921875 311.053710938 -24.0673828125 309.337890625 -24.0673828125 c 0
 285.321289062 -24.0673828125 263.047851562 -19.7109375 242.514648438 -11 c 0
331.51171875 208.999023438 m 0
 336.178710938 205.666015625 340.178710938 199.333007812 343.51171875 190 c 0
 354.178710938 156.666992188 370.178710938 120.333984375 391.51171875 81.0009765625 c 2
 396.51171875 71.0009765625 l 1
 404.51171875 77.0009765625 l 2
 433.844726562 98.333984375 453.177734375 131.333984375 462.510742188 176.000976562 c 0
 464.510742188 185.333984375 466.84375 205.666992188 469.510742188 237 c 0
 471.510742188 267.666992188 472.84375 306 473.510742188 352 c 2
 473.510742188 368 l 2
 473.59375 373.084960938 473.635742188 378.138671875 473.635742188 383.161132812 c 0
 473.635742188 418.305664062 471.59375 451.918945312 467.510742188 484.000976562 c 0
 461.510742188 532.66796875 446.177734375 572.000976562 421.510742188 602.000976562 c 0
 398.84375 631.333984375 369.510742188 646.000976562 333.510742188 646.000976562 c 0
 297.510742188 646.000976562 267.510742188 632.333984375 243.510742188 605.000976562 c 0
 219.510742188 577.66796875 201.84375 539.66796875 190.510742188 491.000976562 c 0
 177.84375 439.000976562 171.510742188 383.66796875 171.510742188 325.000976562 c 2
 171.510742188 321.000976562 l 2
 172.177734375 302.333984375 173.177734375 282.666992188 174.510742188 262 c 0
 177.177734375 221.333007812 184.677734375 185.5 197.010742188 154.5 c 0
 209.34375 123.5 225.676757812 98.3330078125 246.009765625 79 c 0
 266.342773438 59.6669921875 289.17578125 50 314.508789062 50 c 2
 323.508789062 50 l 1
 338.508789062 50 l 1
 331.508789062 65 l 2
 316.841796875 94.3330078125 306.674804688 116.833007812 301.0078125 132.5 c 0
 295.340820312 148.166992188 292.5078125 161.666992188 292.5078125 173 c 0
 292.5078125 187 297.174804688 198 306.5078125 206 c 0
 311.840820312 210.666992188 316.840820312 213 321.5078125 213 c 0
 324.840820312 213 328.178710938 211.666015625 331.51171875 208.999023438 c 0
EndSplineSet
Validated: 524289
EndChar

StartChar: R
Encoding: 82 82 51
Width: 650
GlyphClass: 2
Flags: HMW
HStem: -18.998 21G 280.633 68.3692 675.001 20G
VStem: 100.501 76.001 104.502 83.998 109.168 59.3317 110.001 70.5 466.499 72.0029
LayerCount: 2
Fore
SplineSet
444.501953125 504.000976562 m 0xe3
 429.834960938 522.66796875 412.500976562 538.834960938 392.500976562 552.501953125 c 0
 372.500976562 566.168945312 350.16796875 578.668945312 325.500976562 590.001953125 c 0
 278.833984375 610.668945312 232.833984375 625.001953125 187.500976562 633.001953125 c 2
 176.500976562 635.001953125 l 1xf1
 177.833984375 578.334960938 179.166992188 532.334960938 180.5 497.001953125 c 0
 180.5 485.001953125 179.499023438 465.334960938 177.499023438 438.001953125 c 0
 176.83203125 429.334960938 174.166015625 400.334960938 169.499023438 351.001953125 c 1
 177.499023438 350.001953125 l 2
 186.260742188 348.477539062 196.981445312 347.715820312 209.661132812 347.715820312 c 0
 219.171875 347.715820312 229.784179688 348.14453125 241.499023438 349.001953125 c 0
 319.499023438 352.334960938 372.83203125 359.334960938 401.499023438 370.001953125 c 0
 412.83203125 374.001953125 423.499023438 379.334960938 433.499023438 386.001953125 c 0
 455.499023438 400.001953125 466.499023438 419.668945312 466.499023438 445.001953125 c 0
 466.499023438 465.668945312 459.168945312 485.333984375 444.501953125 504.000976562 c 0xe3
479.500976562 3 m 0
 468.833984375 17 453.49609375 34.66796875 433.49609375 56.0009765625 c 0
 415.49609375 76.66796875 393.666015625 99.5009765625 367.999023438 124.500976562 c 0
 342.33203125 149.500976562 313.165039062 174.333984375 280.498046875 199.000976562 c 0
 247.831054688 223.66796875 214.831054688 243.334960938 181.498046875 258.001953125 c 1
 176.831054688 253.334960938 172.1640625 255.334960938 167.497070312 264.001953125 c 1
 168.1640625 252.668945312 168.497070312 249.001953125 168.497070312 249.001953125 c 2xe5
 169.830078125 210.334960938 173.497070312 163.001953125 179.497070312 107.001953125 c 0
 185.497070312 51.001953125 188.497070312 19.3349609375 188.497070312 12.001953125 c 0
 187.830078125 2.6689453125 183.497070312 -4.6640625 175.497070312 -9.9970703125 c 0
 166.1640625 -15.9970703125 155.831054688 -18.9970703125 144.498046875 -18.9970703125 c 2
 141.498046875 -18.9970703125 l 2
 130.165039062 -18.9970703125 120.83203125 -15.6640625 113.499023438 -8.9970703125 c 0
 107.499023438 -3.6640625 104.499023438 3.6689453125 104.499023438 13.001953125 c 0xe9
 105.166015625 14.3349609375 105.499023438 16.3349609375 105.499023438 19.001953125 c 0
 107.499023438 53.6689453125 108.666015625 83.501953125 108.999023438 108.501953125 c 0
 109.110351562 116.827148438 109.166015625 129.051757812 109.166015625 145.176757812 c 0xe5
 109.166015625 177.473632812 108.943359375 225.415039062 108.498046875 289.000976562 c 2
 108.498046875 305.500976562 l 2
 108.498046875 314.500976562 108.998046875 333.000976562 109.998046875 361.000976562 c 0xe3
 110.998046875 389.000976562 111.498046875 412.833984375 111.498046875 432.500976562 c 0
 111.498046875 452.16796875 111.165039062 472.000976562 110.498046875 492.000976562 c 0
 109.831054688 512.000976562 107.998046875 541.500976562 104.998046875 580.500976562 c 0
 101.998046875 619.500976562 100.498046875 642.66796875 100.498046875 650.000976562 c 2
 100.498046875 656.000976562 l 1
 100.498046875 659.000976562 l 2xf1
 100.498046875 667.000976562 104.165039062 674.66796875 111.498046875 682.000976562 c 0
 118.165039062 690.66796875 127.83203125 695.000976562 140.499023438 695.000976562 c 0
 151.166015625 695.000976562 159.499023438 692.66796875 165.499023438 688.000976562 c 1
 166.83203125 681.333984375 167.830078125 681.000976562 168.497070312 687.000976562 c 1xe5
 222.497070312 684.333984375 269.999023438 677.166992188 310.999023438 665.5 c 0
 351.999023438 653.833007812 385.83203125 639.666015625 412.499023438 622.999023438 c 0
 440.499023438 606.33203125 464.33203125 587.33203125 483.999023438 565.999023438 c 0
 503.666015625 544.666015625 517.666015625 523.499023438 525.999023438 502.499023438 c 0
 534.33203125 481.499023438 538.499023438 460.33203125 538.499023438 438.999023438 c 0
 538.499023438 408.33203125 530.83203125 382.999023438 515.499023438 362.999023438 c 0
 508.166015625 353.666015625 498.499023438 345.166015625 486.499023438 337.499023438 c 0
 474.499023438 329.83203125 461.499023438 323.33203125 447.499023438 317.999023438 c 0
 434.166015625 312.666015625 418.829101562 307.833007812 401.49609375 303.5 c 0
 384.163085938 299.166992188 366.666992188 295.833984375 349 293.500976562 c 0
 331.333007812 291.16796875 311.5 289.000976562 289.5 287.000976562 c 0
 283.7109375 282.755859375 277.809570312 280.6328125 271.796875 280.6328125 c 0
 267.423828125 280.6328125 262.9921875 281.755859375 258.500976562 284.000976562 c 1
 266.301757812 273.201171875 274.372070312 267.801757812 282.711914062 267.801757812 c 0
 283.638671875 267.801757812 284.568359375 267.868164062 285.501953125 268.000976562 c 0
 346.168945312 234.000976562 400.16796875 194.333984375 447.500976562 149.000976562 c 0
 498.16796875 103.000976562 531.501953125 64.333984375 547.501953125 33.0009765625 c 0
 548.834960938 28.333984375 549.501953125 23.833984375 549.501953125 19.5009765625 c 0
 549.501953125 15.16796875 548.834960938 11.0009765625 547.501953125 7.0009765625 c 0
 544.168945312 -0.33203125 539.168945312 -6.33203125 532.501953125 -10.9990234375 c 0
 526.501953125 -15.666015625 520.501953125 -17.9990234375 514.501953125 -17.9990234375 c 0
 501.834960938 -17.9990234375 490.16796875 -11 479.500976562 3 c 0
EndSplineSet
Validated: 524289
EndChar

StartChar: S
Encoding: 83 83 52
Width: 650
GlyphClass: 2
Flags: HMW
HStem: -29.0049 67.0049 664.997 59.1678
VStem: 123.499 81 476.496 80.0039
LayerCount: 2
Fore
SplineSet
94.4970703125 102 m 0
 96.4970703125 110.666992188 101.830078125 117 110.497070312 121 c 0
 117.830078125 124.333007812 122.997070312 126.333007812 125.997070312 127 c 0
 128.997070312 127.666992188 131.497070312 128 133.497070312 128 c 2
 139.497070312 128 l 2
 143.497070312 128 147.6640625 126 151.997070312 122 c 0
 156.330078125 118 161.163085938 112 166.49609375 104 c 0
 179.829101562 84 197.49609375 68 219.49609375 56 c 0
 240.163085938 44 263.49609375 38 289.49609375 38 c 0
 304.829101562 38 320.99609375 40.3330078125 337.99609375 45 c 0
 354.99609375 49.6669921875 371.49609375 56.6669921875 387.49609375 66 c 0
 403.49609375 75.3330078125 417.829101562 86.666015625 430.49609375 99.9990234375 c 0
 443.829101562 113.33203125 454.829101562 128.999023438 463.49609375 146.999023438 c 0
 472.163085938 164.999023438 476.49609375 183.999023438 476.49609375 203.999023438 c 0
 476.49609375 214.666015625 475.829101562 224.499023438 474.49609375 233.499023438 c 0
 473.163085938 242.499023438 470.330078125 252.166015625 465.997070312 262.499023438 c 0
 461.6640625 272.83203125 456.1640625 282.33203125 449.497070312 290.999023438 c 0
 442.830078125 299.666015625 433.830078125 308.333007812 422.497070312 317 c 0
 411.1640625 325.666992188 398.331054688 333 383.998046875 339 c 0
 369.665039062 345 351.998046875 350.666992188 330.998046875 356 c 0
 309.998046875 361.333007812 286.831054688 365.666015625 261.498046875 368.999023438 c 0
 240.831054688 371.666015625 221.831054688 377.666015625 204.498046875 386.999023438 c 0
 185.831054688 396.33203125 170.831054688 407.83203125 159.498046875 421.499023438 c 0
 148.165039062 435.166015625 139.33203125 449.666015625 132.999023438 464.999023438 c 0
 126.666015625 480.33203125 123.499023438 495.33203125 123.499023438 509.999023438 c 0
 123.499023438 531.999023438 127.166015625 553.33203125 134.499023438 573.999023438 c 0
 141.83203125 594.666015625 153.165039062 614.166015625 168.498046875 632.499023438 c 0
 183.831054688 650.83203125 202.1640625 666.665039062 223.497070312 679.998046875 c 0
 243.497070312 693.331054688 267.6640625 703.998046875 295.997070312 711.998046875 c 0
 324.330078125 719.998046875 354.830078125 723.998046875 387.497070312 723.998046875 c 0
 390.165039062 724.109375 393.018554688 724.165039062 396.057617188 724.165039062 c 0
 411.2421875 724.165039062 431.055664062 722.776367188 455.497070312 719.999023438 c 0
 486.1640625 716.666015625 506.831054688 712.999023438 517.498046875 708.999023438 c 0
 528.165039062 704.999023438 535.498046875 698.999023438 539.498046875 690.999023438 c 0
 543.498046875 684.33203125 545.498046875 677.665039062 545.498046875 670.998046875 c 0
 545.498046875 662.331054688 543.498046875 655.998046875 539.498046875 651.998046875 c 0
 536.831054688 648.665039062 533.498046875 646.83203125 529.498046875 646.499023438 c 0
 525.498046875 646.166015625 521.831054688 645.999023438 518.498046875 645.999023438 c 0
 509.165039062 645.999023438 500.165039062 647.666015625 491.498046875 650.999023438 c 0
 479.498046875 654.33203125 469.831054688 656.665039062 462.498046875 657.998046875 c 0
 455.165039062 659.331054688 443.83203125 660.6640625 428.499023438 661.997070312 c 0
 413.83203125 663.997070312 397.499023438 664.997070312 379.499023438 664.997070312 c 0
 350.83203125 664.997070312 323.499023438 660.330078125 297.499023438 650.997070312 c 0
 270.83203125 640.997070312 248.83203125 625.997070312 231.499023438 605.997070312 c 0
 213.499023438 585.997070312 204.499023438 562.997070312 204.499023438 536.997070312 c 0
 205.166015625 506.997070312 217.166015625 481.997070312 240.499023438 461.997070312 c 0
 262.499023438 441.997070312 293.166015625 430.997070312 332.499023438 428.997070312 c 0
 366.499023438 426.997070312 396.166015625 421.330078125 421.499023438 411.997070312 c 0
 448.166015625 402.6640625 469.833007812 391.331054688 486.5 377.998046875 c 0
 503.166992188 364.665039062 517 348.998046875 528 330.998046875 c 0
 539 312.998046875 546.5 295.331054688 550.5 277.998046875 c 0
 554.5 260.665039062 556.5 241.998046875 556.5 221.998046875 c 0
 556.5 191.331054688 551.5 162.6640625 541.5 135.997070312 c 0
 531.5 109.330078125 517.666992188 86.1630859375 500 66.49609375 c 0
 482.333007812 46.8291015625 461.5 29.662109375 437.5 14.9951171875 c 0
 416.166992188 0.328125 392.5 -10.671875 366.5 -18.0048828125 c 0
 340.5 -25.337890625 313.833007812 -29.0048828125 286.5 -29.0048828125 c 0
 244.5 -29.0048828125 206.5 -20.0048828125 172.5 -2.0048828125 c 0
 138.5 15.9951171875 115.166992188 37.662109375 102.5 62.9951171875 c 0
 96.5 75.662109375 93.5 86.3291015625 93.5 94.99609375 c 0
 93.5 97.6630859375 93.830078125 100 94.4970703125 102 c 0
EndSplineSet
Validated: 524289
EndChar

StartChar: T
Encoding: 84 84 53
Width: 650
GlyphClass: 2
Flags: HMW
HStem: 612 69<521 523 519 527.333> 640.499 54.499
VStem: 288.999 75 298.999 76.001
LayerCount: 2
Fore
SplineSet
131.999023438 694 m 0x60
 169.33203125 688 299 683.666992188 521 681 c 0
 533.666992188 681 542.666992188 678 548 672 c 0
 553.333007812 666 556.333007812 658.666992188 557 650 c 0
 557 639.333007812 553.666992188 630 547 622 c 0
 541.666992188 615.333007812 533.666992188 612 523 612 c 2
 519 612 l 2
 500.333007812 610.366210938 481.870117188 609.549804688 463.611328125 609.549804688 c 0
 429.703125 609.549804688 396.499023438 612.366210938 363.999023438 618 c 1xa0
 364.666015625 475.333007812 368.333007812 277.333007812 375 24 c 0
 374.333007812 12.6669921875 369.666015625 3.6669921875 360.999023438 -3 c 0
 352.33203125 -9.6669921875 342.999023438 -13 332.999023438 -13 c 1
 331.666015625 -19.6669921875 330.666015625 -19.6669921875 329.999023438 -13 c 1
 319.999023438 -13 311.999023438 -9.3330078125 305.999023438 -2 c 0
 301.33203125 3.3330078125 298.999023438 11 298.999023438 21 c 0x90
 298.999023438 23 299.166015625 26.6669921875 299.499023438 32 c 0
 299.83203125 37.3330078125 299.999023438 51.666015625 299.999023438 74.9990234375 c 0
 299.999023438 122.999023438 298.166015625 208.33203125 294.499023438 330.999023438 c 0
 290.83203125 453.666015625 288.999023438 540.999023438 288.999023438 592.999023438 c 2
 288.999023438 619.999023438 l 1
 200.33203125 624.666015625 149.33203125 627.999023438 135.999023438 629.999023438 c 0
 122.666015625 631.999023438 112.333007812 635.499023438 105 640.499023438 c 0
 97.6669921875 645.499023438 94 651.999023438 94 659.999023438 c 1
 93.3330078125 653.999023438 93 654.666015625 93 661.999023438 c 0
 93 671.33203125 96.3330078125 679.665039062 103 686.998046875 c 0
 107.666992188 692.331054688 114.333984375 694.998046875 123.000976562 694.998046875 c 0
 125.66796875 694.998046875 128.666015625 694.666992188 131.999023438 694 c 0x60
EndSplineSet
Validated: 524289
EndChar

StartChar: U
Encoding: 85 85 54
Width: 650
GlyphClass: 2
Flags: HMW
HStem: -28.999 71 669.52 20G
VStem: 88.5379 73.9219 487.461 74.001
LayerCount: 2
Fore
SplineSet
557.461914062 250 m 0
 556.794921875 220.666992188 552.961914062 193.334960938 545.961914062 168.001953125 c 0
 538.961914062 142.668945312 530.461914062 120.668945312 520.461914062 102.001953125 c 0
 510.461914062 83.3349609375 498.62890625 66.501953125 484.961914062 51.501953125 c 0
 471.294921875 36.501953125 456.794921875 24.001953125 441.461914062 14.001953125 c 0
 427.461914062 4.001953125 412.794921875 -4.1650390625 397.461914062 -10.498046875 c 0
 382.12890625 -16.8310546875 367.12890625 -21.498046875 352.461914062 -24.498046875 c 0
 337.794921875 -27.498046875 322.627929688 -28.998046875 306.9609375 -28.998046875 c 0
 291.293945312 -28.998046875 274.793945312 -26.498046875 257.4609375 -21.498046875 c 0
 240.127929688 -16.498046875 222.127929688 -7.6650390625 203.4609375 5.001953125 c 0
 183.4609375 17.6689453125 165.793945312 33.501953125 150.4609375 52.501953125 c 0
 135.127929688 71.501953125 122.127929688 96.001953125 111.4609375 126.001953125 c 0
 100.793945312 156.001953125 94.7939453125 190.334960938 93.4609375 229.001953125 c 0
 90.1787109375 353.721679688 88.5380859375 453.825195312 88.5380859375 529.3125 c 0
 88.5380859375 576.490234375 89.1787109375 614.053710938 90.4609375 642.001953125 c 0
 90.4609375 657.334960938 94.6279296875 669.16796875 102.9609375 677.500976562 c 0
 110.973632812 685.513671875 120.373046875 689.520507812 131.16015625 689.520507812 c 0
 131.590820312 689.520507812 132.024414062 689.513671875 132.459960938 689.500976562 c 0
 143.79296875 689.16796875 151.79296875 685.334960938 156.459960938 678.001953125 c 0
 160.459960938 671.334960938 162.459960938 661.334960938 162.459960938 648.001953125 c 0
 163.126953125 422.001953125 165.126953125 285.334960938 168.459960938 238.001953125 c 0
 169.79296875 215.334960938 172.125976562 196.334960938 175.458984375 181.001953125 c 0
 178.791992188 165.668945312 184.458984375 149.168945312 192.458984375 131.501953125 c 0
 200.458984375 113.834960938 209.791992188 98.66796875 220.458984375 86.0009765625 c 0
 231.125976562 73.333984375 244.625976562 62.833984375 260.958984375 54.5009765625 c 0
 277.291992188 46.16796875 295.791992188 42.0009765625 316.458984375 42.0009765625 c 0
 363.125976562 42.66796875 400.79296875 59.66796875 429.459960938 93.0009765625 c 0
 460.126953125 126.333984375 477.793945312 176.666992188 482.4609375 244 c 0
 484.4609375 272.666992188 485.793945312 305.166992188 486.4609375 341.5 c 0
 487.127929688 377.833007812 487.4609375 405 487.4609375 423 c 0
 487.4609375 441 487.293945312 469.833007812 486.9609375 509.5 c 0
 486.627929688 549.166992188 486.4609375 590.666992188 486.4609375 634 c 0
 486.4609375 661.333007812 490.127929688 678 497.4609375 684 c 0
 500.793945312 686.666992188 504.293945312 688.5 507.9609375 689.5 c 0
 511.627929688 690.5 516.4609375 691 522.4609375 691 c 0
 531.793945312 691 539.793945312 687.166992188 546.4609375 679.5 c 0
 553.127929688 671.833007812 556.794921875 660.333007812 557.461914062 645 c 0
 560.12890625 593 561.461914062 534 561.461914062 468 c 0
 561.461914062 402 560.12890625 329.333007812 557.461914062 250 c 0
EndSplineSet
Validated: 524289
EndChar

